<?xml version="1.0" encoding="utf-8" standalone="no"?>
<!DOCTYPE svg PUBLIC "-//W3C//DTD SVG 1.1//EN"
  "http://www.w3.org/Graphics/SVG/1.1/DTD/svg11.dtd">
<svg xmlns:xlink="http://www.w3.org/1999/xlink" width="734.4pt" height="309.6pt" viewBox="0 0 734.4 309.6" xmlns="http://www.w3.org/2000/svg" version="1.1">
 <metadata>
  <rdf:RDF xmlns:dc="http://purl.org/dc/elements/1.1/" xmlns:cc="http://creativecommons.org/ns#" xmlns:rdf="http://www.w3.org/1999/02/22-rdf-syntax-ns#">
   <cc:Work>
    <dc:type rdf:resource="http://purl.org/dc/dcmitype/StillImage"/>
    <dc:date>2026-10-08T22:14:53.646829</dc:date>
    <dc:format>image/svg+xml</dc:format>
    <dc:creator>
     <cc:Agent>
      <dc:title>Matplotlib v3.11.1, https://matplotlib.org/</dc:title>
     </cc:Agent>
    </dc:creator>
   </cc:Work>
  </rdf:RDF>
 </metadata>
 <defs>
  <style type="text/css">*{stroke-linejoin: round; stroke-linecap: butt}</style>
 </defs>
 <g id="figure_1">
  <g id="patch_1">
   <path d="M 0 309.6 
L 734.4 309.6 
L 734.4 0 
L 0 0 
z
" style="fill: #ffffff"/>
  </g>
  <g id="axes_1">
   <g id="patch_2">
    <path d="M 43.231021 271.804369 
L 354.976945 271.804369 
L 354.976945 19.975084 
L 43.231021 19.975084 
z
" style="fill: #ffffff"/>
   </g>
   <g id="matplotlib.axis_1">
    <g id="xtick_1">
     <g id="line2d_1">
      <path d="M 43.231021 271.804369 
L 43.231021 19.975084 
" clip-path="url(#p2b9a8c23b9)" style="fill: none; stroke: #dce3e7; stroke-opacity: 0.6; stroke-width: 0.6; stroke-linecap: square"/>
     </g>
     <g id="line2d_2">
      <defs>
       <path id="mdb611dd71b" d="M 0 0 
L 0 3.5 
" style="stroke: #536b76; stroke-width: 0.8"/>
      </defs>
      <g>
       <use xlink:href="#mdb611dd71b" x="43.231021" y="271.804369" style="fill: #536b76; stroke: #536b76; stroke-width: 0.8"/>
      </g>
     </g>
     <g id="text_1">
      <!-- 0.00 -->
      <g style="fill: #536b76" transform="translate(31.554459 287.540697) scale(0.12 -0.12)">
       <defs>
        <path id="ArialUnicodeMS-13" d="M 1778 4603 
Q 3272 4603 3272 2259 
Q 3272 1075 2886 498 
Q 2500 -78 1778 -78 
Q 288 -78 288 2259 
Q 288 3444 673 4023 
Q 1059 4603 1778 4603 
z
M 1778 384 
Q 2231 384 2462 823 
Q 2694 1263 2694 2259 
Q 2694 2953 2592 3351 
Q 2491 3750 2286 3945 
Q 2081 4141 1772 4141 
Q 1319 4141 1091 3694 
Q 863 3247 863 2259 
Q 863 1575 966 1175 
Q 1069 775 1272 579 
Q 1475 384 1778 384 
z
" transform="scale(0.015625)"/>
        <path id="ArialUnicodeMS-11" d="M 1209 0 
L 569 0 
L 569 641 
L 1209 641 
L 1209 0 
z
" transform="scale(0.015625)"/>
       </defs>
       <use xlink:href="#ArialUnicodeMS-13"/>
       <use xlink:href="#ArialUnicodeMS-11" transform="translate(55.609375 0)"/>
       <use xlink:href="#ArialUnicodeMS-13" transform="translate(83.390625 0)"/>
       <use xlink:href="#ArialUnicodeMS-13" transform="translate(139 0)"/>
      </g>
     </g>
    </g>
    <g id="xtick_2">
     <g id="line2d_3">
      <path d="M 82.199262 271.804369 
L 82.199262 19.975084 
" clip-path="url(#p2b9a8c23b9)" style="fill: none; stroke: #dce3e7; stroke-opacity: 0.6; stroke-width: 0.6; stroke-linecap: square"/>
     </g>
     <g id="line2d_4">
      <g>
       <use xlink:href="#mdb611dd71b" x="82.199262" y="271.804369" style="fill: #536b76; stroke: #536b76; stroke-width: 0.8"/>
      </g>
     </g>
     <g id="text_2">
      <!-- 0.25 -->
      <g style="fill: #536b76" transform="translate(70.522699 287.540697) scale(0.12 -0.12)">
       <defs>
        <path id="ArialUnicodeMS-15" d="M 3231 0 
L 197 0 
Q 197 388 467 784 
Q 738 1181 1478 1778 
Q 1931 2141 2287 2539 
Q 2644 2938 2644 3341 
Q 2644 3688 2398 3914 
Q 2153 4141 1778 4141 
Q 1400 4141 1144 3908 
Q 888 3675 884 3213 
L 306 3278 
Q 359 3922 764 4262 
Q 1169 4603 1791 4603 
Q 2466 4603 2842 4229 
Q 3219 3856 3219 3328 
Q 3219 2888 2901 2436 
Q 2584 1984 1638 1228 
Q 1141 831 978 544 
L 3231 544 
L 3231 0 
z
" transform="scale(0.015625)"/>
        <path id="ArialUnicodeMS-18" d="M 1013 2753 
Q 1431 3041 1881 3041 
Q 2453 3041 2878 2636 
Q 3303 2231 3303 1556 
Q 3303 875 2872 398 
Q 2441 -78 1741 -78 
Q 1169 -78 750 245 
Q 331 569 269 1203 
L 856 1247 
Q 928 813 1162 598 
Q 1397 384 1741 384 
Q 2169 384 2434 707 
Q 2700 1031 2700 1503 
Q 2700 1984 2428 2262 
Q 2156 2541 1728 2541 
Q 1188 2541 897 2100 
L 366 2163 
L 813 4519 
L 3084 4519 
L 3084 3975 
L 1259 3975 
L 1013 2753 
z
" transform="scale(0.015625)"/>
       </defs>
       <use xlink:href="#ArialUnicodeMS-13"/>
       <use xlink:href="#ArialUnicodeMS-11" transform="translate(55.609375 0)"/>
       <use xlink:href="#ArialUnicodeMS-15" transform="translate(83.390625 0)"/>
       <use xlink:href="#ArialUnicodeMS-18" transform="translate(139 0)"/>
      </g>
     </g>
    </g>
    <g id="xtick_3">
     <g id="line2d_5">
      <path d="M 121.167502 271.804369 
L 121.167502 19.975084 
" clip-path="url(#p2b9a8c23b9)" style="fill: none; stroke: #dce3e7; stroke-opacity: 0.6; stroke-width: 0.6; stroke-linecap: square"/>
     </g>
     <g id="line2d_6">
      <g>
       <use xlink:href="#mdb611dd71b" x="121.167502" y="271.804369" style="fill: #536b76; stroke: #536b76; stroke-width: 0.8"/>
      </g>
     </g>
     <g id="text_3">
      <!-- 0.50 -->
      <g style="fill: #536b76" transform="translate(109.49094 287.540697) scale(0.12 -0.12)">
       <use xlink:href="#ArialUnicodeMS-13"/>
       <use xlink:href="#ArialUnicodeMS-11" transform="translate(55.609375 0)"/>
       <use xlink:href="#ArialUnicodeMS-18" transform="translate(83.390625 0)"/>
       <use xlink:href="#ArialUnicodeMS-13" transform="translate(139 0)"/>
      </g>
     </g>
    </g>
    <g id="xtick_4">
     <g id="line2d_7">
      <path d="M 160.135743 271.804369 
L 160.135743 19.975084 
" clip-path="url(#p2b9a8c23b9)" style="fill: none; stroke: #dce3e7; stroke-opacity: 0.6; stroke-width: 0.6; stroke-linecap: square"/>
     </g>
     <g id="line2d_8">
      <g>
       <use xlink:href="#mdb611dd71b" x="160.135743" y="271.804369" style="fill: #536b76; stroke: #536b76; stroke-width: 0.8"/>
      </g>
     </g>
     <g id="text_4">
      <!-- 0.75 -->
      <g style="fill: #536b76" transform="translate(148.45918 287.540697) scale(0.12 -0.12)">
       <defs>
        <path id="ArialUnicodeMS-1a" d="M 3272 4084 
Q 2597 3344 2103 2253 
Q 1609 1163 1522 0 
L 947 0 
Q 969 934 1408 2051 
Q 1847 3169 2547 3975 
L 306 3975 
L 306 4519 
L 3272 4519 
L 3272 4084 
z
" transform="scale(0.015625)"/>
       </defs>
       <use xlink:href="#ArialUnicodeMS-13"/>
       <use xlink:href="#ArialUnicodeMS-11" transform="translate(55.609375 0)"/>
       <use xlink:href="#ArialUnicodeMS-1a" transform="translate(83.390625 0)"/>
       <use xlink:href="#ArialUnicodeMS-18" transform="translate(139 0)"/>
      </g>
     </g>
    </g>
    <g id="xtick_5">
     <g id="line2d_9">
      <path d="M 199.103983 271.804369 
L 199.103983 19.975084 
" clip-path="url(#p2b9a8c23b9)" style="fill: none; stroke: #dce3e7; stroke-opacity: 0.6; stroke-width: 0.6; stroke-linecap: square"/>
     </g>
     <g id="line2d_10">
      <g>
       <use xlink:href="#mdb611dd71b" x="199.103983" y="271.804369" style="fill: #536b76; stroke: #536b76; stroke-width: 0.8"/>
      </g>
     </g>
     <g id="text_5">
      <!-- 1.00 -->
      <g style="fill: #536b76" transform="translate(187.427421 287.540697) scale(0.12 -0.12)">
       <defs>
        <path id="ArialUnicodeMS-14" d="M 2400 0 
L 1838 0 
L 1838 3584 
Q 1416 3184 709 2906 
L 709 3450 
Q 1681 3916 2034 4603 
L 2400 4603 
L 2400 0 
z
" transform="scale(0.015625)"/>
       </defs>
       <use xlink:href="#ArialUnicodeMS-14"/>
       <use xlink:href="#ArialUnicodeMS-11" transform="translate(55.609375 0)"/>
       <use xlink:href="#ArialUnicodeMS-13" transform="translate(83.390625 0)"/>
       <use xlink:href="#ArialUnicodeMS-13" transform="translate(139 0)"/>
      </g>
     </g>
    </g>
    <g id="xtick_6">
     <g id="line2d_11">
      <path d="M 238.072224 271.804369 
L 238.072224 19.975084 
" clip-path="url(#p2b9a8c23b9)" style="fill: none; stroke: #dce3e7; stroke-opacity: 0.6; stroke-width: 0.6; stroke-linecap: square"/>
     </g>
     <g id="line2d_12">
      <g>
       <use xlink:href="#mdb611dd71b" x="238.072224" y="271.804369" style="fill: #536b76; stroke: #536b76; stroke-width: 0.8"/>
      </g>
     </g>
     <g id="text_6">
      <!-- 1.25 -->
      <g style="fill: #536b76" transform="translate(226.395661 287.540697) scale(0.12 -0.12)">
       <use xlink:href="#ArialUnicodeMS-14"/>
       <use xlink:href="#ArialUnicodeMS-11" transform="translate(55.609375 0)"/>
       <use xlink:href="#ArialUnicodeMS-15" transform="translate(83.390625 0)"/>
       <use xlink:href="#ArialUnicodeMS-18" transform="translate(139 0)"/>
      </g>
     </g>
    </g>
    <g id="xtick_7">
     <g id="line2d_13">
      <path d="M 277.040464 271.804369 
L 277.040464 19.975084 
" clip-path="url(#p2b9a8c23b9)" style="fill: none; stroke: #dce3e7; stroke-opacity: 0.6; stroke-width: 0.6; stroke-linecap: square"/>
     </g>
     <g id="line2d_14">
      <g>
       <use xlink:href="#mdb611dd71b" x="277.040464" y="271.804369" style="fill: #536b76; stroke: #536b76; stroke-width: 0.8"/>
      </g>
     </g>
     <g id="text_7">
      <!-- 1.50 -->
      <g style="fill: #536b76" transform="translate(265.363902 287.540697) scale(0.12 -0.12)">
       <use xlink:href="#ArialUnicodeMS-14"/>
       <use xlink:href="#ArialUnicodeMS-11" transform="translate(55.609375 0)"/>
       <use xlink:href="#ArialUnicodeMS-18" transform="translate(83.390625 0)"/>
       <use xlink:href="#ArialUnicodeMS-13" transform="translate(139 0)"/>
      </g>
     </g>
    </g>
    <g id="xtick_8">
     <g id="line2d_15">
      <path d="M 316.008705 271.804369 
L 316.008705 19.975084 
" clip-path="url(#p2b9a8c23b9)" style="fill: none; stroke: #dce3e7; stroke-opacity: 0.6; stroke-width: 0.6; stroke-linecap: square"/>
     </g>
     <g id="line2d_16">
      <g>
       <use xlink:href="#mdb611dd71b" x="316.008705" y="271.804369" style="fill: #536b76; stroke: #536b76; stroke-width: 0.8"/>
      </g>
     </g>
     <g id="text_8">
      <!-- 1.75 -->
      <g style="fill: #536b76" transform="translate(304.332142 287.540697) scale(0.12 -0.12)">
       <use xlink:href="#ArialUnicodeMS-14"/>
       <use xlink:href="#ArialUnicodeMS-11" transform="translate(55.609375 0)"/>
       <use xlink:href="#ArialUnicodeMS-1a" transform="translate(83.390625 0)"/>
       <use xlink:href="#ArialUnicodeMS-18" transform="translate(139 0)"/>
      </g>
     </g>
    </g>
    <g id="xtick_9">
     <g id="line2d_17">
      <path d="M 354.976945 271.804369 
L 354.976945 19.975084 
" clip-path="url(#p2b9a8c23b9)" style="fill: none; stroke: #dce3e7; stroke-opacity: 0.6; stroke-width: 0.6; stroke-linecap: square"/>
     </g>
     <g id="line2d_18">
      <g>
       <use xlink:href="#mdb611dd71b" x="354.976945" y="271.804369" style="fill: #536b76; stroke: #536b76; stroke-width: 0.8"/>
      </g>
     </g>
     <g id="text_9">
      <!-- 2.00 -->
      <g style="fill: #536b76" transform="translate(343.300383 287.540697) scale(0.12 -0.12)">
       <use xlink:href="#ArialUnicodeMS-15"/>
       <use xlink:href="#ArialUnicodeMS-11" transform="translate(55.609375 0)"/>
       <use xlink:href="#ArialUnicodeMS-13" transform="translate(83.390625 0)"/>
       <use xlink:href="#ArialUnicodeMS-13" transform="translate(139 0)"/>
      </g>
     </g>
    </g>
    <g id="text_10">
     <!-- 时间 t / s -->
     <g style="fill: #192b35" transform="translate(175.769608 304.008979) scale(0.12 -0.12)">
      <defs>
       <path id="ArialUnicodeMS-3885" d="M 5931 3481 
L 5259 3481 
L 5259 72 
Q 5259 -122 5142 -259 
Q 5025 -397 4863 -397 
L 4281 -397 
L 4097 122 
L 4672 78 
Q 4775 66 4775 191 
L 4775 3481 
L 2784 3481 
L 2784 3950 
L 4775 3950 
L 4775 5306 
L 5259 5306 
L 5259 3950 
L 5931 3950 
L 5931 3481 
z
M 2463 97 
L 1978 97 
L 1978 569 
L 1147 569 
L 1147 97 
L 659 97 
L 659 4313 
L 2463 4313 
L 2463 97 
z
M 1978 2675 
L 1978 3847 
L 1147 3847 
L 1147 2675 
L 1978 2675 
z
M 1978 1038 
L 1978 2209 
L 1147 2209 
L 1147 1038 
L 1978 1038 
z
M 4306 1575 
L 3903 1300 
Q 3594 2103 2888 2725 
L 3272 2994 
Q 3997 2375 4306 1575 
z
" transform="scale(0.015625)"/>
       <path id="ArialUnicodeMS-6883" d="M 2463 4313 
L 2088 4006 
Q 1600 4669 1094 4984 
L 1484 5247 
Q 2044 4888 2463 4313 
z
M 5497 178 
Q 5497 -50 5353 -181 
Q 5209 -313 4853 -313 
Q 4753 -313 4506 -300 
L 4366 147 
Q 4631 106 4806 106 
Q 4991 106 5002 142 
Q 5013 178 5013 275 
L 5013 4453 
L 2841 4453 
L 2841 4922 
L 5497 4922 
L 5497 178 
z
M 1125 -384 
L 641 -384 
L 641 4197 
L 1125 4197 
L 1125 -384 
z
M 4306 481 
L 3822 481 
L 3822 813 
L 2375 813 
L 2375 481 
L 1888 481 
L 1888 3669 
L 4306 3669 
L 4306 481 
z
M 3822 2559 
L 3822 3200 
L 2375 3200 
L 2375 2559 
L 3822 2559 
z
M 3822 1281 
L 3822 2094 
L 2375 2094 
L 2375 1281 
L 3822 1281 
z
" transform="scale(0.015625)"/>
       <path id="ArialUnicodeMS-3" transform="scale(0.015625)"/>
       <path id="ArialUnicodeMS-57" d="M 1722 6 
Q 1472 -44 1300 -44 
Q 931 -44 762 86 
Q 594 216 556 416 
Q 519 616 519 972 
L 519 2881 
L 109 2881 
L 109 3316 
L 519 3316 
L 519 4141 
L 1081 4481 
L 1081 3316 
L 1644 3316 
L 1644 2881 
L 1081 2881 
L 1081 941 
Q 1081 691 1132 586 
Q 1184 481 1394 481 
Q 1516 481 1644 506 
L 1722 6 
z
" transform="scale(0.015625)"/>
       <path id="ArialUnicodeMS-12" d="M 1778 4581 
L 453 -153 
L 0 -153 
L 1325 4581 
L 1778 4581 
z
" transform="scale(0.015625)"/>
       <path id="ArialUnicodeMS-56" d="M 2278 2388 
Q 2241 2659 2058 2795 
Q 1875 2931 1550 2931 
Q 1228 2931 1029 2822 
Q 831 2713 831 2503 
Q 831 2306 989 2222 
Q 1147 2138 1613 2016 
Q 2138 1881 2398 1778 
Q 2659 1675 2804 1489 
Q 2950 1303 2950 972 
Q 2950 528 2587 225 
Q 2225 -78 1619 -78 
Q 988 -78 633 189 
Q 278 456 197 991 
L 756 1075 
Q 800 728 1014 556 
Q 1228 384 1613 384 
Q 1981 384 2178 539 
Q 2375 694 2375 916 
Q 2375 1066 2284 1156 
Q 2194 1247 2058 1292 
Q 1922 1338 1447 1453 
Q 741 1622 514 1862 
Q 288 2103 288 2438 
Q 288 2853 619 3122 
Q 950 3391 1509 3391 
Q 2103 3391 2433 3158 
Q 2763 2925 2828 2463 
L 2278 2388 
z
" transform="scale(0.015625)"/>
      </defs>
      <use xlink:href="#ArialUnicodeMS-3885"/>
      <use xlink:href="#ArialUnicodeMS-6883" transform="translate(100 0)"/>
      <use xlink:href="#ArialUnicodeMS-3" transform="translate(200 0)"/>
      <use xlink:href="#ArialUnicodeMS-57" transform="translate(227.78125 0)"/>
      <use xlink:href="#ArialUnicodeMS-3" transform="translate(255.5625 0)"/>
      <use xlink:href="#ArialUnicodeMS-12" transform="translate(283.34375 0)"/>
      <use xlink:href="#ArialUnicodeMS-3" transform="translate(311.125 0)"/>
      <use xlink:href="#ArialUnicodeMS-56" transform="translate(338.90625 0)"/>
     </g>
    </g>
   </g>
   <g id="matplotlib.axis_2">
    <g id="ytick_1">
     <g id="line2d_19">
      <path d="M 43.231021 271.804369 
L 354.976945 271.804369 
" clip-path="url(#p2b9a8c23b9)" style="fill: none; stroke: #dce3e7; stroke-opacity: 0.6; stroke-width: 0.6; stroke-linecap: square"/>
     </g>
     <g id="line2d_20">
      <defs>
       <path id="m63d0caf210" d="M 0 0 
L -3.5 0 
" style="stroke: #536b76; stroke-width: 0.8"/>
      </defs>
      <g>
       <use xlink:href="#m63d0caf210" x="43.231021" y="271.804369" style="fill: #536b76; stroke: #536b76; stroke-width: 0.8"/>
      </g>
     </g>
     <g id="text_11">
      <!-- 0.0 -->
      <g style="fill: #536b76" transform="translate(19.551021 276.172533) scale(0.12 -0.12)">
       <use xlink:href="#ArialUnicodeMS-13"/>
       <use xlink:href="#ArialUnicodeMS-11" transform="translate(55.609375 0)"/>
       <use xlink:href="#ArialUnicodeMS-13" transform="translate(83.390625 0)"/>
      </g>
     </g>
    </g>
    <g id="ytick_2">
     <g id="line2d_21">
      <path d="M 43.231021 222.905479 
L 354.976945 222.905479 
" clip-path="url(#p2b9a8c23b9)" style="fill: none; stroke: #dce3e7; stroke-opacity: 0.6; stroke-width: 0.6; stroke-linecap: square"/>
     </g>
     <g id="line2d_22">
      <g>
       <use xlink:href="#m63d0caf210" x="43.231021" y="222.905479" style="fill: #536b76; stroke: #536b76; stroke-width: 0.8"/>
      </g>
     </g>
     <g id="text_12">
      <!-- 0.2 -->
      <g style="fill: #536b76" transform="translate(19.551021 227.273643) scale(0.12 -0.12)">
       <use xlink:href="#ArialUnicodeMS-13"/>
       <use xlink:href="#ArialUnicodeMS-11" transform="translate(55.609375 0)"/>
       <use xlink:href="#ArialUnicodeMS-15" transform="translate(83.390625 0)"/>
      </g>
     </g>
    </g>
    <g id="ytick_3">
     <g id="line2d_23">
      <path d="M 43.231021 174.006589 
L 354.976945 174.006589 
" clip-path="url(#p2b9a8c23b9)" style="fill: none; stroke: #dce3e7; stroke-opacity: 0.6; stroke-width: 0.6; stroke-linecap: square"/>
     </g>
     <g id="line2d_24">
      <g>
       <use xlink:href="#m63d0caf210" x="43.231021" y="174.006589" style="fill: #536b76; stroke: #536b76; stroke-width: 0.8"/>
      </g>
     </g>
     <g id="text_13">
      <!-- 0.4 -->
      <g style="fill: #536b76" transform="translate(19.551021 178.374753) scale(0.12 -0.12)">
       <defs>
        <path id="ArialUnicodeMS-17" d="M 3263 1094 
L 2644 1094 
L 2644 0 
L 2081 0 
L 2081 1094 
L 97 1094 
L 97 1613 
L 2181 4581 
L 2644 4581 
L 2644 1613 
L 3263 1613 
L 3263 1094 
z
M 2081 1613 
L 2081 3681 
L 2069 3681 
L 647 1613 
L 2081 1613 
z
" transform="scale(0.015625)"/>
       </defs>
       <use xlink:href="#ArialUnicodeMS-13"/>
       <use xlink:href="#ArialUnicodeMS-11" transform="translate(55.609375 0)"/>
       <use xlink:href="#ArialUnicodeMS-17" transform="translate(83.390625 0)"/>
      </g>
     </g>
    </g>
    <g id="ytick_4">
     <g id="line2d_25">
      <path d="M 43.231021 125.107698 
L 354.976945 125.107698 
" clip-path="url(#p2b9a8c23b9)" style="fill: none; stroke: #dce3e7; stroke-opacity: 0.6; stroke-width: 0.6; stroke-linecap: square"/>
     </g>
     <g id="line2d_26">
      <g>
       <use xlink:href="#m63d0caf210" x="43.231021" y="125.107698" style="fill: #536b76; stroke: #536b76; stroke-width: 0.8"/>
      </g>
     </g>
     <g id="text_14">
      <!-- 0.6 -->
      <g style="fill: #536b76" transform="translate(19.551021 129.475862) scale(0.12 -0.12)">
       <defs>
        <path id="ArialUnicodeMS-19" d="M 838 2363 
Q 1225 2969 1941 2969 
Q 2503 2969 2897 2553 
Q 3291 2138 3291 1491 
Q 3291 838 2898 380 
Q 2506 -78 1856 -78 
Q 1197 -78 733 409 
Q 269 897 269 2144 
Q 269 3369 689 3986 
Q 1109 4603 1906 4603 
Q 2422 4603 2778 4315 
Q 3134 4028 3213 3463 
L 2650 3413 
Q 2497 4141 1875 4141 
Q 1444 4141 1134 3712 
Q 825 3284 825 2363 
L 838 2363 
z
M 1844 384 
Q 2231 384 2472 696 
Q 2713 1009 2713 1453 
Q 2713 1897 2472 2187 
Q 2231 2478 1825 2478 
Q 1453 2478 1184 2204 
Q 916 1931 916 1484 
Q 916 1028 1180 706 
Q 1444 384 1844 384 
z
" transform="scale(0.015625)"/>
       </defs>
       <use xlink:href="#ArialUnicodeMS-13"/>
       <use xlink:href="#ArialUnicodeMS-11" transform="translate(55.609375 0)"/>
       <use xlink:href="#ArialUnicodeMS-19" transform="translate(83.390625 0)"/>
      </g>
     </g>
    </g>
    <g id="ytick_5">
     <g id="line2d_27">
      <path d="M 43.231021 76.208808 
L 354.976945 76.208808 
" clip-path="url(#p2b9a8c23b9)" style="fill: none; stroke: #dce3e7; stroke-opacity: 0.6; stroke-width: 0.6; stroke-linecap: square"/>
     </g>
     <g id="line2d_28">
      <g>
       <use xlink:href="#m63d0caf210" x="43.231021" y="76.208808" style="fill: #536b76; stroke: #536b76; stroke-width: 0.8"/>
      </g>
     </g>
     <g id="text_15">
      <!-- 0.8 -->
      <g style="fill: #536b76" transform="translate(19.551021 80.576972) scale(0.12 -0.12)">
       <defs>
        <path id="ArialUnicodeMS-1b" d="M 2425 2478 
Q 3284 2203 3284 1306 
Q 3284 716 2862 319 
Q 2441 -78 1778 -78 
Q 1109 -78 689 322 
Q 269 722 269 1325 
Q 269 1759 505 2084 
Q 741 2409 1141 2478 
L 1141 2491 
Q 453 2703 453 3419 
Q 453 3925 815 4264 
Q 1178 4603 1766 4603 
Q 2363 4603 2730 4253 
Q 3097 3903 3097 3406 
Q 3097 2731 2425 2491 
L 2425 2478 
z
M 1778 2700 
Q 2094 2700 2308 2901 
Q 2522 3103 2522 3406 
Q 2522 3716 2305 3928 
Q 2088 4141 1772 4141 
Q 1450 4141 1240 3931 
Q 1031 3722 1031 3438 
Q 1031 3097 1247 2898 
Q 1463 2700 1778 2700 
z
M 1778 384 
Q 2175 384 2440 640 
Q 2706 897 2706 1306 
Q 2706 1716 2432 1978 
Q 2159 2241 1766 2241 
Q 1356 2241 1100 1970 
Q 844 1700 844 1319 
Q 844 922 1108 653 
Q 1372 384 1778 384 
z
" transform="scale(0.015625)"/>
       </defs>
       <use xlink:href="#ArialUnicodeMS-13"/>
       <use xlink:href="#ArialUnicodeMS-11" transform="translate(55.609375 0)"/>
       <use xlink:href="#ArialUnicodeMS-1b" transform="translate(83.390625 0)"/>
      </g>
     </g>
    </g>
    <g id="ytick_6">
     <g id="line2d_29">
      <path d="M 43.231021 27.309917 
L 354.976945 27.309917 
" clip-path="url(#p2b9a8c23b9)" style="fill: none; stroke: #dce3e7; stroke-opacity: 0.6; stroke-width: 0.6; stroke-linecap: square"/>
     </g>
     <g id="line2d_30">
      <g>
       <use xlink:href="#m63d0caf210" x="43.231021" y="27.309917" style="fill: #536b76; stroke: #536b76; stroke-width: 0.8"/>
      </g>
     </g>
     <g id="text_16">
      <!-- 1.0 -->
      <g style="fill: #536b76" transform="translate(19.551021 31.678081) scale(0.12 -0.12)">
       <use xlink:href="#ArialUnicodeMS-14"/>
       <use xlink:href="#ArialUnicodeMS-11" transform="translate(55.609375 0)"/>
       <use xlink:href="#ArialUnicodeMS-13" transform="translate(83.390625 0)"/>
      </g>
     </g>
    </g>
    <g id="text_17">
     <!-- 归一化状态 x / 1 -->
     <g style="fill: #192b35" transform="translate(13.03149 188.893789) rotate(-90) scale(0.12 -0.12)">
      <defs>
       <path id="ArialUnicodeMS-31e1" d="M 2450 5325 
Q 2463 4616 2463 3953 
Q 2463 2844 2439 2359 
Q 2416 1875 2173 1336 
Q 1931 797 1501 345 
Q 1072 -106 544 -397 
L 172 -72 
Q 1978 1047 1978 2572 
L 1978 5325 
L 2450 5325 
z
M 5509 -244 
L 5056 -244 
L 5056 184 
L 2022 184 
L 2022 653 
L 5056 653 
L 5056 2350 
L 2747 2350 
L 2747 2816 
L 5056 2816 
L 5056 4469 
L 2619 4469 
L 2619 4934 
L 5509 4934 
L 5509 -244 
z
M 1209 1088 
L 756 1088 
L 756 4763 
L 1209 4763 
L 1209 1088 
z
" transform="scale(0.015625)"/>
       <path id="ArialUnicodeMS-208f" d="M 5734 2278 
L 775 2278 
L 775 2809 
L 5734 2809 
L 5734 2278 
z
" transform="scale(0.015625)"/>
       <path id="ArialUnicodeMS-25a5" d="M 2431 5147 
Q 2322 4731 2081 4159 
L 1844 3603 
L 1844 -366 
L 1350 -366 
L 1350 2834 
Q 1006 2356 653 2075 
L 306 2444 
Q 1350 3319 2003 5350 
L 2431 5147 
z
M 6081 1325 
Q 5994 419 5786 114 
Q 5578 -191 5203 -191 
L 3872 -191 
Q 3534 -191 3339 -12 
Q 3144 166 3144 469 
L 3144 5178 
L 3628 5178 
L 3628 2853 
Q 4478 3413 5288 4488 
L 5709 4197 
Q 4800 2984 3628 2272 
L 3628 550 
Q 3628 288 3981 288 
L 5113 288 
Q 5553 288 5581 1503 
L 6081 1325 
z
" transform="scale(0.015625)"/>
       <path id="ArialUnicodeMS-4545" d="M 6016 -72 
L 5703 -434 
Q 4350 619 4103 2841 
Q 3834 572 2431 -397 
L 2113 6 
Q 3491 963 3653 2975 
L 2284 2975 
L 2284 3444 
L 3659 3444 
L 3659 5269 
L 4147 5269 
L 4147 3444 
L 5831 3444 
L 5838 2975 
L 4550 2975 
Q 4713 1059 6016 -72 
z
M 2016 -409 
L 1556 -409 
L 1556 1869 
L 603 1075 
L 281 1484 
Q 781 1797 1556 2472 
L 1556 5269 
L 2016 5269 
L 2016 -409 
z
M 5569 3859 
L 5153 3603 
Q 4897 4178 4331 4703 
L 4684 4972 
Q 5222 4453 5569 3859 
z
M 1350 3028 
L 909 2753 
Q 672 3738 300 4166 
L 678 4409 
Q 1128 3928 1350 3028 
z
" transform="scale(0.015625)"/>
       <path id="ArialUnicodeMS-3290" d="M 5978 2075 
L 5672 1650 
Q 3828 2550 3213 3969 
L 3116 3969 
Q 3003 3581 2841 3309 
Q 3538 2913 3891 2425 
L 3506 2131 
Q 3125 2700 2613 2963 
Q 1934 2106 563 1684 
L 231 2138 
Q 1431 2503 1923 2934 
Q 2416 3366 2613 3969 
L 391 3969 
L 391 4409 
L 2741 4409 
Q 2766 4503 2834 5166 
L 3291 5100 
Q 3281 4706 3213 4409 
L 5831 4409 
L 5831 3969 
L 3713 3969 
Q 4350 2806 5978 2075 
z
M 3847 1081 
L 3438 781 
Q 3213 1431 2663 1875 
L 3053 2156 
Q 3644 1650 3847 1081 
z
M 4838 738 
Q 4719 128 4594 -76 
Q 4469 -281 4244 -281 
L 2413 -281 
Q 2234 -281 2100 -159 
Q 1966 -38 1966 122 
L 1966 1894 
L 2450 1894 
L 2450 288 
Q 2450 253 2500 218 
Q 2550 184 2559 184 
L 4147 184 
Q 4209 184 4264 284 
Q 4319 384 4331 519 
L 4372 928 
L 4838 738 
z
M 1819 1388 
Q 1481 641 666 19 
L 281 372 
Q 1056 947 1459 1638 
L 1819 1388 
z
M 5997 359 
L 5644 -6 
Q 5234 706 4488 1228 
L 4819 1556 
Q 5531 1078 5997 359 
z
" transform="scale(0.015625)"/>
       <path id="ArialUnicodeMS-5b" d="M 3156 0 
L 2463 0 
L 1600 1313 
L 728 0 
L 44 0 
L 1259 1728 
L 141 3316 
L 838 3316 
Q 1519 2288 1581 2169 
L 2394 3316 
L 3066 3316 
L 1919 1759 
L 3156 0 
z
" transform="scale(0.015625)"/>
      </defs>
      <use xlink:href="#ArialUnicodeMS-31e1"/>
      <use xlink:href="#ArialUnicodeMS-208f" transform="translate(100 0)"/>
      <use xlink:href="#ArialUnicodeMS-25a5" transform="translate(200 0)"/>
      <use xlink:href="#ArialUnicodeMS-4545" transform="translate(300 0)"/>
      <use xlink:href="#ArialUnicodeMS-3290" transform="translate(400 0)"/>
      <use xlink:href="#ArialUnicodeMS-3" transform="translate(500 0)"/>
      <use xlink:href="#ArialUnicodeMS-5b" transform="translate(527.78125 0)"/>
      <use xlink:href="#ArialUnicodeMS-3" transform="translate(577.78125 0)"/>
      <use xlink:href="#ArialUnicodeMS-12" transform="translate(605.5625 0)"/>
      <use xlink:href="#ArialUnicodeMS-3" transform="translate(633.34375 0)"/>
      <use xlink:href="#ArialUnicodeMS-14" transform="translate(661.125 0)"/>
     </g>
    </g>
   </g>
   <g id="line2d_31">
    <path d="M 43.231021 27.309917 
L 47.90721 41.548166 
L 52.583399 54.957243 
L 57.259588 67.585437 
L 61.935777 79.478222 
L 66.611966 90.678424 
L 71.288154 101.226378 
L 75.964343 111.160067 
L 80.640532 120.515263 
L 85.316721 129.325655 
L 89.99291 137.622969 
L 94.669099 145.437086 
L 99.345288 152.796143 
L 104.021476 159.726643 
L 108.697665 166.253541 
L 113.373854 172.400343 
L 118.050043 178.189183 
L 122.726232 183.640907 
L 127.402421 188.775147 
L 132.07861 193.610393 
L 136.754798 198.164056 
L 142.210352 203.142596 
L 147.665906 207.784556 
L 153.121459 212.112691 
L 158.577013 216.148217 
L 164.032567 219.910917 
L 169.48812 223.419235 
L 174.943674 226.690369 
L 181.178593 230.158899 
L 187.413511 233.360755 
L 193.64843 236.31644 
L 199.883348 239.044882 
L 206.897631 241.864452 
L 213.911915 244.441345 
L 220.926198 246.796448 
L 228.719846 249.176267 
L 236.513494 251.329615 
L 245.086507 253.462386 
L 253.65952 255.372994 
L 263.011898 257.231047 
L 273.14364 259.007602 
L 284.054748 260.679394 
L 295.74522 262.229014 
L 308.215057 263.64479 
L 321.464258 264.920419 
L 336.27219 266.111624 
L 352.638851 267.18992 
L 354.976945 267.326297 
L 354.976945 267.326297 
" clip-path="url(#p2b9a8c23b9)" style="fill: none; stroke-dasharray: 2,3.3; stroke-dashoffset: 0; stroke: #6e7b86; stroke-width: 2"/>
   </g>
   <g id="line2d_32">
    <path d="M 43.231021 27.309917 
L 82.199262 149.557143 
L 121.167502 210.680756 
L 160.135743 241.242563 
L 199.103983 256.523466 
L 238.072224 264.163918 
L 277.040464 267.984144 
L 316.008705 269.894256 
L 354.976945 270.849313 
" clip-path="url(#p2b9a8c23b9)" style="fill: none; stroke: #2563a6; stroke-width: 2; stroke-linecap: square"/>
    <defs>
     <path id="ma08c4f5406" d="M 0 2.5 
C 0.663008 2.5 1.29895 2.236584 1.767767 1.767767 
C 2.236584 1.29895 2.5 0.663008 2.5 0 
C 2.5 -0.663008 2.236584 -1.29895 1.767767 -1.767767 
C 1.29895 -2.236584 0.663008 -2.5 0 -2.5 
C -0.663008 -2.5 -1.29895 -2.236584 -1.767767 -1.767767 
C -2.236584 -1.29895 -2.5 -0.663008 -2.5 0 
C -2.5 0.663008 -2.236584 1.29895 -1.767767 1.767767 
C -1.29895 2.236584 -0.663008 2.5 0 2.5 
z
" style="stroke: #2563a6"/>
    </defs>
    <g clip-path="url(#p2b9a8c23b9)">
     <use xlink:href="#ma08c4f5406" x="43.231021" y="27.309917" style="fill: #2563a6; stroke: #2563a6"/>
     <use xlink:href="#ma08c4f5406" x="82.199262" y="149.557143" style="fill: #2563a6; stroke: #2563a6"/>
     <use xlink:href="#ma08c4f5406" x="121.167502" y="210.680756" style="fill: #2563a6; stroke: #2563a6"/>
     <use xlink:href="#ma08c4f5406" x="160.135743" y="241.242563" style="fill: #2563a6; stroke: #2563a6"/>
     <use xlink:href="#ma08c4f5406" x="199.103983" y="256.523466" style="fill: #2563a6; stroke: #2563a6"/>
     <use xlink:href="#ma08c4f5406" x="238.072224" y="264.163918" style="fill: #2563a6; stroke: #2563a6"/>
     <use xlink:href="#ma08c4f5406" x="277.040464" y="267.984144" style="fill: #2563a6; stroke: #2563a6"/>
     <use xlink:href="#ma08c4f5406" x="316.008705" y="269.894256" style="fill: #2563a6; stroke: #2563a6"/>
     <use xlink:href="#ma08c4f5406" x="354.976945" y="270.849313" style="fill: #2563a6; stroke: #2563a6"/>
    </g>
   </g>
   <g id="line2d_33">
    <path d="M 43.231021 27.309917 
L 82.199262 118.995337 
L 121.167502 176.298724 
L 160.135743 212.113341 
L 199.103983 234.497477 
L 238.072224 248.487561 
L 277.040464 257.231364 
L 316.008705 262.696241 
L 354.976945 266.111789 
" clip-path="url(#p2b9a8c23b9)" style="fill: none; stroke-dasharray: 7.4,3.2; stroke-dashoffset: 0; stroke: #bc5930; stroke-width: 2"/>
    <defs>
     <path id="mc893b52729" d="M -2.5 2.5 
L 2.5 2.5 
L 2.5 -2.5 
L -2.5 -2.5 
z
" style="stroke: #bc5930; stroke-linejoin: miter"/>
    </defs>
    <g clip-path="url(#p2b9a8c23b9)">
     <use xlink:href="#mc893b52729" x="43.231021" y="27.309917" style="fill: #bc5930; stroke: #bc5930; stroke-linejoin: miter"/>
     <use xlink:href="#mc893b52729" x="82.199262" y="118.995337" style="fill: #bc5930; stroke: #bc5930; stroke-linejoin: miter"/>
     <use xlink:href="#mc893b52729" x="121.167502" y="176.298724" style="fill: #bc5930; stroke: #bc5930; stroke-linejoin: miter"/>
     <use xlink:href="#mc893b52729" x="160.135743" y="212.113341" style="fill: #bc5930; stroke: #bc5930; stroke-linejoin: miter"/>
     <use xlink:href="#mc893b52729" x="199.103983" y="234.497477" style="fill: #bc5930; stroke: #bc5930; stroke-linejoin: miter"/>
     <use xlink:href="#mc893b52729" x="238.072224" y="248.487561" style="fill: #bc5930; stroke: #bc5930; stroke-linejoin: miter"/>
     <use xlink:href="#mc893b52729" x="277.040464" y="257.231364" style="fill: #bc5930; stroke: #bc5930; stroke-linejoin: miter"/>
     <use xlink:href="#mc893b52729" x="316.008705" y="262.696241" style="fill: #bc5930; stroke: #bc5930; stroke-linejoin: miter"/>
     <use xlink:href="#mc893b52729" x="354.976945" y="266.111789" style="fill: #bc5930; stroke: #bc5930; stroke-linejoin: miter"/>
    </g>
   </g>
   <g id="line2d_34">
    <path d="M 43.231021 27.309917 
L 82.199262 123.452267 
L 121.167502 181.788641 
L 160.135743 217.185451 
L 199.103983 238.663203 
L 238.072224 251.695276 
L 277.040464 259.602758 
L 316.008705 264.400787 
L 354.976945 267.312092 
" clip-path="url(#p2b9a8c23b9)" style="fill: none; stroke-dasharray: 12.8,3.2,2,3.2; stroke-dashoffset: 0; stroke: #775da6; stroke-width: 2"/>
    <defs>
     <path id="m9f048bad73" d="M 0 -2.5 
L -2.5 2.5 
L 2.5 2.5 
z
" style="stroke: #775da6; stroke-linejoin: miter"/>
    </defs>
    <g clip-path="url(#p2b9a8c23b9)">
     <use xlink:href="#m9f048bad73" x="43.231021" y="27.309917" style="fill: #775da6; stroke: #775da6; stroke-linejoin: miter"/>
     <use xlink:href="#m9f048bad73" x="82.199262" y="123.452267" style="fill: #775da6; stroke: #775da6; stroke-linejoin: miter"/>
     <use xlink:href="#m9f048bad73" x="121.167502" y="181.788641" style="fill: #775da6; stroke: #775da6; stroke-linejoin: miter"/>
     <use xlink:href="#m9f048bad73" x="160.135743" y="217.185451" style="fill: #775da6; stroke: #775da6; stroke-linejoin: miter"/>
     <use xlink:href="#m9f048bad73" x="199.103983" y="238.663203" style="fill: #775da6; stroke: #775da6; stroke-linejoin: miter"/>
     <use xlink:href="#m9f048bad73" x="238.072224" y="251.695276" style="fill: #775da6; stroke: #775da6; stroke-linejoin: miter"/>
     <use xlink:href="#m9f048bad73" x="277.040464" y="259.602758" style="fill: #775da6; stroke: #775da6; stroke-linejoin: miter"/>
     <use xlink:href="#m9f048bad73" x="316.008705" y="264.400787" style="fill: #775da6; stroke: #775da6; stroke-linejoin: miter"/>
     <use xlink:href="#m9f048bad73" x="354.976945" y="267.312092" style="fill: #775da6; stroke: #775da6; stroke-linejoin: miter"/>
    </g>
   </g>
   <g id="patch_3">
    <path d="M 43.231021 271.804369 
L 43.231021 19.975084 
" style="fill: none; stroke: #6e7b86; stroke-width: 0.8; stroke-linejoin: miter; stroke-linecap: square"/>
   </g>
   <g id="patch_4">
    <path d="M 43.231021 271.804369 
L 354.976945 271.804369 
" style="fill: none; stroke: #6e7b86; stroke-width: 0.8; stroke-linejoin: miter; stroke-linecap: square"/>
   </g>
   <g id="text_18">
    <!-- (a) 同一步长 h = 0.25 s -->
    <g style="fill: #192b35" transform="translate(132.821249 13.975084) scale(0.13 -0.13)">
     <defs>
      <path id="ArialUnicodeMS-b" d="M 1900 -1344 
L 1497 -1344 
Q 978 -681 681 103 
Q 384 888 384 1656 
Q 384 2528 700 3275 
Q 1016 4022 1497 4659 
L 1900 4659 
Q 1344 3747 1155 3059 
Q 966 2372 966 1663 
Q 966 153 1900 -1344 
z
" transform="scale(0.015625)"/>
      <path id="ArialUnicodeMS-44" d="M 3303 0 
L 2713 0 
Q 2631 156 2597 409 
Q 2031 -78 1375 -78 
Q 850 -78 547 184 
Q 244 447 244 878 
Q 244 1291 536 1558 
Q 828 1825 1550 1913 
L 2075 1991 
Q 2369 2038 2559 2106 
Q 2559 2359 2543 2464 
Q 2528 2569 2451 2681 
Q 2375 2794 2206 2862 
Q 2038 2931 1753 2931 
Q 1391 2931 1180 2797 
Q 969 2663 891 2297 
L 341 2369 
Q 431 2878 806 3134 
Q 1181 3391 1838 3391 
Q 2434 3391 2714 3214 
Q 2994 3038 3058 2788 
Q 3122 2538 3122 2144 
L 3122 1388 
Q 3122 697 3148 461 
Q 3175 225 3303 0 
z
M 2559 1459 
L 2559 1663 
Q 2119 1516 1481 1430 
Q 844 1344 844 891 
Q 844 663 1016 514 
Q 1188 366 1509 366 
Q 1925 366 2242 614 
Q 2559 863 2559 1459 
z
" transform="scale(0.015625)"/>
      <path id="ArialUnicodeMS-c" d="M 634 4659 
Q 1153 3997 1450 3212 
Q 1747 2428 1747 1656 
Q 1747 788 1431 41 
Q 1116 -706 634 -1344 
L 231 -1344 
Q 788 -431 977 255 
Q 1166 941 1166 1650 
Q 1166 3163 231 4659 
L 634 4659 
z
" transform="scale(0.015625)"/>
      <path id="ArialUnicodeMS-269b" d="M 5644 441 
Q 5644 13 5467 -157 
Q 5291 -328 4663 -328 
Q 4519 -328 4347 -319 
L 4172 206 
Q 4822 206 4981 250 
Q 5141 294 5141 544 
L 5141 4569 
L 1259 4569 
L 1259 -481 
L 756 -481 
L 756 5038 
L 5644 5038 
L 5644 441 
z
M 4941 3406 
L 1569 3406 
L 1569 3872 
L 4941 3872 
L 4941 3406 
z
M 4422 781 
L 1984 781 
L 1984 2700 
L 4422 2700 
L 4422 781 
z
M 3938 1247 
L 3938 2234 
L 2472 2234 
L 2472 1247 
L 3938 1247 
z
" transform="scale(0.015625)"/>
      <path id="ArialUnicodeMS-3df4" d="M 5966 2791 
L 3681 2791 
L 3681 1331 
Q 3681 1159 3542 1004 
Q 3403 850 3225 850 
L 2791 850 
L 2613 1338 
L 3059 1325 
Q 3175 1325 3175 1447 
L 3175 2791 
L 628 2791 
L 628 3256 
L 1544 3256 
L 1544 4756 
L 2047 4756 
L 2047 3256 
L 3109 3256 
L 3109 5344 
L 3616 5344 
L 3616 4525 
L 5644 4525 
L 5644 4056 
L 3616 4056 
L 3616 3256 
L 5966 3256 
L 5966 2791 
z
M 5581 2284 
Q 5144 1372 4631 919 
Q 4119 466 3164 123 
Q 2209 -219 544 -384 
L 366 109 
Q 2163 278 3063 614 
Q 3963 950 4381 1384 
Q 4800 1819 5147 2572 
L 5581 2284 
z
M 2638 2241 
Q 1872 1294 806 806 
L 447 1203 
Q 1469 1631 2241 2534 
L 2638 2241 
z
" transform="scale(0.015625)"/>
      <path id="ArialUnicodeMS-680e" d="M 6125 306 
L 5797 -122 
Q 3488 722 2981 2413 
L 2259 2413 
L 2259 319 
L 3597 844 
L 3597 366 
L 1984 -347 
L 1697 84 
Q 1772 172 1772 331 
L 1772 2413 
L 384 2413 
L 384 2881 
L 1772 2881 
L 1772 5269 
L 2259 5269 
L 2259 3553 
Q 3700 4050 4738 4916 
L 5069 4550 
Q 3859 3588 2259 3084 
L 2259 2881 
L 5978 2881 
L 5978 2413 
L 3469 2413 
Q 3947 959 6125 306 
z
" transform="scale(0.015625)"/>
      <path id="ArialUnicodeMS-4b" d="M 3138 0 
L 2572 0 
L 2572 2094 
Q 2572 2500 2397 2703 
Q 2222 2906 1875 2906 
Q 1531 2906 1261 2667 
Q 991 2428 991 1813 
L 991 0 
L 428 0 
L 428 4581 
L 991 4581 
L 991 2938 
Q 1391 3391 1991 3391 
Q 2313 3391 2606 3259 
Q 2900 3128 3019 2856 
Q 3138 2584 3138 2100 
L 3138 0 
z
" transform="scale(0.015625)"/>
      <path id="ArialUnicodeMS-20" d="M 3384 2694 
L 353 2694 
L 353 3219 
L 3384 3219 
L 3384 2694 
z
M 3384 1300 
L 353 1300 
L 353 1825 
L 3384 1825 
L 3384 1300 
z
" transform="scale(0.015625)"/>
     </defs>
     <use xlink:href="#ArialUnicodeMS-b"/>
     <use xlink:href="#ArialUnicodeMS-44" transform="translate(33.296875 0)"/>
     <use xlink:href="#ArialUnicodeMS-c" transform="translate(88.90625 0)"/>
     <use xlink:href="#ArialUnicodeMS-3" transform="translate(122.203125 0)"/>
     <use xlink:href="#ArialUnicodeMS-269b" transform="translate(149.984375 0)"/>
     <use xlink:href="#ArialUnicodeMS-208f" transform="translate(249.984375 0)"/>
     <use xlink:href="#ArialUnicodeMS-3df4" transform="translate(349.984375 0)"/>
     <use xlink:href="#ArialUnicodeMS-680e" transform="translate(449.984375 0)"/>
     <use xlink:href="#ArialUnicodeMS-3" transform="translate(549.984375 0)"/>
     <use xlink:href="#ArialUnicodeMS-4b" transform="translate(577.765625 0)"/>
     <use xlink:href="#ArialUnicodeMS-3" transform="translate(633.375 0)"/>
     <use xlink:href="#ArialUnicodeMS-20" transform="translate(661.15625 0)"/>
     <use xlink:href="#ArialUnicodeMS-3" transform="translate(719.5625 0)"/>
     <use xlink:href="#ArialUnicodeMS-13" transform="translate(747.34375 0)"/>
     <use xlink:href="#ArialUnicodeMS-11" transform="translate(802.953125 0)"/>
     <use xlink:href="#ArialUnicodeMS-15" transform="translate(830.734375 0)"/>
     <use xlink:href="#ArialUnicodeMS-18" transform="translate(886.34375 0)"/>
     <use xlink:href="#ArialUnicodeMS-3" transform="translate(941.953125 0)"/>
     <use xlink:href="#ArialUnicodeMS-56" transform="translate(969.734375 0)"/>
    </g>
   </g>
   <g id="legend_1">
    <g id="line2d_35">
     <path d="M 274.576945 36.583834 
L 286.576945 36.583834 
L 298.576945 36.583834 
" style="fill: none; stroke-dasharray: 2,3.3; stroke-dashoffset: 0; stroke: #6e7b86; stroke-width: 2"/>
    </g>
    <g id="text_19">
     <!-- 解析解 -->
     <g style="fill: #192b35" transform="translate(308.176945 40.783834) scale(0.12 -0.12)">
      <defs>
       <path id="ArialUnicodeMS-5c72" d="M 5797 5044 
Q 5784 4794 5675 4201 
Q 5566 3609 5436 3459 
Q 5306 3309 5069 3309 
Q 4869 3309 4575 3372 
L 4422 3903 
Q 4838 3756 4953 3756 
Q 5053 3756 5106 3878 
Q 5159 4000 5253 4581 
L 4538 4581 
Q 4375 3463 3413 3053 
L 3200 3334 
L 3200 225 
Q 3200 -56 3033 -187 
Q 2866 -319 2688 -319 
L 2381 -319 
L 2222 141 
L 2559 141 
Q 2713 113 2713 313 
L 2713 1081 
L 1369 1081 
Q 1234 69 697 -428 
L 331 -97 
Q 631 250 761 614 
Q 891 978 891 1234 
L 891 3238 
L 738 3041 
L 347 3359 
Q 1131 4109 1381 5338 
L 1838 5178 
Q 1747 4803 1728 4769 
L 2859 4769 
Q 2722 4203 2528 3750 
L 3200 3750 
L 3200 3456 
Q 4013 3838 4078 4581 
L 3372 4581 
L 3372 5044 
L 5797 5044 
z
M 2266 4306 
L 1556 4306 
Q 1472 4050 1294 3750 
L 2009 3750 
Q 2178 4034 2266 4306 
z
M 2713 2663 
L 2713 3291 
L 2284 3291 
L 2284 2663 
L 2713 2663 
z
M 1797 2663 
L 1797 3291 
L 1375 3291 
L 1375 2663 
L 1797 2663 
z
M 2713 1544 
L 2713 2203 
L 2284 2203 
L 2284 1544 
L 2713 1544 
z
M 1797 1544 
L 1797 2203 
L 1375 2203 
L 1375 1544 
L 1797 1544 
z
M 6075 991 
L 4997 991 
L 4997 -409 
L 4513 -409 
L 4513 991 
L 3341 991 
L 3341 1453 
L 4513 1453 
L 4513 2131 
L 4013 2131 
Q 3931 1838 3706 1538 
L 3272 1825 
Q 3728 2366 3706 3150 
L 4184 3047 
Q 4178 2788 4141 2591 
L 4513 2591 
L 4513 3231 
L 4997 3231 
L 4997 2591 
L 5741 2591 
L 5741 2131 
L 4997 2131 
L 4997 1453 
L 6075 1453 
L 6075 991 
z
" transform="scale(0.015625)"/>
       <path id="ArialUnicodeMS-3a1f" d="M 6028 2853 
L 5013 2853 
L 5013 -409 
L 4525 -409 
L 4525 2853 
L 3681 2853 
L 3681 1997 
Q 3681 750 2759 -434 
L 2309 -134 
Q 3194 888 3194 2188 
L 3194 4659 
Q 4681 4850 5466 5319 
L 5813 4922 
Q 4825 4394 3681 4244 
L 3681 3322 
L 6028 3322 
L 6028 2853 
z
M 3041 1894 
L 2591 1656 
Q 2219 2434 2041 2591 
L 2041 -428 
L 1556 -428 
L 1556 2322 
Q 1334 1825 672 1075 
L 263 1375 
Q 1344 2497 1538 3591 
L 641 3591 
L 641 4056 
L 1556 4056 
L 1556 5275 
L 2041 5275 
L 2041 4056 
L 2950 4056 
L 2950 3591 
L 2041 3591 
L 2041 3028 
L 2203 3116 
Q 2628 2769 3041 1894 
z
" transform="scale(0.015625)"/>
      </defs>
      <use xlink:href="#ArialUnicodeMS-5c72"/>
      <use xlink:href="#ArialUnicodeMS-3a1f" transform="translate(100 0)"/>
      <use xlink:href="#ArialUnicodeMS-5c72" transform="translate(200 0)"/>
     </g>
    </g>
    <g id="line2d_36">
     <path d="M 274.576945 53.839693 
L 286.576945 53.839693 
L 298.576945 53.839693 
" style="fill: none; stroke: #2563a6; stroke-width: 2; stroke-linecap: square"/>
     <g>
      <use xlink:href="#ma08c4f5406" x="286.576945" y="53.839693" style="fill: #2563a6; stroke: #2563a6"/>
     </g>
    </g>
    <g id="text_20">
     <!-- Euler -->
     <g style="fill: #192b35" transform="translate(308.176945 58.039693) scale(0.12 -0.12)">
      <defs>
       <path id="ArialUnicodeMS-28" d="M 3928 0 
L 506 0 
L 506 4581 
L 3822 4581 
L 3822 4038 
L 1113 4038 
L 1113 2638 
L 3647 2638 
L 3647 2094 
L 1113 2094 
L 1113 544 
L 3928 544 
L 3928 0 
z
" transform="scale(0.015625)"/>
       <path id="ArialUnicodeMS-58" d="M 3116 0 
L 2613 0 
L 2613 488 
L 2597 488 
Q 2216 -78 1556 -78 
Q 1209 -78 914 83 
Q 619 244 520 526 
Q 422 809 422 1259 
L 422 3316 
L 984 3316 
L 984 1478 
Q 984 1038 1026 847 
Q 1069 656 1247 532 
Q 1425 409 1672 409 
Q 1991 409 2272 629 
Q 2553 850 2553 1544 
L 2553 3316 
L 3116 3316 
L 3116 0 
z
" transform="scale(0.015625)"/>
       <path id="ArialUnicodeMS-4f" d="M 991 0 
L 428 0 
L 428 4581 
L 991 4581 
L 991 0 
z
" transform="scale(0.015625)"/>
       <path id="ArialUnicodeMS-48" d="M 3309 1516 
L 825 1516 
Q 859 966 1139 675 
Q 1419 384 1838 384 
Q 2159 384 2378 554 
Q 2597 725 2713 1069 
L 3291 997 
Q 3150 478 2775 200 
Q 2400 -78 1838 -78 
Q 1091 -78 670 380 
Q 250 838 250 1631 
Q 250 2416 658 2903 
Q 1066 3391 1806 3391 
Q 2169 3391 2505 3231 
Q 2841 3072 3075 2689 
Q 3309 2306 3309 1516 
z
M 2731 1978 
Q 2697 2484 2417 2707 
Q 2138 2931 1806 2931 
Q 1409 2931 1153 2665 
Q 897 2400 856 1978 
L 2731 1978 
z
" transform="scale(0.015625)"/>
       <path id="ArialUnicodeMS-55" d="M 2216 3213 
L 2022 2694 
Q 1813 2816 1613 2816 
Q 1297 2816 1134 2533 
Q 972 2250 972 1741 
L 972 0 
L 409 0 
L 409 3316 
L 922 3316 
L 922 2816 
L 934 2816 
Q 1203 3391 1638 3391 
Q 1925 3391 2216 3213 
z
" transform="scale(0.015625)"/>
      </defs>
      <use xlink:href="#ArialUnicodeMS-28"/>
      <use xlink:href="#ArialUnicodeMS-58" transform="translate(66.703125 0)"/>
      <use xlink:href="#ArialUnicodeMS-4f" transform="translate(122.3125 0)"/>
      <use xlink:href="#ArialUnicodeMS-48" transform="translate(144.53125 0)"/>
      <use xlink:href="#ArialUnicodeMS-55" transform="translate(200.140625 0)"/>
     </g>
    </g>
    <g id="line2d_37">
     <path d="M 274.576945 71.095552 
L 286.576945 71.095552 
L 298.576945 71.095552 
" style="fill: none; stroke-dasharray: 7.4,3.2; stroke-dashoffset: 0; stroke: #bc5930; stroke-width: 2"/>
     <g>
      <use xlink:href="#mc893b52729" x="286.576945" y="71.095552" style="fill: #bc5930; stroke: #bc5930; stroke-linejoin: miter"/>
     </g>
    </g>
    <g id="text_21">
     <!-- Heun -->
     <g style="fill: #192b35" transform="translate(308.176945 75.295552) scale(0.12 -0.12)">
      <defs>
       <path id="ArialUnicodeMS-2b" d="M 4109 0 
L 3500 0 
L 3500 2156 
L 1119 2156 
L 1119 0 
L 513 0 
L 513 4581 
L 1119 4581 
L 1119 2700 
L 3500 2700 
L 3500 4581 
L 4109 4581 
L 4109 0 
z
" transform="scale(0.015625)"/>
       <path id="ArialUnicodeMS-51" d="M 3138 0 
L 2572 0 
L 2572 2016 
Q 2572 2525 2389 2715 
Q 2206 2906 1881 2906 
Q 1631 2906 1407 2784 
Q 1184 2663 1090 2441 
Q 997 2219 997 1813 
L 997 0 
L 434 0 
L 434 3316 
L 941 3316 
L 941 2847 
L 953 2847 
Q 1131 3119 1392 3255 
Q 1653 3391 1997 3391 
Q 2259 3391 2515 3297 
Q 2772 3203 2917 3015 
Q 3063 2828 3100 2615 
Q 3138 2403 3138 2041 
L 3138 0 
z
" transform="scale(0.015625)"/>
      </defs>
      <use xlink:href="#ArialUnicodeMS-2b"/>
      <use xlink:href="#ArialUnicodeMS-48" transform="translate(72.21875 0)"/>
      <use xlink:href="#ArialUnicodeMS-58" transform="translate(127.828125 0)"/>
      <use xlink:href="#ArialUnicodeMS-51" transform="translate(183.4375 0)"/>
     </g>
    </g>
    <g id="line2d_38">
     <path d="M 274.576945 88.351412 
L 286.576945 88.351412 
L 298.576945 88.351412 
" style="fill: none; stroke-dasharray: 12.8,3.2,2,3.2; stroke-dashoffset: 0; stroke: #775da6; stroke-width: 2"/>
     <g>
      <use xlink:href="#m9f048bad73" x="286.576945" y="88.351412" style="fill: #775da6; stroke: #775da6; stroke-linejoin: miter"/>
     </g>
    </g>
    <g id="text_22">
     <!-- RK4 -->
     <g style="fill: #192b35" transform="translate(308.176945 92.551412) scale(0.12 -0.12)">
      <defs>
       <path id="ArialUnicodeMS-35" d="M 4550 0 
L 3788 0 
Q 3103 1081 2937 1328 
Q 2772 1575 2589 1751 
Q 2406 1928 2245 1975 
Q 2084 2022 1819 2022 
L 1119 2022 
L 1119 0 
L 513 0 
L 513 4581 
L 2541 4581 
Q 2956 4581 3237 4528 
Q 3519 4475 3731 4304 
Q 3944 4134 4058 3875 
Q 4172 3616 4172 3328 
Q 4172 2809 3844 2493 
Q 3516 2178 2888 2094 
L 2888 2081 
Q 3347 1878 3750 1247 
L 4550 0 
z
M 1119 2566 
L 2419 2566 
Q 2813 2566 3042 2633 
Q 3272 2700 3409 2894 
Q 3547 3088 3547 3328 
Q 3547 3641 3319 3859 
Q 3091 4078 2566 4078 
L 1119 4078 
L 1119 2566 
z
" transform="scale(0.015625)"/>
       <path id="ArialUnicodeMS-2e" d="M 4256 0 
L 3456 0 
L 1831 2316 
L 1075 1588 
L 1075 0 
L 469 0 
L 469 4581 
L 1075 4581 
L 1075 2309 
L 3353 4581 
L 4172 4581 
L 2253 2725 
L 4256 0 
z
" transform="scale(0.015625)"/>
      </defs>
      <use xlink:href="#ArialUnicodeMS-35"/>
      <use xlink:href="#ArialUnicodeMS-2e" transform="translate(72.21875 0)"/>
      <use xlink:href="#ArialUnicodeMS-17" transform="translate(138.921875 0)"/>
     </g>
    </g>
   </g>
  </g>
  <g id="axes_2">
   <g id="patch_5">
    <path d="M 419.653836 271.804369 
L 731.39976 271.804369 
L 731.39976 19.975084 
L 419.653836 19.975084 
z
" style="fill: #ffffff"/>
   </g>
   <g id="matplotlib.axis_3">
    <g id="xtick_10">
     <g id="line2d_39">
      <path d="M 433.824105 271.804369 
L 433.824105 19.975084 
" clip-path="url(#p9334350edc)" style="fill: none; stroke: #dce3e7; stroke-opacity: 0.6; stroke-width: 0.6; stroke-linecap: square"/>
     </g>
     <g id="line2d_40">
      <g>
       <use xlink:href="#mdb611dd71b" x="433.824105" y="271.804369" style="fill: #536b76; stroke: #536b76; stroke-width: 0.8"/>
      </g>
     </g>
     <g id="text_23">
      <!-- 0.03125 -->
      <g style="fill: #536b76" transform="translate(412.137855 287.540697) scale(0.12 -0.12)">
       <defs>
        <path id="ArialUnicodeMS-16" d="M 2425 2478 
Q 2850 2397 3067 2067 
Q 3284 1738 3284 1350 
Q 3284 725 2829 323 
Q 2375 -78 1741 -78 
Q 1134 -78 740 275 
Q 347 628 281 1209 
L 844 1288 
Q 928 834 1151 609 
Q 1375 384 1741 384 
Q 2134 384 2407 661 
Q 2681 938 2681 1338 
Q 2681 1722 2432 1975 
Q 2184 2228 1784 2228 
Q 1622 2228 1388 2169 
L 1453 2663 
Q 1678 2663 1809 2684 
Q 1941 2706 2103 2790 
Q 2266 2875 2372 3033 
Q 2478 3191 2478 3425 
Q 2478 3766 2251 3953 
Q 2025 4141 1728 4141 
Q 1388 4141 1173 3925 
Q 959 3709 903 3309 
L 341 3413 
Q 450 4009 823 4306 
Q 1197 4603 1716 4603 
Q 2288 4603 2670 4258 
Q 3053 3913 3053 3413 
Q 3053 2772 2425 2491 
L 2425 2478 
z
" transform="scale(0.015625)"/>
       </defs>
       <use xlink:href="#ArialUnicodeMS-13"/>
       <use xlink:href="#ArialUnicodeMS-11" transform="translate(55.609375 0)"/>
       <use xlink:href="#ArialUnicodeMS-13" transform="translate(83.390625 0)"/>
       <use xlink:href="#ArialUnicodeMS-16" transform="translate(139 0)"/>
       <use xlink:href="#ArialUnicodeMS-14" transform="translate(194.609375 0)"/>
       <use xlink:href="#ArialUnicodeMS-15" transform="translate(250.21875 0)"/>
       <use xlink:href="#ArialUnicodeMS-18" transform="translate(305.828125 0)"/>
      </g>
     </g>
    </g>
    <g id="xtick_11">
     <g id="line2d_41">
      <path d="M 504.675452 271.804369 
L 504.675452 19.975084 
" clip-path="url(#p9334350edc)" style="fill: none; stroke: #dce3e7; stroke-opacity: 0.6; stroke-width: 0.6; stroke-linecap: square"/>
     </g>
     <g id="line2d_42">
      <g>
       <use xlink:href="#mdb611dd71b" x="504.675452" y="271.804369" style="fill: #536b76; stroke: #536b76; stroke-width: 0.8"/>
      </g>
     </g>
     <g id="text_24">
      <!-- 0.0625 -->
      <g style="fill: #536b76" transform="translate(486.325764 287.540697) scale(0.12 -0.12)">
       <use xlink:href="#ArialUnicodeMS-13"/>
       <use xlink:href="#ArialUnicodeMS-11" transform="translate(55.609375 0)"/>
       <use xlink:href="#ArialUnicodeMS-13" transform="translate(83.390625 0)"/>
       <use xlink:href="#ArialUnicodeMS-19" transform="translate(139 0)"/>
       <use xlink:href="#ArialUnicodeMS-15" transform="translate(194.609375 0)"/>
       <use xlink:href="#ArialUnicodeMS-18" transform="translate(250.21875 0)"/>
      </g>
     </g>
    </g>
    <g id="xtick_12">
     <g id="line2d_43">
      <path d="M 575.526798 271.804369 
L 575.526798 19.975084 
" clip-path="url(#p9334350edc)" style="fill: none; stroke: #dce3e7; stroke-opacity: 0.6; stroke-width: 0.6; stroke-linecap: square"/>
     </g>
     <g id="line2d_44">
      <g>
       <use xlink:href="#mdb611dd71b" x="575.526798" y="271.804369" style="fill: #536b76; stroke: #536b76; stroke-width: 0.8"/>
      </g>
     </g>
     <g id="text_25">
      <!-- 0.125 -->
      <g style="fill: #536b76" transform="translate(560.513673 287.540697) scale(0.12 -0.12)">
       <use xlink:href="#ArialUnicodeMS-13"/>
       <use xlink:href="#ArialUnicodeMS-11" transform="translate(55.609375 0)"/>
       <use xlink:href="#ArialUnicodeMS-14" transform="translate(83.390625 0)"/>
       <use xlink:href="#ArialUnicodeMS-15" transform="translate(139 0)"/>
       <use xlink:href="#ArialUnicodeMS-18" transform="translate(194.609375 0)"/>
      </g>
     </g>
    </g>
    <g id="xtick_13">
     <g id="line2d_45">
      <path d="M 646.378144 271.804369 
L 646.378144 19.975084 
" clip-path="url(#p9334350edc)" style="fill: none; stroke: #dce3e7; stroke-opacity: 0.6; stroke-width: 0.6; stroke-linecap: square"/>
     </g>
     <g id="line2d_46">
      <g>
       <use xlink:href="#mdb611dd71b" x="646.378144" y="271.804369" style="fill: #536b76; stroke: #536b76; stroke-width: 0.8"/>
      </g>
     </g>
     <g id="text_26">
      <!-- 0.25 -->
      <g style="fill: #536b76" transform="translate(634.701582 287.540697) scale(0.12 -0.12)">
       <use xlink:href="#ArialUnicodeMS-13"/>
       <use xlink:href="#ArialUnicodeMS-11" transform="translate(55.609375 0)"/>
       <use xlink:href="#ArialUnicodeMS-15" transform="translate(83.390625 0)"/>
       <use xlink:href="#ArialUnicodeMS-18" transform="translate(139 0)"/>
      </g>
     </g>
    </g>
    <g id="xtick_14">
     <g id="line2d_47">
      <path d="M 717.229491 271.804369 
L 717.229491 19.975084 
" clip-path="url(#p9334350edc)" style="fill: none; stroke: #dce3e7; stroke-opacity: 0.6; stroke-width: 0.6; stroke-linecap: square"/>
     </g>
     <g id="line2d_48">
      <g>
       <use xlink:href="#mdb611dd71b" x="717.229491" y="271.804369" style="fill: #536b76; stroke: #536b76; stroke-width: 0.8"/>
      </g>
     </g>
     <g id="text_27">
      <!-- 0.5 -->
      <g style="fill: #536b76" transform="translate(708.889491 287.540697) scale(0.12 -0.12)">
       <use xlink:href="#ArialUnicodeMS-13"/>
       <use xlink:href="#ArialUnicodeMS-11" transform="translate(55.609375 0)"/>
       <use xlink:href="#ArialUnicodeMS-18" transform="translate(83.390625 0)"/>
      </g>
     </g>
    </g>
    <g id="xtick_15">
     <g id="line2d_49">
      <defs>
       <path id="me38a214e6e" d="M 0 0 
L 0 2 
" style="stroke: #536b76; stroke-width: 0.6"/>
      </defs>
      <g>
       <use xlink:href="#me38a214e6e" x="429.651408" y="271.804369" style="fill: #536b76; stroke: #536b76; stroke-width: 0.6"/>
      </g>
     </g>
    </g>
    <g id="xtick_16">
     <g id="line2d_50">
      <g>
       <use xlink:href="#me38a214e6e" x="459.057374" y="271.804369" style="fill: #536b76; stroke: #536b76; stroke-width: 0.6"/>
      </g>
     </g>
    </g>
    <g id="xtick_17">
     <g id="line2d_51">
      <g>
       <use xlink:href="#me38a214e6e" x="481.866413" y="271.804369" style="fill: #536b76; stroke: #536b76; stroke-width: 0.6"/>
      </g>
     </g>
    </g>
    <g id="xtick_18">
     <g id="line2d_52">
      <g>
       <use xlink:href="#me38a214e6e" x="500.502754" y="271.804369" style="fill: #536b76; stroke: #536b76; stroke-width: 0.6"/>
      </g>
     </g>
    </g>
    <g id="xtick_19">
     <g id="line2d_53">
      <g>
       <use xlink:href="#me38a214e6e" x="516.259557" y="271.804369" style="fill: #536b76; stroke: #536b76; stroke-width: 0.6"/>
      </g>
     </g>
    </g>
    <g id="xtick_20">
     <g id="line2d_54">
      <g>
       <use xlink:href="#me38a214e6e" x="529.90872" y="271.804369" style="fill: #536b76; stroke: #536b76; stroke-width: 0.6"/>
      </g>
     </g>
    </g>
    <g id="xtick_21">
     <g id="line2d_55">
      <g>
       <use xlink:href="#me38a214e6e" x="541.948135" y="271.804369" style="fill: #536b76; stroke: #536b76; stroke-width: 0.6"/>
      </g>
     </g>
    </g>
    <g id="xtick_22">
     <g id="line2d_56">
      <g>
       <use xlink:href="#me38a214e6e" x="623.569105" y="271.804369" style="fill: #536b76; stroke: #536b76; stroke-width: 0.6"/>
      </g>
     </g>
    </g>
    <g id="xtick_23">
     <g id="line2d_57">
      <g>
       <use xlink:href="#me38a214e6e" x="665.014486" y="271.804369" style="fill: #536b76; stroke: #536b76; stroke-width: 0.6"/>
      </g>
     </g>
    </g>
    <g id="xtick_24">
     <g id="line2d_58">
      <g>
       <use xlink:href="#me38a214e6e" x="694.420452" y="271.804369" style="fill: #536b76; stroke: #536b76; stroke-width: 0.6"/>
      </g>
     </g>
    </g>
    <g id="text_28">
     <!-- 积分步长 h / s -->
     <g style="fill: #192b35" transform="translate(538.522735 304.080229) scale(0.12 -0.12)">
      <defs>
       <path id="ArialUnicodeMS-4c7e" d="M 2778 1753 
L 2350 1522 
Q 2106 2225 1797 2584 
L 1797 -397 
L 1313 -397 
L 1313 2253 
L 1306 2253 
Q 1069 1594 519 1025 
L 153 1369 
Q 953 2247 1253 3272 
L 347 3272 
L 347 3731 
L 1313 3731 
L 1313 4434 
Q 1128 4394 550 4325 
L 306 4806 
Q 1300 4828 2328 5313 
L 2584 4941 
Q 2013 4653 1797 4581 
L 1797 3731 
L 2656 3731 
L 2656 3272 
L 1797 3272 
L 1797 2894 
L 2047 3003 
Q 2466 2575 2778 1753 
z
M 5588 1941 
L 2816 1941 
L 2816 4934 
L 5588 4934 
L 5588 1941 
z
M 5100 2400 
L 5100 4475 
L 3303 4475 
L 3303 2400 
L 5100 2400 
z
M 3816 1491 
Q 3388 284 2631 -341 
L 2253 -6 
Q 2941 588 3419 1703 
L 3816 1491 
z
M 6009 -31 
L 5594 -319 
Q 5266 547 4453 1416 
L 4825 1678 
Q 5600 922 6009 -31 
z
" transform="scale(0.015625)"/>
       <path id="ArialUnicodeMS-2495" d="M 5991 3003 
L 5684 2553 
Q 4856 3041 4451 3534 
Q 4047 4028 3781 4831 
L 4319 4984 
Q 4375 4356 4829 3825 
Q 5284 3294 5991 3003 
z
M 2613 4697 
Q 2169 3484 800 2547 
L 416 2919 
Q 1731 3741 2188 4934 
L 2613 4697 
z
M 4872 2931 
Q 4844 1956 4730 1092 
Q 4616 228 4430 7 
Q 4244 -213 3847 -213 
Q 3469 -213 2894 -78 
L 2747 481 
Q 3503 269 3834 269 
Q 4013 269 4128 639 
Q 4244 1009 4341 2463 
L 3138 2463 
Q 2869 263 831 -441 
L 525 -31 
Q 2372 478 2631 2463 
L 1556 2463 
L 1556 2931 
L 4872 2931 
z
" transform="scale(0.015625)"/>
      </defs>
      <use xlink:href="#ArialUnicodeMS-4c7e"/>
      <use xlink:href="#ArialUnicodeMS-2495" transform="translate(100 0)"/>
      <use xlink:href="#ArialUnicodeMS-3df4" transform="translate(200 0)"/>
      <use xlink:href="#ArialUnicodeMS-680e" transform="translate(300 0)"/>
      <use xlink:href="#ArialUnicodeMS-3" transform="translate(400 0)"/>
      <use xlink:href="#ArialUnicodeMS-4b" transform="translate(427.78125 0)"/>
      <use xlink:href="#ArialUnicodeMS-3" transform="translate(483.390625 0)"/>
      <use xlink:href="#ArialUnicodeMS-12" transform="translate(511.171875 0)"/>
      <use xlink:href="#ArialUnicodeMS-3" transform="translate(538.953125 0)"/>
      <use xlink:href="#ArialUnicodeMS-56" transform="translate(566.734375 0)"/>
     </g>
    </g>
   </g>
   <g id="matplotlib.axis_4">
    <g id="ytick_7">
     <g id="line2d_59">
      <path d="M 419.653836 260.077403 
L 731.39976 260.077403 
" clip-path="url(#p9334350edc)" style="fill: none; stroke: #dce3e7; stroke-opacity: 0.6; stroke-width: 0.6; stroke-linecap: square"/>
     </g>
     <g id="line2d_60">
      <g>
       <use xlink:href="#m63d0caf210" x="419.653836" y="260.077403" style="fill: #536b76; stroke: #536b76; stroke-width: 0.8"/>
      </g>
     </g>
     <g id="text_29">
      <!-- $\mathdefault{10^{-8}}$ -->
      <g style="fill: #536b76" transform="translate(389.253836 265.597403) scale(0.12 -0.12)">
       <defs>
        <path id="ArialUnicodeMS-de5" d="M 3384 1997 
L 353 1997 
L 353 2522 
L 3384 2522 
L 3384 1997 
z
" transform="scale(0.015625)"/>
       </defs>
       <use xlink:href="#ArialUnicodeMS-14" transform="translate(0 0.354688)"/>
       <use xlink:href="#ArialUnicodeMS-13" transform="translate(55.615234 0.354688)"/>
       <use xlink:href="#ArialUnicodeMS-de5" transform="translate(112.1875 41.654688) scale(0.7)"/>
       <use xlink:href="#ArialUnicodeMS-1b" transform="translate(153.066406 41.654688) scale(0.7)"/>
      </g>
     </g>
    </g>
    <g id="ytick_8">
     <g id="line2d_61">
      <path d="M 419.653836 225.66863 
L 731.39976 225.66863 
" clip-path="url(#p9334350edc)" style="fill: none; stroke: #dce3e7; stroke-opacity: 0.6; stroke-width: 0.6; stroke-linecap: square"/>
     </g>
     <g id="line2d_62">
      <g>
       <use xlink:href="#m63d0caf210" x="419.653836" y="225.66863" style="fill: #536b76; stroke: #536b76; stroke-width: 0.8"/>
      </g>
     </g>
     <g id="text_30">
      <!-- $\mathdefault{10^{-7}}$ -->
      <g style="fill: #536b76" transform="translate(389.253836 231.12863) scale(0.12 -0.12)">
       <use xlink:href="#ArialUnicodeMS-14" transform="translate(0 0.273438)"/>
       <use xlink:href="#ArialUnicodeMS-13" transform="translate(55.615234 0.273438)"/>
       <use xlink:href="#ArialUnicodeMS-de5" transform="translate(112.1875 41.573437) scale(0.7)"/>
       <use xlink:href="#ArialUnicodeMS-1a" transform="translate(153.066406 41.573437) scale(0.7)"/>
      </g>
     </g>
    </g>
    <g id="ytick_9">
     <g id="line2d_63">
      <path d="M 419.653836 191.259858 
L 731.39976 191.259858 
" clip-path="url(#p9334350edc)" style="fill: none; stroke: #dce3e7; stroke-opacity: 0.6; stroke-width: 0.6; stroke-linecap: square"/>
     </g>
     <g id="line2d_64">
      <g>
       <use xlink:href="#m63d0caf210" x="419.653836" y="191.259858" style="fill: #536b76; stroke: #536b76; stroke-width: 0.8"/>
      </g>
     </g>
     <g id="text_31">
      <!-- $\mathdefault{10^{-6}}$ -->
      <g style="fill: #536b76" transform="translate(389.253836 196.779858) scale(0.12 -0.12)">
       <use xlink:href="#ArialUnicodeMS-14" transform="translate(0 0.354688)"/>
       <use xlink:href="#ArialUnicodeMS-13" transform="translate(55.615234 0.354688)"/>
       <use xlink:href="#ArialUnicodeMS-de5" transform="translate(112.1875 41.654688) scale(0.7)"/>
       <use xlink:href="#ArialUnicodeMS-19" transform="translate(153.066406 41.654688) scale(0.7)"/>
      </g>
     </g>
    </g>
    <g id="ytick_10">
     <g id="line2d_65">
      <path d="M 419.653836 156.851086 
L 731.39976 156.851086 
" clip-path="url(#p9334350edc)" style="fill: none; stroke: #dce3e7; stroke-opacity: 0.6; stroke-width: 0.6; stroke-linecap: square"/>
     </g>
     <g id="line2d_66">
      <g>
       <use xlink:href="#m63d0caf210" x="419.653836" y="156.851086" style="fill: #536b76; stroke: #536b76; stroke-width: 0.8"/>
      </g>
     </g>
     <g id="text_32">
      <!-- $\mathdefault{10^{-5}}$ -->
      <g style="fill: #536b76" transform="translate(389.253836 162.311086) scale(0.12 -0.12)">
       <use xlink:href="#ArialUnicodeMS-14" transform="translate(0 0.273438)"/>
       <use xlink:href="#ArialUnicodeMS-13" transform="translate(55.615234 0.273438)"/>
       <use xlink:href="#ArialUnicodeMS-de5" transform="translate(112.1875 41.573437) scale(0.7)"/>
       <use xlink:href="#ArialUnicodeMS-18" transform="translate(153.066406 41.573437) scale(0.7)"/>
      </g>
     </g>
    </g>
    <g id="ytick_11">
     <g id="line2d_67">
      <path d="M 419.653836 122.442314 
L 731.39976 122.442314 
" clip-path="url(#p9334350edc)" style="fill: none; stroke: #dce3e7; stroke-opacity: 0.6; stroke-width: 0.6; stroke-linecap: square"/>
     </g>
     <g id="line2d_68">
      <g>
       <use xlink:href="#m63d0caf210" x="419.653836" y="122.442314" style="fill: #536b76; stroke: #536b76; stroke-width: 0.8"/>
      </g>
     </g>
     <g id="text_33">
      <!-- $\mathdefault{10^{-4}}$ -->
      <g style="fill: #536b76" transform="translate(389.253836 127.962314) scale(0.12 -0.12)">
       <use xlink:href="#ArialUnicodeMS-14" transform="translate(0 0.595313)"/>
       <use xlink:href="#ArialUnicodeMS-13" transform="translate(55.615234 0.595313)"/>
       <use xlink:href="#ArialUnicodeMS-de5" transform="translate(112.1875 41.895313) scale(0.7)"/>
       <use xlink:href="#ArialUnicodeMS-17" transform="translate(153.066406 41.895313) scale(0.7)"/>
      </g>
     </g>
    </g>
    <g id="ytick_12">
     <g id="line2d_69">
      <path d="M 419.653836 88.033541 
L 731.39976 88.033541 
" clip-path="url(#p9334350edc)" style="fill: none; stroke: #dce3e7; stroke-opacity: 0.6; stroke-width: 0.6; stroke-linecap: square"/>
     </g>
     <g id="line2d_70">
      <g>
       <use xlink:href="#m63d0caf210" x="419.653836" y="88.033541" style="fill: #536b76; stroke: #536b76; stroke-width: 0.8"/>
      </g>
     </g>
     <g id="text_34">
      <!-- $\mathdefault{10^{-3}}$ -->
      <g style="fill: #536b76" transform="translate(389.253836 93.553541) scale(0.12 -0.12)">
       <use xlink:href="#ArialUnicodeMS-14" transform="translate(0 0.354688)"/>
       <use xlink:href="#ArialUnicodeMS-13" transform="translate(55.615234 0.354688)"/>
       <use xlink:href="#ArialUnicodeMS-de5" transform="translate(112.1875 41.654688) scale(0.7)"/>
       <use xlink:href="#ArialUnicodeMS-16" transform="translate(153.066406 41.654688) scale(0.7)"/>
      </g>
     </g>
    </g>
    <g id="ytick_13">
     <g id="line2d_71">
      <path d="M 419.653836 53.624769 
L 731.39976 53.624769 
" clip-path="url(#p9334350edc)" style="fill: none; stroke: #dce3e7; stroke-opacity: 0.6; stroke-width: 0.6; stroke-linecap: square"/>
     </g>
     <g id="line2d_72">
      <g>
       <use xlink:href="#m63d0caf210" x="419.653836" y="53.624769" style="fill: #536b76; stroke: #536b76; stroke-width: 0.8"/>
      </g>
     </g>
     <g id="text_35">
      <!-- $\mathdefault{10^{-2}}$ -->
      <g style="fill: #536b76" transform="translate(389.253836 59.144769) scale(0.12 -0.12)">
       <use xlink:href="#ArialUnicodeMS-14" transform="translate(0 0.354688)"/>
       <use xlink:href="#ArialUnicodeMS-13" transform="translate(55.615234 0.354688)"/>
       <use xlink:href="#ArialUnicodeMS-de5" transform="translate(112.1875 41.654688) scale(0.7)"/>
       <use xlink:href="#ArialUnicodeMS-15" transform="translate(153.066406 41.654688) scale(0.7)"/>
      </g>
     </g>
    </g>
    <g id="ytick_14">
     <g id="line2d_73">
      <defs>
       <path id="m90950556fc" d="M 0 0 
L -2 0 
" style="stroke: #536b76; stroke-width: 0.6"/>
      </defs>
      <g>
       <use xlink:href="#m90950556fc" x="419.653836" y="270.435475" style="fill: #536b76; stroke: #536b76; stroke-width: 0.6"/>
      </g>
     </g>
    </g>
    <g id="ytick_15">
     <g id="line2d_74">
      <g>
       <use xlink:href="#m90950556fc" x="419.653836" y="267.710946" style="fill: #536b76; stroke: #536b76; stroke-width: 0.6"/>
      </g>
     </g>
    </g>
    <g id="ytick_16">
     <g id="line2d_75">
      <g>
       <use xlink:href="#m90950556fc" x="419.653836" y="265.407389" style="fill: #536b76; stroke: #536b76; stroke-width: 0.6"/>
      </g>
     </g>
    </g>
    <g id="ytick_17">
     <g id="line2d_76">
      <g>
       <use xlink:href="#m90950556fc" x="419.653836" y="263.411957" style="fill: #536b76; stroke: #536b76; stroke-width: 0.6"/>
      </g>
     </g>
    </g>
    <g id="ytick_18">
     <g id="line2d_77">
      <g>
       <use xlink:href="#m90950556fc" x="419.653836" y="261.651862" style="fill: #536b76; stroke: #536b76; stroke-width: 0.6"/>
      </g>
     </g>
    </g>
    <g id="ytick_19">
     <g id="line2d_78">
      <g>
       <use xlink:href="#m90950556fc" x="419.653836" y="249.71933" style="fill: #536b76; stroke: #536b76; stroke-width: 0.6"/>
      </g>
     </g>
    </g>
    <g id="ytick_20">
     <g id="line2d_79">
      <g>
       <use xlink:href="#m90950556fc" x="419.653836" y="243.660246" style="fill: #536b76; stroke: #536b76; stroke-width: 0.6"/>
      </g>
     </g>
    </g>
    <g id="ytick_21">
     <g id="line2d_80">
      <g>
       <use xlink:href="#m90950556fc" x="419.653836" y="239.361257" style="fill: #536b76; stroke: #536b76; stroke-width: 0.6"/>
      </g>
     </g>
    </g>
    <g id="ytick_22">
     <g id="line2d_81">
      <g>
       <use xlink:href="#m90950556fc" x="419.653836" y="236.026703" style="fill: #536b76; stroke: #536b76; stroke-width: 0.6"/>
      </g>
     </g>
    </g>
    <g id="ytick_23">
     <g id="line2d_82">
      <g>
       <use xlink:href="#m90950556fc" x="419.653836" y="233.302173" style="fill: #536b76; stroke: #536b76; stroke-width: 0.6"/>
      </g>
     </g>
    </g>
    <g id="ytick_24">
     <g id="line2d_83">
      <g>
       <use xlink:href="#m90950556fc" x="419.653836" y="230.998617" style="fill: #536b76; stroke: #536b76; stroke-width: 0.6"/>
      </g>
     </g>
    </g>
    <g id="ytick_25">
     <g id="line2d_84">
      <g>
       <use xlink:href="#m90950556fc" x="419.653836" y="229.003185" style="fill: #536b76; stroke: #536b76; stroke-width: 0.6"/>
      </g>
     </g>
    </g>
    <g id="ytick_26">
     <g id="line2d_85">
      <g>
       <use xlink:href="#m90950556fc" x="419.653836" y="227.243089" style="fill: #536b76; stroke: #536b76; stroke-width: 0.6"/>
      </g>
     </g>
    </g>
    <g id="ytick_27">
     <g id="line2d_86">
      <g>
       <use xlink:href="#m90950556fc" x="419.653836" y="215.310558" style="fill: #536b76; stroke: #536b76; stroke-width: 0.6"/>
      </g>
     </g>
    </g>
    <g id="ytick_28">
     <g id="line2d_87">
      <g>
       <use xlink:href="#m90950556fc" x="419.653836" y="209.251474" style="fill: #536b76; stroke: #536b76; stroke-width: 0.6"/>
      </g>
     </g>
    </g>
    <g id="ytick_29">
     <g id="line2d_88">
      <g>
       <use xlink:href="#m90950556fc" x="419.653836" y="204.952485" style="fill: #536b76; stroke: #536b76; stroke-width: 0.6"/>
      </g>
     </g>
    </g>
    <g id="ytick_30">
     <g id="line2d_89">
      <g>
       <use xlink:href="#m90950556fc" x="419.653836" y="201.617931" style="fill: #536b76; stroke: #536b76; stroke-width: 0.6"/>
      </g>
     </g>
    </g>
    <g id="ytick_31">
     <g id="line2d_90">
      <g>
       <use xlink:href="#m90950556fc" x="419.653836" y="198.893401" style="fill: #536b76; stroke: #536b76; stroke-width: 0.6"/>
      </g>
     </g>
    </g>
    <g id="ytick_32">
     <g id="line2d_91">
      <g>
       <use xlink:href="#m90950556fc" x="419.653836" y="196.589844" style="fill: #536b76; stroke: #536b76; stroke-width: 0.6"/>
      </g>
     </g>
    </g>
    <g id="ytick_33">
     <g id="line2d_92">
      <g>
       <use xlink:href="#m90950556fc" x="419.653836" y="194.594413" style="fill: #536b76; stroke: #536b76; stroke-width: 0.6"/>
      </g>
     </g>
    </g>
    <g id="ytick_34">
     <g id="line2d_93">
      <g>
       <use xlink:href="#m90950556fc" x="419.653836" y="192.834317" style="fill: #536b76; stroke: #536b76; stroke-width: 0.6"/>
      </g>
     </g>
    </g>
    <g id="ytick_35">
     <g id="line2d_94">
      <g>
       <use xlink:href="#m90950556fc" x="419.653836" y="180.901786" style="fill: #536b76; stroke: #536b76; stroke-width: 0.6"/>
      </g>
     </g>
    </g>
    <g id="ytick_36">
     <g id="line2d_95">
      <g>
       <use xlink:href="#m90950556fc" x="419.653836" y="174.842701" style="fill: #536b76; stroke: #536b76; stroke-width: 0.6"/>
      </g>
     </g>
    </g>
    <g id="ytick_37">
     <g id="line2d_96">
      <g>
       <use xlink:href="#m90950556fc" x="419.653836" y="170.543713" style="fill: #536b76; stroke: #536b76; stroke-width: 0.6"/>
      </g>
     </g>
    </g>
    <g id="ytick_38">
     <g id="line2d_97">
      <g>
       <use xlink:href="#m90950556fc" x="419.653836" y="167.209158" style="fill: #536b76; stroke: #536b76; stroke-width: 0.6"/>
      </g>
     </g>
    </g>
    <g id="ytick_39">
     <g id="line2d_98">
      <g>
       <use xlink:href="#m90950556fc" x="419.653836" y="164.484629" style="fill: #536b76; stroke: #536b76; stroke-width: 0.6"/>
      </g>
     </g>
    </g>
    <g id="ytick_40">
     <g id="line2d_99">
      <g>
       <use xlink:href="#m90950556fc" x="419.653836" y="162.181072" style="fill: #536b76; stroke: #536b76; stroke-width: 0.6"/>
      </g>
     </g>
    </g>
    <g id="ytick_41">
     <g id="line2d_100">
      <g>
       <use xlink:href="#m90950556fc" x="419.653836" y="160.18564" style="fill: #536b76; stroke: #536b76; stroke-width: 0.6"/>
      </g>
     </g>
    </g>
    <g id="ytick_42">
     <g id="line2d_101">
      <g>
       <use xlink:href="#m90950556fc" x="419.653836" y="158.425545" style="fill: #536b76; stroke: #536b76; stroke-width: 0.6"/>
      </g>
     </g>
    </g>
    <g id="ytick_43">
     <g id="line2d_102">
      <g>
       <use xlink:href="#m90950556fc" x="419.653836" y="146.493013" style="fill: #536b76; stroke: #536b76; stroke-width: 0.6"/>
      </g>
     </g>
    </g>
    <g id="ytick_44">
     <g id="line2d_103">
      <g>
       <use xlink:href="#m90950556fc" x="419.653836" y="140.433929" style="fill: #536b76; stroke: #536b76; stroke-width: 0.6"/>
      </g>
     </g>
    </g>
    <g id="ytick_45">
     <g id="line2d_104">
      <g>
       <use xlink:href="#m90950556fc" x="419.653836" y="136.134941" style="fill: #536b76; stroke: #536b76; stroke-width: 0.6"/>
      </g>
     </g>
    </g>
    <g id="ytick_46">
     <g id="line2d_105">
      <g>
       <use xlink:href="#m90950556fc" x="419.653836" y="132.800386" style="fill: #536b76; stroke: #536b76; stroke-width: 0.6"/>
      </g>
     </g>
    </g>
    <g id="ytick_47">
     <g id="line2d_106">
      <g>
       <use xlink:href="#m90950556fc" x="419.653836" y="130.075857" style="fill: #536b76; stroke: #536b76; stroke-width: 0.6"/>
      </g>
     </g>
    </g>
    <g id="ytick_48">
     <g id="line2d_107">
      <g>
       <use xlink:href="#m90950556fc" x="419.653836" y="127.7723" style="fill: #536b76; stroke: #536b76; stroke-width: 0.6"/>
      </g>
     </g>
    </g>
    <g id="ytick_49">
     <g id="line2d_108">
      <g>
       <use xlink:href="#m90950556fc" x="419.653836" y="125.776868" style="fill: #536b76; stroke: #536b76; stroke-width: 0.6"/>
      </g>
     </g>
    </g>
    <g id="ytick_50">
     <g id="line2d_109">
      <g>
       <use xlink:href="#m90950556fc" x="419.653836" y="124.016773" style="fill: #536b76; stroke: #536b76; stroke-width: 0.6"/>
      </g>
     </g>
    </g>
    <g id="ytick_51">
     <g id="line2d_110">
      <g>
       <use xlink:href="#m90950556fc" x="419.653836" y="112.084241" style="fill: #536b76; stroke: #536b76; stroke-width: 0.6"/>
      </g>
     </g>
    </g>
    <g id="ytick_52">
     <g id="line2d_111">
      <g>
       <use xlink:href="#m90950556fc" x="419.653836" y="106.025157" style="fill: #536b76; stroke: #536b76; stroke-width: 0.6"/>
      </g>
     </g>
    </g>
    <g id="ytick_53">
     <g id="line2d_112">
      <g>
       <use xlink:href="#m90950556fc" x="419.653836" y="101.726168" style="fill: #536b76; stroke: #536b76; stroke-width: 0.6"/>
      </g>
     </g>
    </g>
    <g id="ytick_54">
     <g id="line2d_113">
      <g>
       <use xlink:href="#m90950556fc" x="419.653836" y="98.391614" style="fill: #536b76; stroke: #536b76; stroke-width: 0.6"/>
      </g>
     </g>
    </g>
    <g id="ytick_55">
     <g id="line2d_114">
      <g>
       <use xlink:href="#m90950556fc" x="419.653836" y="95.667084" style="fill: #536b76; stroke: #536b76; stroke-width: 0.6"/>
      </g>
     </g>
    </g>
    <g id="ytick_56">
     <g id="line2d_115">
      <g>
       <use xlink:href="#m90950556fc" x="419.653836" y="93.363528" style="fill: #536b76; stroke: #536b76; stroke-width: 0.6"/>
      </g>
     </g>
    </g>
    <g id="ytick_57">
     <g id="line2d_116">
      <g>
       <use xlink:href="#m90950556fc" x="419.653836" y="91.368096" style="fill: #536b76; stroke: #536b76; stroke-width: 0.6"/>
      </g>
     </g>
    </g>
    <g id="ytick_58">
     <g id="line2d_117">
      <g>
       <use xlink:href="#m90950556fc" x="419.653836" y="89.608" style="fill: #536b76; stroke: #536b76; stroke-width: 0.6"/>
      </g>
     </g>
    </g>
    <g id="ytick_59">
     <g id="line2d_118">
      <g>
       <use xlink:href="#m90950556fc" x="419.653836" y="77.675469" style="fill: #536b76; stroke: #536b76; stroke-width: 0.6"/>
      </g>
     </g>
    </g>
    <g id="ytick_60">
     <g id="line2d_119">
      <g>
       <use xlink:href="#m90950556fc" x="419.653836" y="71.616385" style="fill: #536b76; stroke: #536b76; stroke-width: 0.6"/>
      </g>
     </g>
    </g>
    <g id="ytick_61">
     <g id="line2d_120">
      <g>
       <use xlink:href="#m90950556fc" x="419.653836" y="67.317396" style="fill: #536b76; stroke: #536b76; stroke-width: 0.6"/>
      </g>
     </g>
    </g>
    <g id="ytick_62">
     <g id="line2d_121">
      <g>
       <use xlink:href="#m90950556fc" x="419.653836" y="63.982842" style="fill: #536b76; stroke: #536b76; stroke-width: 0.6"/>
      </g>
     </g>
    </g>
    <g id="ytick_63">
     <g id="line2d_122">
      <g>
       <use xlink:href="#m90950556fc" x="419.653836" y="61.258312" style="fill: #536b76; stroke: #536b76; stroke-width: 0.6"/>
      </g>
     </g>
    </g>
    <g id="ytick_64">
     <g id="line2d_123">
      <g>
       <use xlink:href="#m90950556fc" x="419.653836" y="58.954755" style="fill: #536b76; stroke: #536b76; stroke-width: 0.6"/>
      </g>
     </g>
    </g>
    <g id="ytick_65">
     <g id="line2d_124">
      <g>
       <use xlink:href="#m90950556fc" x="419.653836" y="56.959324" style="fill: #536b76; stroke: #536b76; stroke-width: 0.6"/>
      </g>
     </g>
    </g>
    <g id="ytick_66">
     <g id="line2d_125">
      <g>
       <use xlink:href="#m90950556fc" x="419.653836" y="55.199228" style="fill: #536b76; stroke: #536b76; stroke-width: 0.6"/>
      </g>
     </g>
    </g>
    <g id="ytick_67">
     <g id="line2d_126">
      <g>
       <use xlink:href="#m90950556fc" x="419.653836" y="43.266696" style="fill: #536b76; stroke: #536b76; stroke-width: 0.6"/>
      </g>
     </g>
    </g>
    <g id="ytick_68">
     <g id="line2d_127">
      <g>
       <use xlink:href="#m90950556fc" x="419.653836" y="37.207612" style="fill: #536b76; stroke: #536b76; stroke-width: 0.6"/>
      </g>
     </g>
    </g>
    <g id="ytick_69">
     <g id="line2d_128">
      <g>
       <use xlink:href="#m90950556fc" x="419.653836" y="32.908624" style="fill: #536b76; stroke: #536b76; stroke-width: 0.6"/>
      </g>
     </g>
    </g>
    <g id="ytick_70">
     <g id="line2d_129">
      <g>
       <use xlink:href="#m90950556fc" x="419.653836" y="29.574069" style="fill: #536b76; stroke: #536b76; stroke-width: 0.6"/>
      </g>
     </g>
    </g>
    <g id="ytick_71">
     <g id="line2d_130">
      <g>
       <use xlink:href="#m90950556fc" x="419.653836" y="26.84954" style="fill: #536b76; stroke: #536b76; stroke-width: 0.6"/>
      </g>
     </g>
    </g>
    <g id="ytick_72">
     <g id="line2d_131">
      <g>
       <use xlink:href="#m90950556fc" x="419.653836" y="24.545983" style="fill: #536b76; stroke: #536b76; stroke-width: 0.6"/>
      </g>
     </g>
    </g>
    <g id="ytick_73">
     <g id="line2d_132">
      <g>
       <use xlink:href="#m90950556fc" x="419.653836" y="22.550551" style="fill: #536b76; stroke: #536b76; stroke-width: 0.6"/>
      </g>
     </g>
    </g>
    <g id="ytick_74">
     <g id="line2d_133">
      <g>
       <use xlink:href="#m90950556fc" x="419.653836" y="20.790456" style="fill: #536b76; stroke: #536b76; stroke-width: 0.6"/>
      </g>
     </g>
    </g>
    <g id="text_36">
     <!-- |x(2 s) − exp(−4)| / 1 -->
     <g style="fill: #192b35" transform="translate(382.733836 199.691914) rotate(-90) scale(0.12 -0.12)">
      <defs>
       <path id="ArialUnicodeMS-5f" d="M 1075 -1275 
L 588 -1275 
L 588 4581 
L 1075 4581 
L 1075 -1275 
z
" transform="scale(0.015625)"/>
       <path id="ArialUnicodeMS-53" d="M 959 2888 
Q 1275 3391 1906 3391 
Q 2559 3391 2937 2917 
Q 3316 2444 3316 1684 
Q 3316 875 2897 398 
Q 2478 -78 1869 -78 
Q 1334 -78 1013 347 
L 997 347 
L 997 -1275 
L 434 -1275 
L 434 3316 
L 947 3316 
L 947 2888 
L 959 2888 
z
M 1831 384 
Q 2225 384 2483 711 
Q 2741 1038 2741 1684 
Q 2741 2294 2492 2622 
Q 2244 2950 1856 2950 
Q 1456 2950 1198 2584 
Q 941 2219 941 1638 
Q 941 1022 1187 703 
Q 1434 384 1831 384 
z
" transform="scale(0.015625)"/>
      </defs>
      <use xlink:href="#ArialUnicodeMS-5f"/>
      <use xlink:href="#ArialUnicodeMS-5b" transform="translate(25.984375 0)"/>
      <use xlink:href="#ArialUnicodeMS-b" transform="translate(75.984375 0)"/>
      <use xlink:href="#ArialUnicodeMS-15" transform="translate(109.28125 0)"/>
      <use xlink:href="#ArialUnicodeMS-3" transform="translate(164.890625 0)"/>
      <use xlink:href="#ArialUnicodeMS-56" transform="translate(192.671875 0)"/>
      <use xlink:href="#ArialUnicodeMS-c" transform="translate(242.671875 0)"/>
      <use xlink:href="#ArialUnicodeMS-3" transform="translate(275.96875 0)"/>
      <use xlink:href="#ArialUnicodeMS-de5" transform="translate(303.75 0)"/>
      <use xlink:href="#ArialUnicodeMS-3" transform="translate(362.15625 0)"/>
      <use xlink:href="#ArialUnicodeMS-48" transform="translate(389.9375 0)"/>
      <use xlink:href="#ArialUnicodeMS-5b" transform="translate(445.546875 0)"/>
      <use xlink:href="#ArialUnicodeMS-53" transform="translate(495.546875 0)"/>
      <use xlink:href="#ArialUnicodeMS-b" transform="translate(551.15625 0)"/>
      <use xlink:href="#ArialUnicodeMS-de5" transform="translate(584.453125 0)"/>
      <use xlink:href="#ArialUnicodeMS-17" transform="translate(642.859375 0)"/>
      <use xlink:href="#ArialUnicodeMS-c" transform="translate(698.46875 0)"/>
      <use xlink:href="#ArialUnicodeMS-5f" transform="translate(731.765625 0)"/>
      <use xlink:href="#ArialUnicodeMS-3" transform="translate(757.75 0)"/>
      <use xlink:href="#ArialUnicodeMS-12" transform="translate(785.53125 0)"/>
      <use xlink:href="#ArialUnicodeMS-3" transform="translate(813.3125 0)"/>
      <use xlink:href="#ArialUnicodeMS-14" transform="translate(841.09375 0)"/>
     </g>
    </g>
   </g>
   <g id="line2d_134">
    <path d="M 717.229491 44.581384 
L 646.378144 48.16597 
L 575.526798 56.421723 
L 504.675452 65.975535 
L 433.824105 75.980319 
" clip-path="url(#p9334350edc)" style="fill: none; stroke: #2563a6; stroke-width: 2; stroke-linecap: square"/>
    <g clip-path="url(#p9334350edc)">
     <use xlink:href="#ma08c4f5406" x="717.229491" y="44.581384" style="fill: #2563a6; stroke: #2563a6"/>
     <use xlink:href="#ma08c4f5406" x="646.378144" y="48.16597" style="fill: #2563a6; stroke: #2563a6"/>
     <use xlink:href="#ma08c4f5406" x="575.526798" y="56.421723" style="fill: #2563a6; stroke: #2563a6"/>
     <use xlink:href="#ma08c4f5406" x="504.675452" y="65.975535" style="fill: #2563a6; stroke: #2563a6"/>
     <use xlink:href="#ma08c4f5406" x="433.824105" y="75.980319" style="fill: #2563a6; stroke: #2563a6"/>
    </g>
   </g>
   <g id="line2d_135">
    <path d="M 717.229491 31.421869 
L 646.378144 64.080516 
L 575.526798 88.900099 
L 504.675452 111.300699 
L 433.824105 132.783401 
" clip-path="url(#p9334350edc)" style="fill: none; stroke-dasharray: 7.4,3.2; stroke-dashoffset: 0; stroke: #bc5930; stroke-width: 2"/>
    <g clip-path="url(#p9334350edc)">
     <use xlink:href="#mc893b52729" x="717.229491" y="31.421869" style="fill: #bc5930; stroke: #bc5930; stroke-linejoin: miter"/>
     <use xlink:href="#mc893b52729" x="646.378144" y="64.080516" style="fill: #bc5930; stroke: #bc5930; stroke-linejoin: miter"/>
     <use xlink:href="#mc893b52729" x="575.526798" y="88.900099" style="fill: #bc5930; stroke: #bc5930; stroke-linejoin: miter"/>
     <use xlink:href="#mc893b52729" x="504.675452" y="111.300699" style="fill: #bc5930; stroke: #bc5930; stroke-linejoin: miter"/>
     <use xlink:href="#mc893b52729" x="433.824105" y="132.783401" style="fill: #bc5930; stroke: #bc5930; stroke-linejoin: miter"/>
    </g>
   </g>
   <g id="line2d_136">
    <path d="M 717.229491 82.380903 
L 646.378144 130.556364 
L 575.526798 175.148394 
L 504.675452 218.145199 
L 433.824105 260.357584 
" clip-path="url(#p9334350edc)" style="fill: none; stroke-dasharray: 12.8,3.2,2,3.2; stroke-dashoffset: 0; stroke: #775da6; stroke-width: 2"/>
    <g clip-path="url(#p9334350edc)">
     <use xlink:href="#m9f048bad73" x="717.229491" y="82.380903" style="fill: #775da6; stroke: #775da6; stroke-linejoin: miter"/>
     <use xlink:href="#m9f048bad73" x="646.378144" y="130.556364" style="fill: #775da6; stroke: #775da6; stroke-linejoin: miter"/>
     <use xlink:href="#m9f048bad73" x="575.526798" y="175.148394" style="fill: #775da6; stroke: #775da6; stroke-linejoin: miter"/>
     <use xlink:href="#m9f048bad73" x="504.675452" y="218.145199" style="fill: #775da6; stroke: #775da6; stroke-linejoin: miter"/>
     <use xlink:href="#m9f048bad73" x="433.824105" y="260.357584" style="fill: #775da6; stroke: #775da6; stroke-linejoin: miter"/>
    </g>
   </g>
   <g id="patch_6">
    <path d="M 419.653836 271.804369 
L 419.653836 19.975084 
" style="fill: none; stroke: #6e7b86; stroke-width: 0.8; stroke-linejoin: miter; stroke-linecap: square"/>
   </g>
   <g id="patch_7">
    <path d="M 419.653836 271.804369 
L 731.39976 271.804369 
" style="fill: none; stroke: #6e7b86; stroke-width: 0.8; stroke-linejoin: miter; stroke-linecap: square"/>
   </g>
   <g id="text_37">
    <!-- (b) 缩小步长后的终点误差 -->
    <g style="fill: #192b35" transform="translate(500.777814 13.975084) scale(0.13 -0.13)">
     <defs>
      <path id="ArialUnicodeMS-45" d="M 1006 2944 
Q 1319 3391 1900 3391 
Q 2541 3391 2925 2925 
Q 3309 2459 3309 1709 
Q 3309 844 2879 383 
Q 2450 -78 1875 -78 
Q 1291 -78 966 416 
L 953 416 
L 953 0 
L 428 0 
L 428 4581 
L 991 4581 
L 991 2944 
L 1006 2944 
z
M 1831 384 
Q 2222 384 2476 720 
Q 2731 1056 2731 1663 
Q 2731 2247 2497 2589 
Q 2263 2931 1850 2931 
Q 1444 2931 1195 2578 
Q 947 2225 947 1684 
Q 947 1156 1050 932 
Q 1153 709 1361 546 
Q 1569 384 1831 384 
z
" transform="scale(0.015625)"/>
      <path id="ArialUnicodeMS-51b8" d="M 5747 3909 
L 5259 3909 
L 5259 4325 
L 2809 4325 
L 2809 3713 
L 2322 3713 
L 2322 4794 
L 3803 4794 
Q 3666 4963 3328 5159 
L 3847 5381 
Q 4163 5134 4366 4794 
L 5747 4794 
L 5747 3909 
z
M 2309 1459 
Q 1506 1300 563 1013 
L 384 1447 
Q 853 1922 1344 2759 
Q 1253 2759 594 2584 
L 397 2969 
Q 1038 4006 1388 5044 
L 1806 4813 
Q 1522 3900 984 3103 
Q 1338 3147 1556 3188 
Q 1800 3591 1894 3816 
L 2297 3584 
Q 1822 2469 1106 1625 
L 1119 1613 
L 2309 1888 
L 2309 1459 
z
M 3463 3963 
Q 3384 3597 3294 3291 
L 3200 3022 
L 3200 -422 
L 2713 -422 
L 2713 2234 
L 2706 2247 
Q 2647 2053 2497 1919 
L 2081 2175 
Q 2847 2978 3053 4159 
L 3463 3963 
z
M 5869 3347 
L 4959 3347 
Q 4938 3153 4813 2853 
L 5594 2853 
L 5594 -422 
L 5106 -422 
L 5106 -56 
L 4141 -56 
L 4141 -422 
L 3653 -422 
L 3653 2853 
L 4306 2853 
Q 4469 3100 4506 3347 
L 3494 3347 
L 3494 3816 
L 5869 3816 
L 5869 3347 
z
M 5106 1672 
L 5106 2388 
L 4141 2388 
L 4141 1672 
L 5106 1672 
z
M 5106 409 
L 5106 1228 
L 4141 1228 
L 4141 409 
L 5106 409 
z
M 2309 428 
L 500 -206 
L 263 206 
Q 1309 519 2309 909 
L 2309 428 
z
" transform="scale(0.015625)"/>
      <path id="ArialUnicodeMS-2e9e" d="M 3475 434 
Q 3475 59 3267 -100 
Q 3059 -259 2634 -259 
L 2244 -250 
Q 2147 -250 2069 -256 
L 1856 269 
Q 2253 238 2528 238 
Q 2841 238 2905 281 
Q 2969 325 2969 434 
L 2969 5234 
L 3475 5234 
L 3475 434 
z
M 5931 1709 
L 5472 1484 
Q 5088 2713 4019 3688 
L 4475 3928 
Q 5584 2922 5931 1709 
z
M 2181 3706 
Q 1769 2356 850 1459 
L 453 1791 
Q 1372 2700 1753 3922 
L 2181 3706 
z
" transform="scale(0.015625)"/>
      <path id="ArialUnicodeMS-269d" d="M 5925 3138 
L 1631 3138 
L 1631 1850 
Q 1631 747 709 -384 
L 281 -56 
Q 1147 881 1147 1869 
L 1147 4666 
Q 3191 4666 5275 5403 
L 5613 5025 
Q 3828 4219 1631 4178 
L 1631 3603 
L 5925 3603 
L 5925 3138 
z
M 5388 -409 
L 4903 -409 
L 4903 97 
L 2644 97 
L 2644 -409 
L 2156 -409 
L 2156 2338 
L 5388 2338 
L 5388 -409 
z
M 4903 563 
L 4903 1869 
L 2644 1869 
L 2644 563 
L 4903 563 
z
" transform="scale(0.015625)"/>
      <path id="ArialUnicodeMS-4913" d="M 5644 4281 
Q 5619 1694 5395 673 
Q 5172 -347 4606 -347 
Q 4350 -347 3609 -134 
L 3525 403 
Q 4247 134 4531 134 
Q 4806 134 4976 1142 
Q 5147 2150 5159 3841 
L 3794 3841 
Q 3550 3166 3053 2497 
L 2719 2713 
L 2719 -147 
L 2216 -147 
L 2216 269 
L 1153 269 
L 1153 -250 
L 647 -250 
L 647 4184 
L 1234 4184 
Q 1494 4644 1625 5313 
L 2088 5125 
Q 1903 4444 1741 4184 
L 2719 4184 
L 2719 2881 
Q 3431 3888 3681 5363 
L 4191 5247 
Q 4106 4869 3916 4281 
L 5644 4281 
z
M 2216 2484 
L 2216 3719 
L 1153 3719 
L 1153 2484 
L 2216 2484 
z
M 2216 738 
L 2216 2016 
L 1153 2016 
L 1153 738 
L 2216 738 
z
M 4775 1369 
L 4313 1166 
Q 4034 1925 3444 2669 
L 3841 2931 
Q 4484 2191 4775 1369 
z
" transform="scale(0.015625)"/>
      <path id="ArialUnicodeMS-5157" d="M 6059 1941 
L 5778 1516 
Q 4866 1819 4122 2572 
Q 3641 2128 2988 1728 
L 2613 2119 
Q 3209 2403 3803 2944 
Q 3528 3291 3372 3628 
Q 3131 3263 2784 2963 
L 2375 3256 
Q 3234 3978 3628 5338 
L 4025 5191 
Q 4006 5038 3884 4697 
L 5350 4697 
Q 5228 3753 4475 2913 
Q 5047 2284 6059 1941 
z
M 4738 4231 
L 3700 4231 
L 3675 4141 
Q 3675 4063 3789 3833 
Q 3903 3603 4159 3316 
Q 4569 3763 4738 4231 
z
M 2528 3853 
Q 1891 2553 1191 1913 
L 1203 1900 
L 2497 2228 
L 2497 1791 
Q 1694 1594 653 1275 
L 422 1703 
Q 1069 2350 1338 2766 
Q 966 2675 641 2572 
L 397 3009 
Q 897 3831 1472 5300 
L 1906 5094 
Q 1350 3816 978 3150 
L 1650 3291 
Q 1850 3588 2081 4056 
L 2528 3853 
z
M 5259 1184 
L 4991 788 
Q 4416 1375 3519 1691 
L 3775 2094 
Q 4684 1788 5259 1184 
z
M 2719 781 
L 678 72 
L 434 513 
Q 1913 1006 2719 1259 
L 2719 781 
z
M 5119 -103 
L 4781 -506 
Q 4263 244 3009 756 
L 3297 1131 
Q 4441 744 5119 -103 
z
" transform="scale(0.015625)"/>
      <path id="ArialUnicodeMS-4348" d="M 5522 4225 
L 3213 4225 
L 3213 3597 
L 4972 3597 
L 4972 1459 
L 1338 1459 
L 1338 3597 
L 2725 3597 
L 2725 5313 
L 3213 5313 
L 3213 4666 
L 5522 4666 
L 5522 4225 
z
M 4513 1900 
L 4513 3156 
L 1825 3156 
L 1825 1900 
L 4513 1900 
z
M 6081 -56 
L 5619 -325 
Q 5188 509 4544 1031 
L 4922 1288 
Q 5672 631 6081 -56 
z
M 1856 1044 
Q 1550 141 763 -453 
L 319 -91 
Q 1059 356 1447 1247 
L 1850 1044 
L 1856 1044 
z
M 4538 -109 
L 4072 -288 
Q 3759 481 3272 997 
L 3681 1197 
Q 4216 653 4538 -109 
z
M 3200 -134 
L 2700 -275 
Q 2519 444 2047 1013 
L 2463 1184 
Q 2925 600 3200 -134 
z
" transform="scale(0.015625)"/>
      <path id="ArialUnicodeMS-5e7e" d="M 1906 4178 
L 1509 3841 
Q 1200 4372 594 4775 
L 941 5081 
Q 1422 4819 1906 4178 
z
M 5344 3391 
L 2663 3391 
L 2663 5044 
L 5344 5044 
L 5344 3391 
z
M 4856 3859 
L 4856 4575 
L 3150 4575 
L 3150 3859 
L 4856 3859 
z
M 2534 603 
L 1356 -72 
L 1038 288 
Q 1100 400 1100 628 
L 1100 2859 
L 391 2859 
L 391 3328 
L 1588 3328 
L 1588 581 
Q 1672 625 1990 822 
Q 2309 1019 2534 1131 
L 2534 603 
z
M 6119 -38 
L 5831 -434 
Q 5197 -203 4728 342 
Q 4259 888 4147 1459 
L 4056 1459 
Q 3753 250 2106 -441 
L 1772 6 
Q 3166 391 3566 1459 
L 2075 1459 
L 2075 1925 
L 3669 1925 
Q 3675 1994 3675 2491 
L 2400 2491 
L 2400 2956 
L 5631 2956 
L 5631 2491 
L 4172 2491 
L 4159 1925 
L 5997 1925 
L 5997 1459 
L 4609 1459 
Q 4738 1034 5177 598 
Q 5616 163 6119 -38 
z
" transform="scale(0.015625)"/>
      <path id="ArialUnicodeMS-307d" d="M 5991 -122 
L 1209 -122 
L 1209 347 
L 3284 347 
L 3284 1178 
L 1863 1178 
Q 1419 619 588 159 
L 300 581 
Q 1531 1266 1888 2169 
L 697 2169 
L 697 2631 
L 2981 2631 
L 2981 3188 
L 1319 3188 
L 1319 3634 
L 2981 3634 
L 2981 4122 
L 947 4122 
L 947 4581 
L 2291 4581 
Q 2069 4831 1563 5088 
L 2069 5350 
Q 2581 5003 2822 4588 
L 3647 4588 
Q 4069 4869 4313 5375 
L 4781 5147 
Q 4534 4741 4347 4603 
L 4347 4588 
L 5581 4588 
L 5575 4122 
L 3463 4122 
L 3463 3634 
L 5209 3634 
L 5209 3188 
L 3463 3188 
L 3463 2631 
L 5838 2631 
L 5838 2169 
L 2413 2169 
Q 2375 2000 2150 1644 
L 5497 1644 
L 5497 1178 
L 3763 1178 
L 3763 347 
L 5991 347 
L 5991 -122 
z
" transform="scale(0.015625)"/>
     </defs>
     <use xlink:href="#ArialUnicodeMS-b"/>
     <use xlink:href="#ArialUnicodeMS-45" transform="translate(33.296875 0)"/>
     <use xlink:href="#ArialUnicodeMS-c" transform="translate(88.90625 0)"/>
     <use xlink:href="#ArialUnicodeMS-3" transform="translate(122.203125 0)"/>
     <use xlink:href="#ArialUnicodeMS-51b8" transform="translate(149.984375 0)"/>
     <use xlink:href="#ArialUnicodeMS-2e9e" transform="translate(249.984375 0)"/>
     <use xlink:href="#ArialUnicodeMS-3df4" transform="translate(349.984375 0)"/>
     <use xlink:href="#ArialUnicodeMS-680e" transform="translate(449.984375 0)"/>
     <use xlink:href="#ArialUnicodeMS-269d" transform="translate(549.984375 0)"/>
     <use xlink:href="#ArialUnicodeMS-4913" transform="translate(649.984375 0)"/>
     <use xlink:href="#ArialUnicodeMS-5157" transform="translate(749.984375 0)"/>
     <use xlink:href="#ArialUnicodeMS-4348" transform="translate(849.984375 0)"/>
     <use xlink:href="#ArialUnicodeMS-5e7e" transform="translate(949.984375 0)"/>
     <use xlink:href="#ArialUnicodeMS-307d" transform="translate(1049.984375 0)"/>
    </g>
   </g>
   <g id="legend_2">
    <g id="line2d_137">
     <path d="M 658.314135 219.773119 
L 670.314135 219.773119 
L 682.314135 219.773119 
" style="fill: none; stroke: #2563a6; stroke-width: 2; stroke-linecap: square"/>
     <g>
      <use xlink:href="#ma08c4f5406" x="670.314135" y="219.773119" style="fill: #2563a6; stroke: #2563a6"/>
     </g>
    </g>
    <g id="text_38">
     <!-- Euler -->
     <g style="fill: #192b35" transform="translate(691.914135 223.973119) scale(0.12 -0.12)">
      <use xlink:href="#ArialUnicodeMS-28"/>
      <use xlink:href="#ArialUnicodeMS-58" transform="translate(66.703125 0)"/>
      <use xlink:href="#ArialUnicodeMS-4f" transform="translate(122.3125 0)"/>
      <use xlink:href="#ArialUnicodeMS-48" transform="translate(144.53125 0)"/>
      <use xlink:href="#ArialUnicodeMS-55" transform="translate(200.140625 0)"/>
     </g>
    </g>
    <g id="line2d_138">
     <path d="M 658.314135 237.028979 
L 670.314135 237.028979 
L 682.314135 237.028979 
" style="fill: none; stroke-dasharray: 7.4,3.2; stroke-dashoffset: 0; stroke: #bc5930; stroke-width: 2"/>
     <g>
      <use xlink:href="#mc893b52729" x="670.314135" y="237.028979" style="fill: #bc5930; stroke: #bc5930; stroke-linejoin: miter"/>
     </g>
    </g>
    <g id="text_39">
     <!-- Heun -->
     <g style="fill: #192b35" transform="translate(691.914135 241.228979) scale(0.12 -0.12)">
      <use xlink:href="#ArialUnicodeMS-2b"/>
      <use xlink:href="#ArialUnicodeMS-48" transform="translate(72.21875 0)"/>
      <use xlink:href="#ArialUnicodeMS-58" transform="translate(127.828125 0)"/>
      <use xlink:href="#ArialUnicodeMS-51" transform="translate(183.4375 0)"/>
     </g>
    </g>
    <g id="line2d_139">
     <path d="M 658.314135 254.284838 
L 670.314135 254.284838 
L 682.314135 254.284838 
" style="fill: none; stroke-dasharray: 12.8,3.2,2,3.2; stroke-dashoffset: 0; stroke: #775da6; stroke-width: 2"/>
     <g>
      <use xlink:href="#m9f048bad73" x="670.314135" y="254.284838" style="fill: #775da6; stroke: #775da6; stroke-linejoin: miter"/>
     </g>
    </g>
    <g id="text_40">
     <!-- RK4 -->
     <g style="fill: #192b35" transform="translate(691.914135 258.484838) scale(0.12 -0.12)">
      <use xlink:href="#ArialUnicodeMS-35"/>
      <use xlink:href="#ArialUnicodeMS-2e" transform="translate(72.21875 0)"/>
      <use xlink:href="#ArialUnicodeMS-17" transform="translate(138.921875 0)"/>
     </g>
    </g>
   </g>
  </g>
 </g>
 <defs>
  <clipPath id="p2b9a8c23b9">
   <rect x="43.231021" y="19.975084" width="311.745924" height="251.829286"/>
  </clipPath>
  <clipPath id="p9334350edc">
   <rect x="419.653836" y="19.975084" width="311.745924" height="251.829286"/>
  </clipPath>
 </defs>
</svg>
