<?xml version="1.0" encoding="utf-8" standalone="no"?>
<!DOCTYPE svg PUBLIC "-//W3C//DTD SVG 1.1//EN"
  "http://www.w3.org/Graphics/SVG/1.1/DTD/svg11.dtd">
<svg xmlns:xlink="http://www.w3.org/1999/xlink" width="728.39952pt" height="382.799017pt" viewBox="0 0 728.39952 382.799017" xmlns="http://www.w3.org/2000/svg" version="1.1">
 <metadata>
  <rdf:RDF xmlns:dc="http://purl.org/dc/elements/1.1/" xmlns:cc="http://creativecommons.org/ns#" xmlns:rdf="http://www.w3.org/1999/02/22-rdf-syntax-ns#">
   <cc:Work>
    <dc:type rdf:resource="http://purl.org/dc/dcmitype/StillImage"/>
    <dc:date>2026-10-08T19:26:26.755698</dc:date>
    <dc:format>image/svg+xml</dc:format>
    <dc:creator>
     <cc:Agent>
      <dc:title>Matplotlib v3.11.1, https://matplotlib.org/</dc:title>
     </cc:Agent>
    </dc:creator>
   </cc:Work>
  </rdf:RDF>
 </metadata>
 <defs>
  <style type="text/css">*{stroke-linejoin: round; stroke-linecap: butt}</style>
 </defs>
 <g id="figure_1">
  <g id="patch_1">
   <path d="M 0 382.799017 
L 728.39952 382.799017 
L 728.39952 -0 
L 0 -0 
z
" style="fill: #ffffff"/>
  </g>
  <g id="axes_1">
   <g id="patch_2">
    <path d="M 164.279894 112.798063 
L 342.779774 112.798063 
Q 345.635772 112.798063 345.635772 109.026704 
L 345.635772 56.227672 
Q 345.635772 52.456313 342.779774 52.456313 
L 164.279894 52.456313 
Q 161.423896 52.456313 161.423896 56.227672 
L 161.423896 109.026704 
Q 161.423896 112.798063 164.279894 112.798063 
z
" clip-path="url(#p1ec5c7f6a0)" style="fill: #ffffff; stroke: #2563a6; stroke-width: 1.8; stroke-linejoin: miter"/>
   </g>
   <g id="patch_3">
    <path d="M 164.279894 230.653044 
L 342.779774 230.653044 
Q 345.635772 230.653044 345.635772 226.881685 
L 345.635772 174.082653 
Q 345.635772 170.311294 342.779774 170.311294 
L 164.279894 170.311294 
Q 161.423896 170.311294 161.423896 174.082653 
L 161.423896 226.881685 
Q 161.423896 230.653044 164.279894 230.653044 
z
" clip-path="url(#p1ec5c7f6a0)" style="fill: #ffffff; stroke: #bc5930; stroke-width: 1.8; stroke-linejoin: miter"/>
   </g>
   <g id="patch_4">
    <path d="M 164.279894 348.508025 
L 342.779774 348.508025 
Q 345.635772 348.508025 345.635772 344.736666 
L 345.635772 291.937634 
Q 345.635772 288.166275 342.779774 288.166275 
L 164.279894 288.166275 
Q 161.423896 288.166275 161.423896 291.937634 
L 161.423896 344.736666 
Q 161.423896 348.508025 164.279894 348.508025 
z
" clip-path="url(#p1ec5c7f6a0)" style="fill: #ffffff; stroke: #775da6; stroke-width: 1.8; stroke-linejoin: miter"/>
   </g>
   <g id="text_1">
    <!-- 状态、输入 -->
    <g style="fill: #192b35" transform="translate(10.769998 86.763067) scale(0.13 -0.13)">
     <defs>
      <path id="ArialUnicodeMS-4545" d="M 6016 -72 
L 5703 -434 
Q 4350 619 4103 2841 
Q 3834 572 2431 -397 
L 2113 6 
Q 3491 963 3653 2975 
L 2284 2975 
L 2284 3444 
L 3659 3444 
L 3659 5269 
L 4147 5269 
L 4147 3444 
L 5831 3444 
L 5838 2975 
L 4550 2975 
Q 4713 1059 6016 -72 
z
M 2016 -409 
L 1556 -409 
L 1556 1869 
L 603 1075 
L 281 1484 
Q 781 1797 1556 2472 
L 1556 5269 
L 2016 5269 
L 2016 -409 
z
M 5569 3859 
L 5153 3603 
Q 4897 4178 4331 4703 
L 4684 4972 
Q 5222 4453 5569 3859 
z
M 1350 3028 
L 909 2753 
Q 672 3738 300 4166 
L 678 4409 
Q 1128 3928 1350 3028 
z
" transform="scale(0.015625)"/>
      <path id="ArialUnicodeMS-3290" d="M 5978 2075 
L 5672 1650 
Q 3828 2550 3213 3969 
L 3116 3969 
Q 3003 3581 2841 3309 
Q 3538 2913 3891 2425 
L 3506 2131 
Q 3125 2700 2613 2963 
Q 1934 2106 563 1684 
L 231 2138 
Q 1431 2503 1923 2934 
Q 2416 3366 2613 3969 
L 391 3969 
L 391 4409 
L 2741 4409 
Q 2766 4503 2834 5166 
L 3291 5100 
Q 3281 4706 3213 4409 
L 5831 4409 
L 5831 3969 
L 3713 3969 
Q 4350 2806 5978 2075 
z
M 3847 1081 
L 3438 781 
Q 3213 1431 2663 1875 
L 3053 2156 
Q 3644 1650 3847 1081 
z
M 4838 738 
Q 4719 128 4594 -76 
Q 4469 -281 4244 -281 
L 2413 -281 
Q 2234 -281 2100 -159 
Q 1966 -38 1966 122 
L 1966 1894 
L 2450 1894 
L 2450 288 
Q 2450 253 2500 218 
Q 2550 184 2559 184 
L 4147 184 
Q 4209 184 4264 284 
Q 4319 384 4331 519 
L 4372 928 
L 4838 738 
z
M 1819 1388 
Q 1481 641 666 19 
L 281 372 
Q 1056 947 1459 1638 
L 1819 1388 
z
M 5997 359 
L 5644 -6 
Q 5234 706 4488 1228 
L 4819 1556 
Q 5531 1078 5997 359 
z
" transform="scale(0.015625)"/>
      <path id="ArialUnicodeMS-11ec" d="M 2150 -56 
L 1594 -550 
Q 1244 281 603 763 
L 959 1069 
Q 1669 634 2150 -56 
z
" transform="scale(0.015625)"/>
      <path id="ArialUnicodeMS-6222" d="M 6034 3622 
L 5734 3231 
Q 5253 3397 4972 3653 
L 4972 3463 
L 3200 3463 
L 3200 3669 
Q 2906 3388 2522 3150 
L 2113 3463 
Q 3375 4216 3897 5416 
L 4300 5228 
L 4244 5019 
Q 5022 3975 6034 3622 
z
M 4678 3903 
Q 4353 4194 4044 4641 
Q 3897 4381 3444 3903 
L 4678 3903 
z
M 2572 3828 
L 1453 3828 
Q 1316 3275 1050 2719 
L 1491 2719 
L 1491 3463 
L 1953 3463 
L 1953 2719 
L 2484 2719 
L 2484 2278 
L 1953 2278 
L 1953 1581 
L 2509 1766 
L 2509 1306 
L 1953 1119 
L 1953 -469 
L 1491 -469 
L 1491 959 
L 581 672 
L 391 1113 
Q 1081 1275 1491 1428 
L 1491 2278 
L 544 2278 
L 544 2713 
Q 931 3572 978 3828 
L 416 3828 
L 416 4269 
L 1075 4269 
Q 1100 4344 1197 5241 
L 1656 5106 
Q 1644 4834 1550 4269 
L 2572 4269 
L 2572 3828 
z
M 5522 -13 
Q 5522 -422 5081 -422 
L 4709 -422 
L 4556 38 
L 4966 13 
Q 5063 13 5063 122 
L 5063 3188 
L 5522 3188 
L 5522 -13 
z
M 4197 78 
Q 4197 -306 3809 -306 
L 3506 -306 
L 3341 109 
L 3634 78 
Q 3738 78 3738 159 
L 3738 781 
L 3156 781 
L 3156 -447 
L 2694 -447 
L 2694 3047 
L 4197 3047 
L 4197 78 
z
M 3738 2175 
L 3738 2606 
L 3156 2606 
L 3156 2175 
L 3738 2175 
z
M 3738 1222 
L 3738 1734 
L 3156 1734 
L 3156 1222 
L 3738 1222 
z
M 4844 544 
L 4403 544 
L 4403 2834 
L 4844 2834 
L 4844 544 
z
" transform="scale(0.015625)"/>
      <path id="ArialUnicodeMS-23f4" d="M 5972 184 
L 5663 -238 
Q 3931 872 3406 2478 
Q 2675 722 844 -244 
L 544 178 
Q 1822 844 2483 1855 
Q 3144 2866 3144 3194 
L 3128 4453 
L 1991 4453 
L 1991 4922 
L 3609 4922 
L 3603 4575 
Q 3575 3106 4158 2050 
Q 4741 994 5972 184 
z
" transform="scale(0.015625)"/>
     </defs>
     <use xlink:href="#ArialUnicodeMS-4545"/>
     <use xlink:href="#ArialUnicodeMS-3290" transform="translate(100 0)"/>
     <use xlink:href="#ArialUnicodeMS-11ec" transform="translate(200 0)"/>
     <use xlink:href="#ArialUnicodeMS-6222" transform="translate(300 0)"/>
     <use xlink:href="#ArialUnicodeMS-23f4" transform="translate(400 0)"/>
    </g>
   </g>
   <g id="patch_5">
    <path d="M 119.870205 82.627188 
Q 139.290495 82.627188 157.033735 82.627188 
" style="fill: none; stroke: #6e7b86; stroke-width: 1.5; stroke-linecap: round"/>
    <path d="M 152.233735 80.227188 
L 157.033735 82.627188 
L 152.233735 85.027188 
" style="fill: none; stroke: #6e7b86; stroke-width: 1.5; stroke-linecap: round"/>
   </g>
   <g id="text_2">
    <!-- 动力学模型 $f_\psi$ -->
    <g style="fill: #2563a6" transform="translate(210.689834 86.407188) scale(0.14 -0.14)">
     <defs>
      <path id="ArialUnicodeMS-2537" d="M 5678 3834 
Q 5613 2631 5508 1595 
Q 5403 559 5328 262 
Q 5253 -34 5048 -161 
Q 4844 -288 4591 -288 
Q 4416 -288 4097 -256 
Q 4016 25 3944 238 
Q 4550 172 4644 172 
Q 4703 172 4812 456 
Q 4922 741 5023 1741 
Q 5125 2741 5159 3391 
L 4359 3391 
Q 4366 1738 3883 889 
Q 3400 41 2528 -384 
L 2156 25 
Q 2716 300 3009 634 
Q 2913 850 2719 1075 
Q 1478 731 763 475 
L 428 959 
Q 678 1172 1014 1786 
Q 1350 2400 1503 2906 
L 353 2906 
L 353 3372 
L 3144 3372 
L 3144 2906 
L 2041 2906 
Q 1500 1597 1125 1125 
L 1141 1113 
L 2444 1484 
Q 2397 1556 2125 1797 
L 2478 2047 
Q 3131 1475 3359 997 
Q 3528 1178 3697 1742 
Q 3866 2306 3866 2888 
L 3866 3391 
L 3194 3391 
L 3194 3834 
L 3866 3834 
L 3866 5319 
L 4353 5325 
L 4353 3834 
L 5678 3834 
z
M 2881 4219 
L 603 4219 
L 603 4659 
L 2881 4659 
L 2881 4219 
z
" transform="scale(0.015625)"/>
      <path id="ArialUnicodeMS-252a" d="M 5522 3841 
Q 5506 2991 5420 2125 
Q 5334 1259 5246 807 
Q 5159 356 5067 193 
Q 4975 31 4764 -61 
Q 4553 -153 4281 -153 
Q 3966 -153 3244 56 
L 3138 616 
Q 4041 322 4372 322 
Q 4578 322 4701 584 
Q 4825 847 4917 2014 
Q 5009 3181 5006 3372 
L 3397 3372 
Q 3353 1906 2750 1039 
Q 2147 172 813 -359 
L 447 109 
Q 1713 531 2283 1297 
Q 2853 2063 2888 3372 
L 1306 3372 
L 1306 3841 
L 2906 3841 
L 2906 5275 
L 3391 5275 
L 3391 3841 
L 5522 3841 
z
" transform="scale(0.015625)"/>
      <path id="ArialUnicodeMS-2df5" d="M 5791 2822 
L 5306 2822 
L 5306 3431 
L 1081 3431 
L 1081 2822 
L 588 2822 
L 588 3897 
L 3956 3897 
Q 4378 4472 4603 5288 
L 5075 5094 
Q 4903 4397 4500 3897 
L 5791 3897 
L 5791 2822 
z
M 3578 4197 
L 3128 3975 
Q 2928 4609 2444 5063 
L 2847 5275 
Q 3313 4828 3578 4197 
z
M 2156 4197 
L 1728 3950 
Q 1603 4403 934 4928 
L 1350 5178 
Q 1881 4778 2156 4197 
z
M 5925 1259 
L 3500 1259 
L 3500 72 
Q 3500 -138 3344 -242 
Q 3188 -347 3103 -347 
L 2450 -347 
L 2266 159 
L 2944 134 
Q 3016 134 3016 263 
L 3016 1259 
L 475 1259 
L 475 1728 
L 3009 1728 
L 3009 1978 
Q 3488 2134 4006 2456 
L 1434 2456 
L 1434 2925 
L 4825 2925 
L 4825 2491 
Q 4109 1947 3525 1728 
L 5925 1728 
L 5925 1259 
z
" transform="scale(0.015625)"/>
      <path id="ArialUnicodeMS-3cb0" d="M 5906 4213 
L 5063 4213 
L 5063 3809 
L 4575 3809 
L 4575 4213 
L 3469 4213 
L 3469 3809 
L 2981 3809 
L 2981 4213 
L 2131 4213 
L 2131 4678 
L 2981 4678 
L 2981 5300 
L 3469 5300 
L 3469 4678 
L 4575 4678 
L 4575 5300 
L 5063 5300 
L 5063 4678 
L 5906 4678 
L 5906 4213 
z
M 2503 1947 
L 2088 1684 
Q 1891 2191 1716 2394 
L 1716 -441 
L 1222 -441 
L 1222 2088 
Q 1066 1534 588 941 
L 197 1281 
Q 1044 2356 1216 3572 
L 397 3572 
L 397 4038 
L 1209 4038 
L 1209 5281 
L 1716 5281 
L 1716 4038 
L 2406 4038 
L 2406 3572 
L 1716 3572 
L 1716 2900 
L 1856 2969 
Q 2316 2422 2503 1947 
z
M 6094 -25 
L 5838 -422 
Q 4453 -172 4025 838 
Q 3584 -53 2241 -428 
L 1972 -6 
Q 3103 253 3506 856 
L 2247 856 
L 2247 1325 
L 3706 1325 
L 3788 1684 
L 2553 1684 
L 2553 3675 
L 5491 3675 
L 5491 1684 
L 4250 1684 
Q 4222 1453 4178 1325 
L 5791 1325 
L 5791 856 
L 4519 856 
Q 4981 197 6094 -25 
z
M 4984 2925 
L 4984 3206 
L 3059 3206 
L 3059 2925 
L 4984 2925 
z
M 4984 2150 
L 4984 2456 
L 3059 2456 
L 3059 2150 
L 4984 2150 
z
" transform="scale(0.015625)"/>
      <path id="ArialUnicodeMS-2a1a" d="M 5606 2303 
Q 5606 1791 5172 1791 
L 4409 1791 
L 4206 2278 
Q 4641 2253 4716 2259 
L 5019 2278 
Q 5119 2288 5119 2456 
L 5119 5294 
L 5606 5294 
L 5606 2303 
z
M 4019 3188 
L 3284 3188 
L 3284 1906 
L 2797 1906 
L 2797 3188 
L 1925 3188 
Q 1897 2078 744 1550 
L 378 1894 
Q 922 2128 1201 2484 
Q 1481 2841 1453 3188 
L 609 3188 
L 609 3653 
L 1447 3653 
L 1447 4525 
L 756 4525 
L 756 4991 
L 3828 4991 
L 3828 4525 
L 3284 4525 
L 3284 3653 
L 4019 3653 
L 4019 3188 
z
M 2797 3653 
L 2797 4525 
L 1931 4525 
L 1931 3653 
L 2797 3653 
z
M 4603 2606 
L 4116 2606 
L 4116 4891 
L 4603 4891 
L 4603 2606 
z
M 6100 -159 
L 378 -159 
L 378 313 
L 2969 313 
L 2969 878 
L 984 878 
L 984 1344 
L 2969 1344 
L 2969 1778 
L 3456 1778 
L 3456 1344 
L 5472 1344 
L 5472 878 
L 3456 878 
L 3456 313 
L 6100 313 
L 6100 -159 
z
" transform="scale(0.015625)"/>
      <path id="ArialUnicodeMS-3" transform="scale(0.015625)"/>
      <path id="DejaVuSans-Oblique-49" d="M 3059 4863 
L 2969 4384 
L 2419 4384 
Q 2106 4384 1964 4261 
Q 1822 4138 1753 3809 
L 1691 3500 
L 2638 3500 
L 2553 3053 
L 1606 3053 
L 1013 0 
L 434 0 
L 1031 3053 
L 481 3053 
L 563 3500 
L 1113 3500 
L 1159 3744 
Q 1278 4363 1576 4613 
Q 1875 4863 2516 4863 
L 3059 4863 
z
" transform="scale(0.015625)"/>
      <path id="DejaVuSans-Oblique-35c" d="M 1591 -78 
Q 891 38 616 341 
Q 278 713 425 1472 
L 819 3500 
L 1400 3500 
L 1009 1494 
Q 900 922 1119 684 
Q 1313 478 1691 434 
L 2284 3500 
L 2856 3500 
L 2263 438 
Q 2681 481 2928 688 
Q 3247 950 3353 1497 
L 3741 3500 
L 4322 3500 
L 3928 1475 
Q 3775 688 3300 344 
Q 2872 34 2163 -75 
L 1919 -1331 
L 1347 -1331 
L 1591 -78 
z
" transform="scale(0.015625)"/>
     </defs>
     <use xlink:href="#ArialUnicodeMS-2537" transform="translate(0 0.796875)"/>
     <use xlink:href="#ArialUnicodeMS-252a" transform="translate(100 0.796875)"/>
     <use xlink:href="#ArialUnicodeMS-2df5" transform="translate(200 0.796875)"/>
     <use xlink:href="#ArialUnicodeMS-3cb0" transform="translate(300 0.796875)"/>
     <use xlink:href="#ArialUnicodeMS-2a1a" transform="translate(400 0.796875)"/>
     <use xlink:href="#ArialUnicodeMS-3" transform="translate(500 0.796875)"/>
     <use xlink:href="#DejaVuSans-Oblique-49" transform="translate(527.783203 0.796875)"/>
     <use xlink:href="#DejaVuSans-Oblique-35c" transform="translate(562.988281 -14.203076) scale(0.7)"/>
    </g>
   </g>
   <g id="patch_6">
    <path d="M 351.917434 82.627188 
Q 378.477674 82.627188 403.360863 82.627188 
" style="fill: none; stroke: #6e7b86; stroke-width: 1.5; stroke-linecap: round"/>
    <path d="M 398.560863 80.227188 
L 403.360863 82.627188 
L 398.560863 85.027188 
" style="fill: none; stroke: #6e7b86; stroke-width: 1.5; stroke-linecap: round"/>
   </g>
   <g id="text_3">
    <!-- 下一状态 -->
    <g style="fill: #192b35" transform="translate(414.179726 86.61377) scale(0.13 -0.13)">
     <defs>
      <path id="ArialUnicodeMS-209a" d="M 5863 4453 
L 3200 4453 
L 3200 -378 
L 2694 -378 
L 2694 4453 
L 538 4453 
L 538 4941 
L 5863 4941 
L 5863 4453 
z
M 5403 1709 
L 5044 1331 
Q 4494 2084 3384 2700 
L 3681 3028 
Q 4625 2644 5403 1709 
z
" transform="scale(0.015625)"/>
      <path id="ArialUnicodeMS-208f" d="M 5734 2278 
L 775 2278 
L 775 2809 
L 5734 2809 
L 5734 2278 
z
" transform="scale(0.015625)"/>
     </defs>
     <use xlink:href="#ArialUnicodeMS-209a"/>
     <use xlink:href="#ArialUnicodeMS-208f" transform="translate(100 0)"/>
     <use xlink:href="#ArialUnicodeMS-4545" transform="translate(200 0)"/>
     <use xlink:href="#ArialUnicodeMS-3290" transform="translate(300 0)"/>
    </g>
   </g>
   <g id="text_4">
    <!-- 参数依据：转移记录中的下一状态 -->
    <g style="fill: #536b76" transform="translate(164.279894 137.369524) scale(0.12 -0.12)">
     <defs>
      <path id="ArialUnicodeMS-2651" d="M 6209 2028 
L 5900 1588 
Q 4266 1959 3347 3034 
L 2881 3034 
Q 2119 2103 434 1478 
L 116 1894 
Q 1394 2225 2259 3034 
L 459 3034 
L 459 3500 
L 2644 3500 
Q 2809 3663 2906 3884 
L 1131 3841 
L 991 4313 
L 1672 4306 
Q 2172 4644 2822 5428 
L 3250 5178 
Q 2769 4638 2303 4294 
L 4269 4313 
Q 4191 4391 3706 4703 
L 4025 5006 
Q 4903 4497 5369 3859 
L 4928 3572 
Q 4841 3719 4634 3922 
L 3194 3878 
L 3194 3866 
L 3419 3744 
Q 3350 3638 3225 3500 
L 5888 3500 
L 5888 3034 
L 3956 3034 
Q 4688 2363 6209 2028 
z
M 3628 2419 
Q 2878 1494 1350 1119 
L 1063 1509 
Q 1925 1700 2381 1958 
Q 2838 2216 3297 2706 
L 3628 2419 
z
M 4319 1947 
Q 3516 816 1434 366 
L 1147 794 
Q 3072 1159 3969 2209 
L 4319 1947 
z
M 5125 1516 
Q 3713 -253 1006 -475 
L 738 -13 
Q 3397 141 4763 1791 
L 5125 1516 
z
" transform="scale(0.015625)"/>
      <path id="ArialUnicodeMS-37ff" d="M 6138 19 
L 5806 -378 
Q 5031 194 4697 716 
Q 4344 144 3328 -441 
L 2981 -50 
Q 3966 434 4403 1153 
Q 4038 1834 3866 2753 
Q 3678 2356 3353 1919 
L 2950 2203 
Q 3838 3172 3963 5253 
L 4409 5125 
Q 4341 4384 4269 4006 
L 5984 4006 
L 5984 3547 
L 5619 3541 
L 5594 3341 
Q 5441 2113 4978 1191 
Q 5281 672 6138 19 
z
M 5166 3541 
L 4172 3541 
Q 4297 2419 4691 1650 
Q 5038 2513 5166 3541 
z
M 3438 3653 
L 2209 3653 
L 2209 2338 
L 1919 2338 
Q 1900 2269 1753 1931 
L 3225 1931 
L 3225 1472 
L 2913 1472 
Q 2763 991 2503 666 
Q 2947 353 3103 184 
L 2747 -172 
Q 2463 138 2150 313 
Q 1322 -225 563 -428 
L 269 6 
Q 1106 163 1684 563 
Q 1291 756 703 884 
L 1038 1472 
L 403 1472 
L 403 1931 
L 1259 1931 
Q 1328 2056 1466 2553 
L 1747 2484 
L 1747 3653 
L 1716 3653 
Q 1413 2881 678 2456 
L 378 2803 
Q 938 3091 1241 3653 
L 403 3653 
L 403 4122 
L 1747 4122 
L 1747 5228 
L 2209 5228 
L 2209 4122 
L 3438 4122 
L 3438 3653 
z
M 2406 1472 
L 1538 1472 
Q 1422 1241 1369 1153 
Q 1388 1159 2069 884 
Q 2219 1031 2406 1472 
z
M 1625 4441 
L 1288 4159 
Q 1022 4547 575 4813 
L 878 5075 
Q 1394 4844 1625 4441 
z
M 3384 4844 
Q 3097 4409 2669 4172 
L 2322 4481 
Q 2806 4759 3047 5069 
L 3384 4844 
z
M 3303 2888 
L 2944 2578 
Q 2706 3025 2291 3297 
L 2584 3566 
Q 2988 3359 3303 2888 
z
" transform="scale(0.015625)"/>
      <path id="ArialUnicodeMS-222c" d="M 2247 5184 
Q 2156 4772 1909 4106 
L 1663 3481 
L 1663 -469 
L 1166 -469 
L 1166 2650 
Q 1031 2416 666 2041 
L 231 2344 
Q 1338 3394 1797 5369 
L 2247 5184 
z
M 5900 3731 
L 3725 3731 
Q 3528 3091 3194 2591 
L 3194 441 
L 4294 788 
L 4294 275 
L 2228 -397 
L 1978 91 
L 2706 300 
L 2706 2028 
Q 2331 1678 2059 1497 
L 1722 1875 
Q 2831 2628 3206 3731 
L 2016 3731 
L 2016 4191 
L 3700 4191 
L 3700 5294 
L 4197 5294 
L 4197 4191 
L 5900 4191 
L 5900 3731 
z
M 6059 25 
L 5684 -378 
Q 4219 488 3963 3391 
L 4434 3481 
Q 4472 2875 4581 2375 
Q 5119 2756 5428 3194 
L 5766 2809 
Q 5316 2275 4709 1881 
Q 5100 538 6059 25 
z
" transform="scale(0.015625)"/>
      <path id="ArialUnicodeMS-35fd" d="M 2322 2316 
L 1784 2081 
L 1784 147 
Q 1722 -331 1100 -341 
L 647 -347 
L 475 172 
L 1100 147 
Q 1300 138 1300 469 
L 1300 1850 
L 628 1569 
L 238 1966 
L 1300 2388 
L 1300 3659 
L 378 3659 
L 378 4128 
L 1300 4128 
L 1300 5363 
L 1784 5363 
L 1784 4128 
L 2322 4128 
L 2322 3659 
L 1784 3659 
L 1784 2572 
L 2322 2809 
L 2322 2316 
z
M 5709 3531 
L 2869 3531 
L 2869 1403 
Q 2869 428 2156 -347 
L 1759 -50 
Q 2381 634 2381 1684 
L 2381 5100 
L 5709 5100 
L 5709 3531 
z
M 5222 4019 
L 5222 4634 
L 2869 4634 
L 2869 4019 
L 5222 4019 
z
M 6034 2381 
L 4628 2381 
L 4628 1722 
L 5672 1722 
L 5672 -347 
L 5184 -347 
L 5184 25 
L 3609 25 
L 3609 -347 
L 3122 -347 
L 3122 1722 
L 4122 1722 
L 4122 2381 
L 2931 2381 
L 2931 2847 
L 4122 2847 
L 4122 3456 
L 4628 3456 
L 4628 2847 
L 6034 2847 
L 6034 2381 
z
M 5184 494 
L 5184 1253 
L 3609 1253 
L 3609 494 
L 5184 494 
z
" transform="scale(0.015625)"/>
      <path id="ArialUnicodeMS-19f6" d="M 3516 2675 
L 2875 2675 
L 2875 3316 
L 3516 3316 
L 3516 2675 
z
M 3516 0 
L 2875 0 
L 2875 641 
L 3516 641 
L 3516 0 
z
" transform="scale(0.015625)"/>
      <path id="ArialUnicodeMS-61fb" d="M 3047 1306 
L 2163 1069 
L 2163 -397 
L 1678 -397 
L 1678 947 
L 575 678 
Q 425 959 341 1147 
Q 819 1203 1678 1416 
L 1678 2150 
L 709 2150 
L 709 2613 
Q 994 3197 1172 3859 
L 469 3859 
L 469 4300 
L 1288 4300 
Q 1400 4688 1509 5288 
L 2003 5172 
L 1806 4300 
L 2894 4300 
L 2894 3859 
L 1684 3859 
Q 1538 3369 1228 2619 
L 1678 2619 
L 1678 3353 
L 2163 3353 
L 2163 2619 
L 3047 2619 
L 3047 2150 
L 2163 2150 
L 2163 1550 
L 3047 1766 
L 3047 1306 
z
M 5984 2753 
L 4109 2753 
Q 3963 2263 3903 2138 
L 5663 2138 
L 5663 1709 
Q 5438 1394 4825 641 
Q 5125 378 5528 -72 
L 5166 -422 
Q 4631 303 3566 909 
L 3872 1241 
L 4422 928 
Q 4850 1434 5019 1672 
L 3384 1672 
L 3384 2088 
Q 3531 2409 3628 2753 
L 2975 2753 
L 2975 3219 
L 3738 3219 
Q 3803 3453 3884 3963 
L 3144 3963 
L 3144 4422 
L 3922 4434 
Q 3975 4722 4006 5281 
L 4513 5184 
L 4434 4428 
L 5663 4428 
L 5663 3963 
L 4391 3963 
Q 4334 3441 4263 3219 
L 5984 3219 
L 5984 2753 
z
" transform="scale(0.015625)"/>
      <path id="ArialUnicodeMS-4c8a" d="M 5850 4738 
Q 5391 3000 2944 2216 
L 2613 2613 
Q 3381 2819 3922 3122 
Q 3778 3431 3366 3659 
L 3769 3969 
Q 4094 3703 4319 3353 
Q 4928 3797 5178 4269 
L 3944 4269 
Q 3500 3816 3009 3547 
L 2644 3847 
Q 3731 4491 4159 5369 
L 4538 5159 
Q 4456 4969 4294 4738 
L 5850 4738 
z
M 2963 1881 
L 2578 1606 
Q 2259 2219 1997 2369 
L 1997 -434 
L 1509 -434 
L 1509 2119 
Q 1288 1622 678 966 
L 313 1294 
Q 1256 2263 1484 3219 
L 628 3219 
L 628 3688 
L 1516 3688 
L 1516 4459 
Q 1300 4403 794 4347 
L 519 4775 
Q 1806 4909 2528 5281 
L 2784 4897 
Q 2313 4684 1997 4588 
L 1997 3688 
L 2747 3688 
L 2747 3219 
L 1997 3219 
L 1997 2747 
L 2125 2797 
Q 2606 2503 2963 1881 
z
M 5984 2450 
Q 5534 247 2450 -447 
L 2113 -13 
Q 3400 200 4084 628 
Q 3922 950 3559 1234 
L 3944 1503 
Q 4241 1294 4453 863 
Q 5084 1331 5375 1984 
L 4331 1984 
Q 3672 1322 2713 856 
L 2338 1203 
Q 3816 1831 4594 2963 
L 4959 2759 
L 4738 2450 
L 5984 2450 
z
" transform="scale(0.015625)"/>
      <path id="ArialUnicodeMS-5e3f" d="M 2047 4397 
L 1644 4091 
Q 1400 4603 838 5056 
L 1191 5338 
Q 1722 4975 2047 4397 
z
M 6053 1044 
Q 5938 -178 5269 -178 
L 3634 -178 
Q 3384 -178 3182 -3 
Q 2981 172 2981 428 
L 2981 2931 
L 5056 2931 
L 5056 4422 
L 2766 4422 
L 2766 4891 
L 5563 4891 
L 5563 2113 
L 5056 2113 
L 5056 2463 
L 3488 2463 
L 3488 500 
Q 3488 288 3706 288 
L 5234 288 
Q 5531 288 5563 1241 
L 6053 1044 
z
M 2713 447 
L 1594 -178 
L 1306 231 
Q 1416 334 1416 500 
L 1416 3091 
L 513 3091 
L 513 3559 
L 1900 3559 
L 1900 513 
L 2713 978 
L 2713 447 
z
" transform="scale(0.015625)"/>
      <path id="ArialUnicodeMS-31e4" d="M 6175 594 
L 5875 172 
Q 4378 691 3475 1709 
L 3475 197 
Q 3475 -109 3336 -248 
Q 3197 -388 2797 -388 
L 2400 -378 
L 2222 109 
Q 2656 59 2791 59 
Q 2994 59 2994 250 
L 2994 2656 
L 475 2656 
L 475 3122 
L 4153 3122 
L 4197 3628 
L 1550 3628 
L 1550 4097 
L 4219 4097 
L 4256 4581 
L 1178 4581 
L 1178 5050 
L 4813 5050 
L 4653 3122 
L 5913 3122 
L 5913 2656 
L 3475 2656 
L 3475 2363 
Q 3656 2113 4159 1672 
Q 4525 1884 5191 2522 
L 5528 2169 
Q 4959 1641 4531 1394 
Q 5213 903 6175 594 
z
M 2297 1772 
L 1953 1447 
Q 1513 1991 934 2247 
L 1253 2591 
Q 1775 2369 2297 1772 
z
M 2847 1100 
Q 1681 619 781 219 
L 453 653 
L 1203 928 
Q 1522 1044 2847 1650 
L 2847 1100 
z
" transform="scale(0.015625)"/>
      <path id="ArialUnicodeMS-20bc" d="M 5503 1306 
L 4997 1306 
L 4997 1741 
L 3431 1741 
L 3431 -416 
L 2925 -416 
L 2925 1741 
L 1356 1741 
L 1344 1281 
L 838 1281 
L 838 4116 
L 2925 4116 
L 2925 5288 
L 3438 5288 
L 3425 4116 
L 5503 4116 
L 5503 1306 
z
M 4997 2209 
L 4997 3647 
L 3431 3647 
L 3431 2209 
L 4997 2209 
z
M 2925 2209 
L 2925 3647 
L 1344 3647 
L 1344 2209 
L 2925 2209 
z
" transform="scale(0.015625)"/>
      <path id="ArialUnicodeMS-4913" d="M 5644 4281 
Q 5619 1694 5395 673 
Q 5172 -347 4606 -347 
Q 4350 -347 3609 -134 
L 3525 403 
Q 4247 134 4531 134 
Q 4806 134 4976 1142 
Q 5147 2150 5159 3841 
L 3794 3841 
Q 3550 3166 3053 2497 
L 2719 2713 
L 2719 -147 
L 2216 -147 
L 2216 269 
L 1153 269 
L 1153 -250 
L 647 -250 
L 647 4184 
L 1234 4184 
Q 1494 4644 1625 5313 
L 2088 5125 
Q 1903 4444 1741 4184 
L 2719 4184 
L 2719 2881 
Q 3431 3888 3681 5363 
L 4191 5247 
Q 4106 4869 3916 4281 
L 5644 4281 
z
M 2216 2484 
L 2216 3719 
L 1153 3719 
L 1153 2484 
L 2216 2484 
z
M 2216 738 
L 2216 2016 
L 1153 2016 
L 1153 738 
L 2216 738 
z
M 4775 1369 
L 4313 1166 
Q 4034 1925 3444 2669 
L 3841 2931 
Q 4484 2191 4775 1369 
z
" transform="scale(0.015625)"/>
     </defs>
     <use xlink:href="#ArialUnicodeMS-2651"/>
     <use xlink:href="#ArialUnicodeMS-37ff" transform="translate(100 0)"/>
     <use xlink:href="#ArialUnicodeMS-222c" transform="translate(200 0)"/>
     <use xlink:href="#ArialUnicodeMS-35fd" transform="translate(300 0)"/>
     <use xlink:href="#ArialUnicodeMS-19f6" transform="translate(400 0)"/>
     <use xlink:href="#ArialUnicodeMS-61fb" transform="translate(500 0)"/>
     <use xlink:href="#ArialUnicodeMS-4c8a" transform="translate(600 0)"/>
     <use xlink:href="#ArialUnicodeMS-5e3f" transform="translate(700 0)"/>
     <use xlink:href="#ArialUnicodeMS-31e4" transform="translate(800 0)"/>
     <use xlink:href="#ArialUnicodeMS-20bc" transform="translate(900 0)"/>
     <use xlink:href="#ArialUnicodeMS-4913" transform="translate(1000 0)"/>
     <use xlink:href="#ArialUnicodeMS-209a" transform="translate(1100 0)"/>
     <use xlink:href="#ArialUnicodeMS-208f" transform="translate(1200 0)"/>
     <use xlink:href="#ArialUnicodeMS-4545" transform="translate(1300 0)"/>
     <use xlink:href="#ArialUnicodeMS-3290" transform="translate(1400 0)"/>
    </g>
   </g>
   <g id="text_5">
    <!-- 状态 -->
    <g style="fill: #192b35" transform="translate(10.769998 204.468751) scale(0.13 -0.13)">
     <use xlink:href="#ArialUnicodeMS-4545"/>
     <use xlink:href="#ArialUnicodeMS-3290" transform="translate(100 0)"/>
    </g>
   </g>
   <g id="patch_7">
    <path d="M 119.870205 200.482169 
Q 139.290495 200.482169 157.033735 200.482169 
" style="fill: none; stroke: #6e7b86; stroke-width: 1.5; stroke-linecap: round"/>
    <path d="M 152.233735 198.082169 
L 157.033735 200.482169 
L 152.233735 202.882169 
" style="fill: none; stroke: #6e7b86; stroke-width: 1.5; stroke-linecap: round"/>
   </g>
   <g id="text_6">
    <!-- 值函数 $V_w$ -->
    <g style="fill: #bc5930" transform="translate(221.539834 204.892442) scale(0.14 -0.14)">
     <defs>
      <path id="ArialUnicodeMS-22cb" d="M 6034 -172 
L 1791 -172 
L 1791 294 
L 2344 294 
L 2344 3853 
L 3425 3853 
Q 3544 4109 3609 4341 
L 1925 4341 
L 1919 4672 
Q 1841 4369 1691 3981 
L 1544 3622 
L 1544 -434 
L 1056 -434 
L 1056 2753 
Q 859 2466 634 2241 
L 238 2516 
Q 1222 3619 1588 5325 
L 2028 5172 
Q 2009 5038 1953 4806 
L 3731 4806 
Q 3772 4997 3781 5338 
L 4275 5253 
Q 4275 5013 4225 4806 
L 5813 4806 
L 5813 4341 
L 4134 4341 
Q 4091 4188 3956 3853 
L 5409 3853 
L 5409 294 
L 6034 294 
L 6034 -172 
z
M 4922 2994 
L 4922 3384 
L 2828 3384 
L 2828 2994 
L 4922 2994 
z
M 4922 2138 
L 4922 2584 
L 2828 2584 
L 2828 2138 
L 4922 2138 
z
M 4922 1241 
L 4922 1716 
L 2828 1716 
L 2828 1241 
L 4922 1241 
z
M 4922 294 
L 4922 825 
L 2828 825 
L 2828 294 
L 4922 294 
z
" transform="scale(0.015625)"/>
      <path id="ArialUnicodeMS-248c" d="M 5881 4647 
L 2638 4647 
L 2516 4084 
L 3553 4084 
L 3553 1966 
L 3828 2272 
Q 4709 1903 5141 1375 
L 4825 997 
Q 4300 1613 3553 1900 
L 3553 1056 
Q 3553 838 3386 723 
Q 3219 609 3078 609 
L 2463 609 
L 2291 1100 
L 2881 1075 
Q 3072 1066 3072 1228 
L 3072 3609 
L 2419 3609 
L 2363 3413 
L 1894 3481 
L 2150 4647 
L 519 4647 
L 519 5113 
L 5881 5113 
L 5881 4647 
z
M 5638 -391 
L 5153 -391 
L 5153 -19 
L 1253 -19 
L 1253 -391 
L 763 -391 
L 763 3969 
L 1247 3969 
L 1247 3097 
L 1538 3413 
Q 2266 3156 2741 2656 
L 2413 2291 
Q 1938 2816 1247 3053 
L 1247 447 
L 5147 447 
L 5147 3969 
L 5638 3969 
L 5638 -391 
z
M 5069 3397 
Q 4744 2825 3969 2381 
L 3622 2747 
Q 4263 3053 4703 3700 
L 5069 3397 
z
M 2925 1825 
Q 2188 1438 1631 1125 
L 1306 1503 
Q 1738 1706 2919 2350 
L 2919 1825 
L 2925 1825 
z
" transform="scale(0.015625)"/>
      <path id="DejaVuSans-Oblique-39" d="M 1319 0 
L 500 4666 
L 1119 4666 
L 1797 653 
L 4063 4666 
L 4750 4666 
L 2053 0 
L 1319 0 
z
" transform="scale(0.015625)"/>
      <path id="DejaVuSans-Oblique-5a" d="M 544 3500 
L 1113 3500 
L 1259 684 
L 2566 3500 
L 3231 3500 
L 3425 684 
L 4666 3500 
L 5241 3500 
L 3641 0 
L 2969 0 
L 2797 2900 
L 1459 0 
L 781 0 
L 544 3500 
z
" transform="scale(0.015625)"/>
     </defs>
     <use xlink:href="#ArialUnicodeMS-22cb" transform="translate(0 0.59375)"/>
     <use xlink:href="#ArialUnicodeMS-248c" transform="translate(100 0.59375)"/>
     <use xlink:href="#ArialUnicodeMS-37ff" transform="translate(200 0.59375)"/>
     <use xlink:href="#ArialUnicodeMS-3" transform="translate(300 0.59375)"/>
     <use xlink:href="#DejaVuSans-Oblique-39" transform="translate(327.783203 0.59375)"/>
     <use xlink:href="#DejaVuSans-Oblique-5a" transform="translate(396.191406 -14.406201) scale(0.7)"/>
    </g>
   </g>
   <g id="patch_8">
    <path d="M 351.917434 200.482169 
Q 378.477674 200.482169 403.360863 200.482169 
" style="fill: none; stroke: #6e7b86; stroke-width: 1.5; stroke-linecap: round"/>
    <path d="M 398.560863 198.082169 
L 403.360863 200.482169 
L 398.560863 202.882169 
" style="fill: none; stroke: #6e7b86; stroke-width: 1.5; stroke-linecap: round"/>
   </g>
   <g id="text_7">
    <!-- 未来代价 -->
    <g style="fill: #192b35" transform="translate(414.179726 204.624142) scale(0.13 -0.13)">
     <defs>
      <path id="ArialUnicodeMS-39b9" d="M 6069 556 
L 5778 153 
Q 4128 931 3513 2456 
L 3513 -428 
L 3028 -416 
L 3028 2406 
Q 2241 1053 738 172 
L 416 569 
Q 1828 1384 2491 2491 
L 775 2491 
L 775 2956 
L 3003 2956 
L 3003 3938 
L 1191 3938 
L 1191 4403 
L 3003 4403 
L 3003 5363 
L 3513 5363 
L 3513 4403 
L 5306 4403 
L 5306 3938 
L 3513 3938 
L 3513 2956 
L 5747 2956 
L 5747 2491 
L 3988 2491 
Q 4616 1263 6069 556 
z
" transform="scale(0.015625)"/>
      <path id="ArialUnicodeMS-39f4" d="M 6088 366 
L 5772 -19 
Q 4219 581 3419 2222 
L 3419 -366 
L 2931 -366 
L 2931 2234 
Q 2334 678 641 6 
L 313 372 
Q 1234 781 1693 1197 
Q 2153 1613 2438 2194 
L 481 2194 
L 481 2663 
L 2919 2663 
L 2919 4128 
L 722 4128 
L 722 4594 
L 2919 4594 
L 2919 5313 
L 3419 5313 
L 3419 4594 
L 5678 4594 
L 5678 4128 
L 3419 4128 
L 3419 2663 
L 5913 2663 
L 5913 2194 
L 3944 2194 
Q 4216 1644 4828 1125 
Q 5441 606 6088 366 
z
M 2534 3003 
L 2119 2725 
Q 1784 3472 1222 3822 
L 1606 4078 
Q 2294 3628 2534 3003 
z
M 5159 3816 
Q 4753 3069 4238 2725 
L 3834 3009 
Q 4353 3366 4769 4038 
L 5159 3816 
z
" transform="scale(0.015625)"/>
      <path id="ArialUnicodeMS-2172" d="M 2438 5119 
Q 2325 4741 2097 4194 
L 1869 3653 
L 1869 -434 
L 1381 -434 
L 1381 2919 
Q 1200 2553 697 2041 
L 294 2344 
Q 1381 3447 1991 5313 
L 2438 5119 
z
M 6125 991 
Q 6100 781 5947 298 
Q 5794 -184 5656 -281 
Q 5519 -378 5356 -378 
Q 5100 -378 4628 -26 
Q 4156 325 3812 1044 
Q 3469 1763 3347 2753 
L 2241 2656 
L 2181 3138 
L 3291 3231 
Q 3178 4506 3188 5300 
L 3700 5300 
Q 3728 3881 3816 3278 
Q 4725 3344 5759 3450 
L 5813 2975 
L 3872 2797 
Q 4034 1797 4451 987 
Q 4869 178 5331 178 
Q 5497 178 5650 1209 
L 6125 991 
z
M 5509 4019 
L 5113 3694 
Q 4566 4472 4078 4769 
L 4434 5088 
Q 4978 4763 5509 4019 
z
" transform="scale(0.015625)"/>
      <path id="ArialUnicodeMS-2186" d="M 6284 2975 
L 5900 2572 
Q 4847 3084 3928 4519 
Q 3178 3188 2041 2584 
L 1697 2981 
Q 3113 3628 3859 5422 
L 4281 5184 
L 4206 4997 
Q 5038 3547 6284 2975 
z
M 2241 5172 
Q 2156 4775 1913 4147 
L 1672 3531 
L 1672 -428 
L 1184 -428 
L 1184 2663 
Q 1113 2534 659 2041 
L 213 2322 
Q 1372 3522 1784 5344 
L 2241 5172 
z
M 4984 -409 
L 4500 -409 
L 4500 3116 
L 4984 3116 
L 4984 -409 
z
M 3397 1791 
Q 3397 1034 3097 531 
Q 2797 28 2059 -475 
L 1697 -72 
Q 2209 191 2561 647 
Q 2913 1103 2913 1528 
L 2913 3116 
L 3397 3116 
L 3397 1791 
z
" transform="scale(0.015625)"/>
     </defs>
     <use xlink:href="#ArialUnicodeMS-39b9"/>
     <use xlink:href="#ArialUnicodeMS-39f4" transform="translate(100 0)"/>
     <use xlink:href="#ArialUnicodeMS-2172" transform="translate(200 0)"/>
     <use xlink:href="#ArialUnicodeMS-2186" transform="translate(300 0)"/>
    </g>
   </g>
   <g id="text_8">
    <!-- 参数依据：轨迹累计代价 / Bellman 目标 -->
    <g style="fill: #536b76" transform="translate(164.279894 255.224505) scale(0.12 -0.12)">
     <defs>
      <path id="ArialUnicodeMS-61f7" d="M 6016 978 
Q 6009 734 5907 337 
Q 5806 -59 5676 -153 
Q 5547 -247 5272 -247 
Q 4975 -247 4859 -108 
Q 4744 31 4744 300 
L 4744 1528 
L 4800 3334 
L 4256 3334 
Q 4256 1881 3976 1073 
Q 3697 266 2925 -500 
L 2528 -153 
Q 3375 659 3581 1451 
Q 3788 2244 3788 3334 
L 3028 3334 
L 3028 3803 
L 3794 3803 
L 3794 5300 
L 4250 5300 
L 4250 3803 
L 5319 3803 
L 5228 2272 
L 5228 428 
Q 5228 356 5234 309 
Q 5241 263 5256 245 
Q 5272 228 5375 228 
Q 5450 228 5472 233 
Q 5494 238 5531 533 
Q 5569 828 5575 1147 
L 6016 978 
z
M 3303 1319 
L 2278 997 
L 2278 -469 
L 1791 -469 
L 1791 850 
L 684 525 
L 428 978 
Q 941 1094 1791 1338 
L 1791 2150 
L 653 2150 
L 653 2619 
Q 1063 3325 1216 3950 
L 441 3950 
L 441 4416 
L 1306 4416 
Q 1366 4634 1434 5275 
L 1894 5141 
Q 1881 4822 1797 4416 
L 3303 4416 
L 3303 3950 
L 1709 3950 
Q 1531 3253 1178 2638 
L 1791 2638 
L 1791 3578 
L 2278 3578 
L 2278 2638 
L 3194 2638 
L 3194 2150 
L 2278 2150 
L 2278 1491 
L 3303 1791 
L 3303 1319 
z
" transform="scale(0.015625)"/>
      <path id="ArialUnicodeMS-6288" d="M 5778 4050 
L 4703 4050 
L 4703 966 
Q 4703 475 4306 475 
L 3688 475 
L 3506 947 
Q 3769 934 4072 934 
Q 4219 934 4219 1119 
L 4219 4050 
L 3744 4050 
L 3744 2553 
Q 3744 2013 3595 1658 
Q 3447 1303 3201 990 
Q 2956 678 2591 441 
L 2194 738 
Q 3256 1475 3256 2669 
L 3256 4050 
L 2100 4050 
L 2100 4519 
L 3700 4519 
L 3700 5319 
L 4191 5319 
L 4191 4519 
L 5778 4519 
L 5778 4050 
z
M 1784 4422 
L 1422 4147 
Q 1191 4559 575 4922 
L 909 5203 
Q 1422 4953 1784 4422 
z
M 1672 3144 
L 1313 2853 
Q 1056 3341 434 3641 
L 769 3922 
Q 1300 3750 1672 3144 
z
M 5978 1984 
L 5538 1778 
Q 5313 2628 4781 3169 
L 5197 3372 
Q 5678 2891 5978 1984 
z
M 3022 3200 
Q 2934 2422 2431 1741 
L 1978 1953 
Q 2534 2616 2591 3359 
L 3022 3200 
z
M 6175 366 
L 5972 -172 
L 2938 -172 
Q 1878 -56 1422 506 
L 622 -300 
L 231 84 
Q 700 416 1178 941 
L 1178 2075 
L 409 2075 
L 409 2541 
L 1663 2541 
L 1663 959 
Q 1856 650 2234 472 
Q 2613 294 3003 294 
Q 3609 294 6175 366 
z
" transform="scale(0.015625)"/>
      <path id="ArialUnicodeMS-4fbe" d="M 5997 1025 
L 5581 691 
Q 5316 1013 5197 1119 
L 3431 1056 
L 3431 -403 
L 2944 -403 
L 2944 1063 
L 781 1006 
L 616 1472 
L 1759 1472 
L 2131 1672 
Q 1350 2422 997 2625 
L 1416 2925 
L 1819 2619 
Q 2541 3038 2572 3059 
L 1031 3059 
L 1031 5172 
L 5369 5172 
L 5369 3059 
L 3116 3059 
L 3256 2963 
Q 3006 2791 2163 2303 
Q 2316 2169 2559 1919 
Q 3859 2628 4409 3028 
L 4838 2706 
Q 3569 1909 2619 1484 
L 4750 1528 
L 4116 1900 
L 4513 2194 
Q 5428 1738 5997 1025 
z
M 4884 4341 
L 4884 4703 
L 3450 4703 
L 3450 4341 
L 4884 4341 
z
M 2969 4703 
L 1516 4703 
L 1516 4341 
L 2963 4341 
L 2969 4703 
z
M 4884 3525 
L 4884 3897 
L 3450 3897 
L 3450 3525 
L 4884 3525 
z
M 2969 3525 
L 2969 3897 
L 1516 3897 
L 1516 3525 
L 2969 3525 
z
M 6034 244 
L 5778 -159 
Q 4997 381 3794 588 
L 4078 984 
Q 5275 753 6034 244 
z
M 2650 622 
Q 1806 31 678 -122 
L 325 306 
Q 1581 431 2322 947 
L 2650 622 
z
" transform="scale(0.015625)"/>
      <path id="ArialUnicodeMS-5e30" d="M 2075 4422 
L 1672 4116 
Q 1431 4616 856 5081 
L 1203 5375 
Q 1741 5006 2075 4422 
z
M 5997 2956 
L 4506 2956 
L 4506 -422 
L 4019 -422 
L 4019 2956 
L 2528 2956 
L 2528 3425 
L 4019 3425 
L 4019 5325 
L 4506 5325 
L 4506 3425 
L 5997 3425 
L 5997 2956 
z
M 2853 384 
L 1600 -306 
L 1313 103 
Q 1409 203 1409 372 
L 1409 3116 
L 475 3116 
L 475 3584 
L 1894 3584 
L 1894 391 
L 2853 916 
L 2853 384 
z
" transform="scale(0.015625)"/>
      <path id="ArialUnicodeMS-12" d="M 1778 4581 
L 453 -153 
L 0 -153 
L 1325 4581 
L 1778 4581 
z
" transform="scale(0.015625)"/>
      <path id="ArialUnicodeMS-25" d="M 3078 2438 
Q 3509 2306 3723 2011 
Q 3938 1716 3938 1331 
Q 3938 947 3744 625 
Q 3550 303 3194 151 
Q 2838 0 2228 0 
L 475 0 
L 475 4581 
L 2194 4581 
Q 3028 4581 3370 4218 
Q 3713 3856 3713 3413 
Q 3713 3113 3555 2858 
Q 3397 2603 3078 2438 
z
M 1081 2663 
L 2075 2663 
Q 2381 2663 2589 2697 
Q 2797 2731 2956 2878 
Q 3116 3025 3116 3334 
Q 3116 3659 2955 3814 
Q 2794 3969 2570 4003 
Q 2347 4038 1997 4038 
L 1081 4038 
L 1081 2663 
z
M 1081 544 
L 2222 544 
Q 2834 544 3071 753 
Q 3309 963 3309 1331 
Q 3309 1703 3056 1911 
Q 2803 2119 2144 2119 
L 1081 2119 
L 1081 544 
z
" transform="scale(0.015625)"/>
      <path id="ArialUnicodeMS-48" d="M 3309 1516 
L 825 1516 
Q 859 966 1139 675 
Q 1419 384 1838 384 
Q 2159 384 2378 554 
Q 2597 725 2713 1069 
L 3291 997 
Q 3150 478 2775 200 
Q 2400 -78 1838 -78 
Q 1091 -78 670 380 
Q 250 838 250 1631 
Q 250 2416 658 2903 
Q 1066 3391 1806 3391 
Q 2169 3391 2505 3231 
Q 2841 3072 3075 2689 
Q 3309 2306 3309 1516 
z
M 2731 1978 
Q 2697 2484 2417 2707 
Q 2138 2931 1806 2931 
Q 1409 2931 1153 2665 
Q 897 2400 856 1978 
L 2731 1978 
z
" transform="scale(0.015625)"/>
      <path id="ArialUnicodeMS-4f" d="M 991 0 
L 428 0 
L 428 4581 
L 991 4581 
L 991 0 
z
" transform="scale(0.015625)"/>
      <path id="ArialUnicodeMS-50" d="M 4922 0 
L 4359 0 
L 4359 2094 
Q 4359 2325 4328 2489 
Q 4297 2653 4167 2779 
Q 4038 2906 3763 2906 
Q 3431 2906 3190 2675 
Q 2950 2444 2950 1925 
L 2950 0 
L 2388 0 
L 2388 2156 
Q 2388 2588 2236 2747 
Q 2084 2906 1806 2906 
Q 1444 2906 1211 2656 
Q 978 2406 978 1722 
L 978 0 
L 416 0 
L 416 3316 
L 922 3316 
L 922 2853 
L 934 2853 
Q 1272 3391 1925 3391 
Q 2291 3391 2527 3245 
Q 2763 3100 2869 2809 
Q 3238 3391 3891 3391 
Q 4406 3391 4664 3112 
Q 4922 2834 4922 2278 
L 4922 0 
z
" transform="scale(0.015625)"/>
      <path id="ArialUnicodeMS-44" d="M 3303 0 
L 2713 0 
Q 2631 156 2597 409 
Q 2031 -78 1375 -78 
Q 850 -78 547 184 
Q 244 447 244 878 
Q 244 1291 536 1558 
Q 828 1825 1550 1913 
L 2075 1991 
Q 2369 2038 2559 2106 
Q 2559 2359 2543 2464 
Q 2528 2569 2451 2681 
Q 2375 2794 2206 2862 
Q 2038 2931 1753 2931 
Q 1391 2931 1180 2797 
Q 969 2663 891 2297 
L 341 2369 
Q 431 2878 806 3134 
Q 1181 3391 1838 3391 
Q 2434 3391 2714 3214 
Q 2994 3038 3058 2788 
Q 3122 2538 3122 2144 
L 3122 1388 
Q 3122 697 3148 461 
Q 3175 225 3303 0 
z
M 2559 1459 
L 2559 1663 
Q 2119 1516 1481 1430 
Q 844 1344 844 891 
Q 844 663 1016 514 
Q 1188 366 1509 366 
Q 1925 366 2242 614 
Q 2559 863 2559 1459 
z
" transform="scale(0.015625)"/>
      <path id="ArialUnicodeMS-51" d="M 3138 0 
L 2572 0 
L 2572 2016 
Q 2572 2525 2389 2715 
Q 2206 2906 1881 2906 
Q 1631 2906 1407 2784 
Q 1184 2663 1090 2441 
Q 997 2219 997 1813 
L 997 0 
L 434 0 
L 434 3316 
L 941 3316 
L 941 2847 
L 953 2847 
Q 1131 3119 1392 3255 
Q 1653 3391 1997 3391 
Q 2259 3391 2515 3297 
Q 2772 3203 2917 3015 
Q 3063 2828 3100 2615 
Q 3138 2403 3138 2041 
L 3138 0 
z
" transform="scale(0.015625)"/>
      <path id="ArialUnicodeMS-497d" d="M 4909 -269 
L 4403 -269 
L 4403 288 
L 1825 288 
L 1825 -269 
L 1319 -269 
L 1319 4934 
L 4909 4934 
L 4909 -269 
z
M 4403 3609 
L 4403 4469 
L 1825 4469 
L 1825 3609 
L 4403 3609 
z
M 4403 2228 
L 4403 3144 
L 1825 3144 
L 1825 2228 
L 4403 2228 
z
M 4403 775 
L 4403 1759 
L 1825 1759 
L 1825 775 
L 4403 775 
z
" transform="scale(0.015625)"/>
      <path id="ArialUnicodeMS-3a96" d="M 2597 2169 
L 2175 1931 
Q 2006 2331 1703 2772 
L 1691 2772 
L 1691 -353 
L 1203 -353 
L 1203 2253 
L 1191 2253 
Q 1022 1659 494 1106 
L 134 1453 
Q 966 2294 1172 3653 
L 372 3653 
L 372 4122 
L 1203 4122 
L 1203 5331 
L 1691 5331 
L 1691 4122 
L 2419 4122 
L 2419 3653 
L 1691 3653 
L 1691 3091 
L 1875 3206 
Q 2334 2725 2597 2169 
z
M 5569 4384 
L 2669 4384 
L 2669 4825 
L 5569 4825 
L 5569 4384 
z
M 5863 2931 
L 4353 2931 
L 4353 422 
Q 4353 78 4300 -64 
Q 4247 -206 4150 -261 
Q 4053 -316 3397 -378 
L 3219 116 
L 3756 91 
Q 3866 91 3866 281 
L 3866 2931 
L 2388 2931 
L 2388 3372 
L 5863 3372 
L 5863 2931 
z
M 6016 728 
L 5556 481 
Q 5247 1438 4531 2309 
L 4909 2547 
Q 5678 1606 6016 728 
z
M 3494 2316 
Q 3028 1181 2222 459 
L 1825 781 
Q 2694 1544 3097 2528 
L 3494 2316 
z
" transform="scale(0.015625)"/>
     </defs>
     <use xlink:href="#ArialUnicodeMS-2651"/>
     <use xlink:href="#ArialUnicodeMS-37ff" transform="translate(100 0)"/>
     <use xlink:href="#ArialUnicodeMS-222c" transform="translate(200 0)"/>
     <use xlink:href="#ArialUnicodeMS-35fd" transform="translate(300 0)"/>
     <use xlink:href="#ArialUnicodeMS-19f6" transform="translate(400 0)"/>
     <use xlink:href="#ArialUnicodeMS-61f7" transform="translate(500 0)"/>
     <use xlink:href="#ArialUnicodeMS-6288" transform="translate(600 0)"/>
     <use xlink:href="#ArialUnicodeMS-4fbe" transform="translate(700 0)"/>
     <use xlink:href="#ArialUnicodeMS-5e30" transform="translate(800 0)"/>
     <use xlink:href="#ArialUnicodeMS-2172" transform="translate(900 0)"/>
     <use xlink:href="#ArialUnicodeMS-2186" transform="translate(1000 0)"/>
     <use xlink:href="#ArialUnicodeMS-3" transform="translate(1100 0)"/>
     <use xlink:href="#ArialUnicodeMS-12" transform="translate(1127.78125 0)"/>
     <use xlink:href="#ArialUnicodeMS-3" transform="translate(1155.5625 0)"/>
     <use xlink:href="#ArialUnicodeMS-25" transform="translate(1183.34375 0)"/>
     <use xlink:href="#ArialUnicodeMS-48" transform="translate(1250.046875 0)"/>
     <use xlink:href="#ArialUnicodeMS-4f" transform="translate(1305.65625 0)"/>
     <use xlink:href="#ArialUnicodeMS-4f" transform="translate(1327.875 0)"/>
     <use xlink:href="#ArialUnicodeMS-50" transform="translate(1350.09375 0)"/>
     <use xlink:href="#ArialUnicodeMS-44" transform="translate(1433.390625 0)"/>
     <use xlink:href="#ArialUnicodeMS-51" transform="translate(1489 0)"/>
     <use xlink:href="#ArialUnicodeMS-3" transform="translate(1544.609375 0)"/>
     <use xlink:href="#ArialUnicodeMS-497d" transform="translate(1572.390625 0)"/>
     <use xlink:href="#ArialUnicodeMS-3a96" transform="translate(1672.390625 0)"/>
    </g>
   </g>
   <g id="text_9">
    <!-- 状态 -->
    <g style="fill: #192b35" transform="translate(10.769998 322.323732) scale(0.13 -0.13)">
     <use xlink:href="#ArialUnicodeMS-4545"/>
     <use xlink:href="#ArialUnicodeMS-3290" transform="translate(100 0)"/>
    </g>
   </g>
   <g id="patch_9">
    <path d="M 119.870205 318.33715 
Q 139.290495 318.33715 157.033735 318.33715 
" style="fill: none; stroke: #6e7b86; stroke-width: 1.5; stroke-linecap: round"/>
    <path d="M 152.233735 315.93715 
L 157.033735 318.33715 
L 152.233735 320.73715 
" style="fill: none; stroke: #6e7b86; stroke-width: 1.5; stroke-linecap: round"/>
   </g>
   <g id="text_10">
    <!-- 策略 $\pi_\theta$ -->
    <g style="fill: #775da6" transform="translate(230.149834 322.817423) scale(0.14 -0.14)">
     <defs>
      <path id="ArialUnicodeMS-4de5" d="M 6041 4331 
L 5081 4331 
Q 5322 3997 5381 3866 
L 4953 3647 
Q 4791 4059 4481 4331 
L 4025 4331 
Q 3856 4084 3572 3859 
L 3175 4159 
Q 3753 4559 4025 5403 
L 4494 5259 
Q 4438 5084 4294 4800 
L 6041 4800 
L 6041 4331 
z
M 3359 4331 
L 2419 4331 
L 2669 3859 
L 2247 3628 
Q 2088 4078 1894 4331 
L 1388 4331 
Q 1041 3875 744 3688 
L 341 4000 
Q 1072 4453 1453 5394 
L 1888 5234 
Q 1831 5038 1684 4800 
L 3359 4800 
L 3359 4331 
z
M 6125 341 
L 5863 -91 
Q 4291 303 3494 1216 
L 3494 -416 
L 2988 -416 
L 2988 1222 
Q 2141 334 588 -116 
L 294 313 
Q 2072 744 2975 1906 
L 2975 2203 
L 1638 2203 
L 1638 1159 
L 1153 1159 
L 1153 2669 
L 2975 2669 
L 2975 3066 
L 703 3066 
L 703 3531 
L 2975 3531 
L 2975 3891 
L 3494 3891 
L 3494 3531 
L 5791 3531 
L 5791 3066 
L 3494 3066 
L 3494 2669 
L 5275 2669 
L 5275 1672 
Q 5244 1459 5101 1336 
Q 4959 1213 4836 1202 
Q 4713 1191 4422 1191 
L 4281 1672 
Q 4513 1644 4622 1644 
Q 4788 1644 4788 1838 
L 4788 2203 
L 3494 2203 
L 3494 1900 
Q 4259 819 6125 341 
z
" transform="scale(0.015625)"/>
      <path id="ArialUnicodeMS-47f4" d="M 6156 2284 
L 5825 1913 
Q 5034 2238 4453 2759 
Q 3938 2281 3122 1906 
L 2853 2253 
L 2847 2253 
L 2847 306 
L 2369 306 
L 2369 800 
L 1184 800 
L 1184 306 
L 703 306 
L 703 4609 
L 2847 4609 
L 2847 2309 
Q 3663 2675 4128 3091 
Q 3891 3409 3738 3738 
Q 3494 3338 3231 3084 
L 2869 3359 
Q 3625 4147 3981 5369 
L 4403 5209 
Q 4328 4947 4219 4647 
L 5644 4647 
Q 5509 3869 4775 3078 
Q 5381 2566 6156 2284 
z
M 4991 4178 
L 4056 4178 
Q 4384 3491 4475 3419 
Q 4788 3731 4991 4178 
z
M 2369 2994 
L 2369 4141 
L 1991 4141 
L 1991 2994 
L 2369 2994 
z
M 1550 2994 
L 1550 4141 
L 1184 4141 
L 1184 2994 
L 1550 2994 
z
M 2369 1269 
L 2369 2528 
L 1991 2528 
L 1991 1269 
L 2369 1269 
z
M 1550 1269 
L 1550 2528 
L 1184 2528 
L 1184 1269 
L 1550 1269 
z
M 5484 -422 
L 5006 -422 
L 5006 -13 
L 3909 -13 
L 3909 -422 
L 3431 -422 
L 3431 2016 
L 5484 2016 
L 5484 -422 
z
M 5006 453 
L 5006 1550 
L 3909 1550 
L 3909 453 
L 5006 453 
z
" transform="scale(0.015625)"/>
      <path id="DejaVuSans-Oblique-354" d="M 584 3500 
L 3938 3500 
L 3825 2925 
L 3384 2925 
L 2966 775 
Q 2922 550 2981 450 
Q 3038 353 3209 353 
Q 3256 353 3325 363 
Q 3397 369 3419 372 
L 3338 -44 
Q 3222 -84 3103 -103 
Q 2981 -122 2866 -122 
Q 2491 -122 2388 81 
Q 2284 288 2391 838 
L 2797 2925 
L 1506 2925 
L 938 0 
L 350 0 
L 919 2925 
L 472 2925 
L 584 3500 
z
" transform="scale(0.015625)"/>
      <path id="DejaVuSans-Oblique-34c" d="M 2913 2219 
L 925 2219 
Q 791 1284 928 888 
Q 1100 400 1566 400 
Q 2034 400 2391 891 
Q 2703 1322 2913 2219 
z
M 3009 2750 
Q 3094 3638 2984 3950 
Q 2813 4444 2353 4444 
Q 1875 4444 1525 3956 
Q 1250 3563 1034 2750 
L 3009 2750 
z
M 2444 4913 
Q 3194 4913 3494 4250 
Q 3794 3591 3566 2422 
Q 3341 1256 2781 594 
Q 2225 -72 1475 -72 
Q 722 -72 425 594 
Q 128 1256 353 2422 
Q 581 3591 1134 4250 
Q 1691 4913 2444 4913 
z
" transform="scale(0.015625)"/>
     </defs>
     <use xlink:href="#ArialUnicodeMS-4de5" transform="translate(0 0.578125)"/>
     <use xlink:href="#ArialUnicodeMS-47f4" transform="translate(100 0.578125)"/>
     <use xlink:href="#ArialUnicodeMS-3" transform="translate(200 0.578125)"/>
     <use xlink:href="#DejaVuSans-Oblique-354" transform="translate(227.783203 0.578125)"/>
     <use xlink:href="#DejaVuSans-Oblique-34c" transform="translate(287.988281 -14.421826) scale(0.7)"/>
    </g>
   </g>
   <g id="patch_10">
    <path d="M 351.917434 318.33715 
Q 378.477674 318.33715 403.360863 318.33715 
" style="fill: none; stroke: #6e7b86; stroke-width: 1.5; stroke-linecap: round"/>
    <path d="M 398.560863 315.93715 
L 403.360863 318.33715 
L 398.560863 320.73715 
" style="fill: none; stroke: #6e7b86; stroke-width: 1.5; stroke-linecap: round"/>
   </g>
   <g id="text_11">
    <!-- 控制输入 -->
    <g style="fill: #192b35" transform="translate(414.179726 322.473029) scale(0.13 -0.13)">
     <defs>
      <path id="ArialUnicodeMS-3636" d="M 2369 2322 
L 1741 2022 
L 1741 141 
Q 1741 -84 1584 -250 
Q 1428 -416 1178 -416 
L 684 -416 
L 488 116 
Q 794 78 934 78 
Q 1122 78 1187 112 
Q 1253 147 1253 244 
L 1253 1753 
L 538 1381 
L 231 1838 
L 1253 2291 
L 1253 3616 
L 434 3616 
L 434 4084 
L 1253 4084 
L 1253 5300 
L 1741 5300 
L 1741 4084 
L 2297 4084 
L 2297 3616 
L 1741 3616 
L 1741 2522 
L 2369 2816 
L 2369 2322 
z
M 5978 2969 
Q 5856 2463 5453 2463 
L 4813 2463 
Q 4366 2463 4366 2938 
L 4366 3834 
L 4844 3834 
L 4844 3084 
Q 4844 2931 5013 2931 
L 5325 2931 
Q 5481 2931 5522 3213 
L 5300 3213 
L 5300 4084 
L 2913 4084 
L 2913 3194 
L 2425 3194 
L 2425 4550 
L 3841 4550 
L 3841 5259 
L 4325 5259 
L 4325 4550 
L 5784 4550 
L 5784 3213 
L 5544 3213 
L 5978 2969 
z
M 3841 3725 
Q 3656 2744 2809 2259 
L 2438 2591 
Q 3313 3100 3397 3878 
L 3841 3725 
z
M 6047 -122 
L 2125 -122 
L 2125 347 
L 3847 347 
L 3847 1638 
L 2484 1638 
L 2484 2106 
L 5672 2106 
L 5672 1638 
L 4331 1638 
L 4331 347 
L 6047 347 
L 6047 -122 
z
" transform="scale(0.015625)"/>
      <path id="ArialUnicodeMS-24c5" d="M 4184 2766 
L 2638 2766 
L 2638 2203 
L 3988 2203 
L 3988 775 
Q 3959 578 3812 459 
Q 3666 341 3477 333 
Q 3288 325 3003 325 
L 2841 806 
L 3366 781 
Q 3500 819 3500 891 
L 3500 1734 
L 2638 1734 
L 2638 -434 
L 2150 -434 
L 2150 1734 
L 1344 1734 
L 1344 263 
L 856 263 
L 856 2203 
L 2150 2203 
L 2150 2766 
L 494 2766 
L 494 3231 
L 2150 3231 
L 2150 3897 
L 1428 3897 
Q 1163 3428 1044 3309 
L 603 3531 
Q 1059 4038 1319 5050 
L 1741 4884 
Q 1722 4716 1606 4341 
L 2150 4341 
L 2150 5350 
L 2638 5350 
L 2638 4341 
L 3841 4341 
L 3841 3897 
L 2638 3897 
L 2638 3231 
L 4184 3231 
L 4184 2766 
z
M 5850 213 
Q 5850 -81 5719 -234 
Q 5588 -388 5228 -397 
L 4653 -409 
L 4488 84 
Q 4997 38 5106 38 
Q 5363 38 5363 231 
L 5363 5306 
L 5850 5306 
L 5850 213 
z
M 4863 909 
L 4378 909 
L 4378 4513 
L 4863 4513 
L 4863 909 
z
" transform="scale(0.015625)"/>
     </defs>
     <use xlink:href="#ArialUnicodeMS-3636"/>
     <use xlink:href="#ArialUnicodeMS-24c5" transform="translate(100 0)"/>
     <use xlink:href="#ArialUnicodeMS-6222" transform="translate(200 0)"/>
     <use xlink:href="#ArialUnicodeMS-23f4" transform="translate(300 0)"/>
    </g>
   </g>
   <g id="text_12">
    <!-- 参数依据：专家动作 / 闭环性能目标 -->
    <g style="fill: #536b76" transform="translate(164.279894 373.079486) scale(0.12 -0.12)">
     <defs>
      <path id="ArialUnicodeMS-20a2" d="M 5894 2950 
L 2753 2950 
Q 2481 2363 2406 2253 
L 5044 2253 
L 5044 1825 
L 3872 616 
Q 4313 353 4744 -50 
L 4428 -434 
L 3925 -22 
Q 3659 194 3336 372 
Q 3013 550 2663 692 
Q 2313 834 1863 984 
L 2175 1363 
Q 3047 1056 3419 863 
L 4306 1784 
L 1791 1784 
L 1791 2222 
Q 2091 2581 2234 2950 
L 469 2950 
L 469 3419 
L 2425 3419 
Q 2569 3853 2606 4038 
L 825 4038 
L 825 4506 
L 2681 4506 
Q 2741 4831 2778 5300 
L 3250 5172 
Q 3244 4863 3175 4506 
L 5281 4506 
L 5281 4038 
L 3091 4038 
Q 3000 3619 2944 3419 
L 5894 3419 
L 5894 2950 
z
" transform="scale(0.015625)"/>
      <path id="ArialUnicodeMS-2e45" d="M 5722 3525 
L 5247 3525 
L 5247 4225 
L 1159 4225 
L 1159 3525 
L 678 3525 
L 678 4691 
L 2950 4691 
L 2950 5269 
L 3450 5269 
L 3450 4691 
L 5722 4691 
L 5722 3525 
z
M 6144 378 
L 5784 6 
Q 4088 975 3616 3200 
L 3500 3200 
Q 3191 2934 2988 2828 
Q 3806 2209 3806 944 
Q 3806 209 3576 -103 
Q 3347 -416 2919 -416 
Q 2616 -416 2303 -319 
L 2125 250 
Q 2569 81 2916 81 
Q 3309 81 3309 878 
Q 3309 997 3297 1094 
Q 2309 328 666 -38 
L 353 403 
Q 2072 675 3225 1631 
Q 3181 1828 3097 1972 
Q 2153 1313 788 1038 
L 481 1459 
Q 1988 1700 2847 2344 
Q 2766 2434 2566 2578 
Q 1853 2222 934 2047 
L 603 2472 
Q 1922 2669 2725 3200 
L 1300 3200 
L 1300 3669 
L 5113 3669 
L 5113 3200 
L 4128 3200 
Q 4259 2597 4409 2291 
Q 4859 2538 5241 3022 
L 5606 2663 
Q 5200 2203 4616 1863 
Q 5138 972 6144 378 
z
" transform="scale(0.015625)"/>
      <path id="ArialUnicodeMS-21eb" d="M 6106 3706 
L 3781 3706 
L 3781 2956 
L 5850 2956 
L 5850 2491 
L 3781 2491 
L 3781 1703 
L 5972 1703 
L 5984 1234 
L 3781 1234 
L 3781 -428 
L 3297 -428 
L 3297 3706 
Q 3041 2972 2316 2278 
L 1875 2516 
Q 2978 3916 3213 5422 
L 3694 5247 
Q 3628 4800 3391 4172 
L 6106 4172 
L 6106 3706 
z
M 2309 5125 
Q 2238 4878 2041 4366 
L 1844 3872 
L 1844 -428 
L 1356 -428 
L 1356 3034 
Q 1063 2494 684 2088 
L 238 2344 
Q 1313 3516 1875 5325 
L 2309 5125 
z
" transform="scale(0.015625)"/>
      <path id="ArialUnicodeMS-687c" d="M 2534 4275 
L 2119 3988 
Q 1769 4619 1247 4959 
L 1581 5247 
Q 2188 4803 2534 4275 
z
M 5503 213 
Q 5503 34 5340 -142 
Q 5178 -319 4447 -306 
L 4300 178 
L 4838 141 
Q 5019 128 5019 325 
L 5019 4353 
L 2663 4353 
L 2663 4819 
L 5503 4819 
L 5503 213 
z
M 1131 -359 
L 678 -359 
L 678 4475 
L 1131 4475 
L 1131 -359 
z
M 4838 2913 
L 3744 2913 
L 3744 756 
Q 3744 550 3633 419 
Q 3522 288 3359 288 
L 2694 288 
L 2534 769 
L 3122 716 
Q 3184 713 3220 753 
Q 3256 794 3256 819 
L 3256 2700 
L 3244 2700 
Q 2825 1569 1556 750 
L 1209 1106 
Q 2469 1822 2894 2913 
L 1350 2913 
L 1350 3378 
L 3256 3378 
L 3256 4219 
L 3744 4219 
L 3744 3378 
L 4838 3378 
L 4838 2913 
z
" transform="scale(0.015625)"/>
      <path id="ArialUnicodeMS-463e" d="M 5881 4544 
L 4275 4544 
Q 4159 3716 3956 3156 
L 4256 3156 
L 4256 -366 
L 3769 -366 
L 3769 2625 
L 3750 2625 
Q 3441 1775 2503 1006 
L 2284 1281 
Q 2078 1228 588 531 
L 244 928 
Q 509 1025 1113 1288 
L 1113 2694 
L 453 2694 
L 453 3156 
L 1113 3156 
L 1113 4250 
L 409 4250 
L 409 4709 
L 2284 4709 
L 2284 4250 
L 1600 4250 
L 1600 3156 
L 2175 3156 
L 2175 2694 
L 1600 2694 
L 1600 1472 
L 2284 1797 
L 2284 1516 
Q 3484 2434 3781 4544 
L 2419 4544 
L 2419 5006 
L 5881 5006 
L 5881 4544 
z
M 6088 1416 
L 5672 1100 
Q 5166 2288 4313 2869 
L 4684 3163 
Q 5638 2506 6088 1416 
z
" transform="scale(0.015625)"/>
      <path id="ArialUnicodeMS-32b6" d="M 6088 6 
L 2322 6 
L 2322 475 
L 3928 475 
L 3928 1778 
L 2669 1778 
L 2669 2247 
L 3928 2247 
L 3928 3463 
L 3169 3463 
Q 2978 2881 2606 2375 
L 2113 2597 
Q 2363 2838 2438 3003 
L 2203 2900 
Q 2078 3494 1766 3866 
L 1766 -434 
L 1281 -434 
L 1281 5281 
L 1766 5281 
L 1766 3928 
L 2138 4128 
Q 2413 3813 2597 3347 
Q 2844 3763 2894 4775 
L 3378 4647 
Q 3363 4338 3291 3928 
L 3928 3928 
L 3928 5294 
L 4416 5294 
L 4416 3928 
L 5759 3928 
L 5759 3463 
L 4416 3463 
L 4416 2247 
L 5569 2247 
L 5569 1778 
L 4416 1778 
L 4416 475 
L 6088 475 
L 6088 6 
z
M 1241 3897 
Q 1175 2956 763 2344 
L 347 2528 
Q 819 3406 819 4025 
L 1241 3897 
z
" transform="scale(0.015625)"/>
      <path id="ArialUnicodeMS-538c" d="M 3419 3494 
L 3003 3231 
L 2809 3591 
L 531 3469 
L 403 3963 
L 844 3975 
Q 1316 4656 1644 5403 
L 2131 5191 
Q 1716 4381 1409 3975 
L 2541 4019 
Q 2359 4294 2144 4500 
L 2572 4738 
Q 3122 4225 3419 3494 
z
M 5978 3675 
Q 5825 2528 5294 2528 
L 4122 2528 
Q 3800 2563 3676 2722 
Q 3553 2881 3553 3009 
L 3553 5222 
L 4038 5222 
L 4038 4197 
Q 4997 4469 5556 4909 
L 5850 4544 
Q 5219 4009 4038 3719 
L 4038 3175 
Q 4066 2994 4366 2994 
L 5209 2994 
Q 5431 2994 5509 3853 
L 5978 3675 
z
M 3059 250 
Q 3059 28 2954 -105 
Q 2850 -238 2701 -277 
Q 2553 -316 1972 -306 
L 1791 184 
Q 2147 147 2297 147 
Q 2572 147 2572 319 
L 2572 922 
L 1234 922 
L 1234 -353 
L 750 -353 
L 750 3091 
L 3059 3091 
L 3059 250 
z
M 2572 2241 
L 2572 2625 
L 1234 2625 
L 1234 2241 
L 2572 2241 
z
M 2572 1388 
L 2572 1772 
L 1234 1772 
L 1234 1388 
L 2572 1388 
z
M 6138 800 
Q 6019 134 5831 -73 
Q 5644 -281 5369 -281 
L 4166 -281 
Q 3859 -281 3718 -92 
Q 3578 97 3578 263 
L 3578 2309 
L 4063 2309 
L 4063 1422 
Q 4950 1625 5606 2113 
L 5941 1753 
Q 5169 1163 4063 941 
L 4063 347 
Q 4063 184 4281 184 
L 5319 184 
Q 5469 184 5544 362 
Q 5619 541 5663 1031 
L 6138 800 
z
" transform="scale(0.015625)"/>
     </defs>
     <use xlink:href="#ArialUnicodeMS-2651"/>
     <use xlink:href="#ArialUnicodeMS-37ff" transform="translate(100 0)"/>
     <use xlink:href="#ArialUnicodeMS-222c" transform="translate(200 0)"/>
     <use xlink:href="#ArialUnicodeMS-35fd" transform="translate(300 0)"/>
     <use xlink:href="#ArialUnicodeMS-19f6" transform="translate(400 0)"/>
     <use xlink:href="#ArialUnicodeMS-20a2" transform="translate(500 0)"/>
     <use xlink:href="#ArialUnicodeMS-2e45" transform="translate(600 0)"/>
     <use xlink:href="#ArialUnicodeMS-2537" transform="translate(700 0)"/>
     <use xlink:href="#ArialUnicodeMS-21eb" transform="translate(800 0)"/>
     <use xlink:href="#ArialUnicodeMS-3" transform="translate(900 0)"/>
     <use xlink:href="#ArialUnicodeMS-12" transform="translate(927.78125 0)"/>
     <use xlink:href="#ArialUnicodeMS-3" transform="translate(955.5625 0)"/>
     <use xlink:href="#ArialUnicodeMS-687c" transform="translate(983.34375 0)"/>
     <use xlink:href="#ArialUnicodeMS-463e" transform="translate(1083.34375 0)"/>
     <use xlink:href="#ArialUnicodeMS-32b6" transform="translate(1183.34375 0)"/>
     <use xlink:href="#ArialUnicodeMS-538c" transform="translate(1283.34375 0)"/>
     <use xlink:href="#ArialUnicodeMS-497d" transform="translate(1383.34375 0)"/>
     <use xlink:href="#ArialUnicodeMS-3a96" transform="translate(1483.34375 0)"/>
    </g>
   </g>
   <g id="text_13">
    <!-- 输入 -->
    <g style="fill: #6e7b86" transform="translate(10.769998 26.056797) scale(0.12 -0.12)">
     <use xlink:href="#ArialUnicodeMS-6222"/>
     <use xlink:href="#ArialUnicodeMS-23f4" transform="translate(100 0)"/>
    </g>
   </g>
   <g id="text_14">
    <!-- 带参数的函数 -->
    <g style="fill: #6e7b86" transform="translate(164.279894 26.056797) scale(0.12 -0.12)">
     <defs>
      <path id="ArialUnicodeMS-30b5" d="M 5844 4103 
L 4622 4103 
L 4622 3463 
L 4159 3463 
L 4159 4103 
L 3334 4103 
L 3334 3438 
L 2881 3438 
L 2881 4103 
L 2075 4103 
L 2075 3463 
L 1613 3463 
L 1613 4103 
L 416 4103 
L 416 4538 
L 1613 4538 
L 1613 5184 
L 2075 5184 
L 2075 4538 
L 2881 4538 
L 2881 5300 
L 3334 5300 
L 3334 4538 
L 4159 4538 
L 4159 5184 
L 4622 5184 
L 4622 4538 
L 5844 4538 
L 5844 4103 
z
M 5716 2041 
L 5253 2041 
L 5253 2900 
L 997 2900 
L 997 2041 
L 513 2041 
L 513 3334 
L 5716 3334 
L 5716 2041 
z
M 4897 609 
Q 4897 428 4745 292 
Q 4594 156 3872 184 
L 3744 647 
Q 4200 603 4325 603 
Q 4434 603 4434 678 
L 4434 1888 
L 3334 1888 
L 3334 -378 
L 2847 -372 
L 2847 1888 
L 1784 1888 
L 1784 103 
L 1325 103 
L 1325 2322 
L 2847 2322 
L 2847 2778 
L 3334 2778 
L 3334 2322 
L 4897 2322 
L 4897 609 
z
" transform="scale(0.015625)"/>
     </defs>
     <use xlink:href="#ArialUnicodeMS-30b5"/>
     <use xlink:href="#ArialUnicodeMS-2651" transform="translate(100 0)"/>
     <use xlink:href="#ArialUnicodeMS-37ff" transform="translate(200 0)"/>
     <use xlink:href="#ArialUnicodeMS-4913" transform="translate(300 0)"/>
     <use xlink:href="#ArialUnicodeMS-248c" transform="translate(400 0)"/>
     <use xlink:href="#ArialUnicodeMS-37ff" transform="translate(500 0)"/>
    </g>
   </g>
   <g id="text_15">
    <!-- 输出的含义 -->
    <g style="fill: #6e7b86" transform="translate(414.179726 26.056797) scale(0.12 -0.12)">
     <defs>
      <path id="ArialUnicodeMS-2489" d="M 5556 -416 
L 5050 -416 
L 5050 97 
L 1428 97 
L 1428 -416 
L 922 -416 
L 922 2113 
L 1428 2113 
L 1428 581 
L 2981 581 
L 2981 2591 
L 1075 2591 
L 1075 4738 
L 1581 4738 
L 1581 3059 
L 2981 3059 
L 2981 5363 
L 3513 5363 
L 3513 3059 
L 4934 3059 
L 4934 4738 
L 5441 4738 
L 5441 2591 
L 3513 2591 
L 3513 581 
L 5050 581 
L 5050 2094 
L 5556 2094 
L 5556 -416 
z
" transform="scale(0.015625)"/>
      <path id="ArialUnicodeMS-26ba" d="M 6181 3481 
L 5894 3016 
Q 5197 3216 4428 3700 
L 4428 3456 
L 1900 3456 
L 1900 3706 
Q 1278 3309 506 2988 
L 238 3456 
Q 941 3656 1781 4232 
Q 2622 4809 3116 5491 
L 3584 5259 
L 3488 5119 
Q 4572 3931 6181 3481 
z
M 4091 3928 
Q 3516 4338 3181 4763 
Q 2775 4319 2222 3928 
L 4091 3928 
z
M 5141 2638 
Q 4156 1803 2016 1600 
L 1797 2059 
Q 3313 2181 4256 2591 
L 1184 2591 
L 1184 3059 
L 5141 3059 
L 5141 2638 
z
M 5081 -416 
L 4575 -416 
L 4575 -38 
L 1806 -38 
L 1806 -416 
L 1300 -416 
L 1300 1588 
L 5081 1588 
L 5081 -416 
z
M 4575 428 
L 4575 1119 
L 1806 1119 
L 1806 428 
L 4575 428 
z
" transform="scale(0.015625)"/>
      <path id="ArialUnicodeMS-20d8" d="M 3744 3816 
L 3303 3547 
Q 3100 4331 2484 5019 
L 2906 5234 
Q 3559 4513 3744 3816 
z
M 6113 -50 
L 5759 -453 
Q 4381 -16 3297 838 
Q 2244 -109 603 -447 
L 347 31 
Q 2003 328 2938 1184 
Q 1816 2369 1528 4588 
L 1991 4794 
Q 2206 3350 2512 2667 
Q 2819 1984 3284 1569 
Q 4269 2709 4525 4728 
L 4991 4550 
Q 4628 2284 3659 1216 
Q 4400 444 6113 -50 
z
" transform="scale(0.015625)"/>
     </defs>
     <use xlink:href="#ArialUnicodeMS-6222"/>
     <use xlink:href="#ArialUnicodeMS-2489" transform="translate(100 0)"/>
     <use xlink:href="#ArialUnicodeMS-4913" transform="translate(200 0)"/>
     <use xlink:href="#ArialUnicodeMS-26ba" transform="translate(300 0)"/>
     <use xlink:href="#ArialUnicodeMS-20d8" transform="translate(400 0)"/>
    </g>
   </g>
  </g>
 </g>
 <defs>
  <clipPath id="p1ec5c7f6a0">
   <rect x="7.2" y="7.2" width="713.99952" height="362.993342"/>
  </clipPath>
 </defs>
</svg>
