<?xml version="1.0" encoding="utf-8" standalone="no"?>
<!DOCTYPE svg PUBLIC "-//W3C//DTD SVG 1.1//EN"
  "http://www.w3.org/Graphics/SVG/1.1/DTD/svg11.dtd">
<svg xmlns:xlink="http://www.w3.org/1999/xlink" width="620.39952pt" height="310.79952pt" viewBox="0 0 620.39952 310.79952" xmlns="http://www.w3.org/2000/svg" version="1.1">
 <metadata>
  <rdf:RDF xmlns:dc="http://purl.org/dc/elements/1.1/" xmlns:cc="http://creativecommons.org/ns#" xmlns:rdf="http://www.w3.org/1999/02/22-rdf-syntax-ns#">
   <cc:Work>
    <dc:type rdf:resource="http://purl.org/dc/dcmitype/StillImage"/>
    <dc:date>2026-10-08T12:29:42.440245</dc:date>
    <dc:format>image/svg+xml</dc:format>
    <dc:creator>
     <cc:Agent>
      <dc:title>Matplotlib v3.11.1, https://matplotlib.org/</dc:title>
     </cc:Agent>
    </dc:creator>
   </cc:Work>
  </rdf:RDF>
 </metadata>
 <defs>
  <style type="text/css">*{stroke-linejoin: round; stroke-linecap: butt}</style>
 </defs>
 <g id="figure_1">
  <g id="patch_1">
   <path d="M 0 310.79952 
L 620.39952 310.79952 
L 620.39952 0 
L 0 0 
z
" style="fill: #ffffff"/>
  </g>
  <g id="axes_1">
   <g id="patch_2">
    <path d="M 54.15125 268.803661 
L 613.19952 268.803661 
L 613.19952 24.174844 
L 54.15125 24.174844 
z
" style="fill: #ffffff"/>
   </g>
   <g id="matplotlib.axis_1">
    <g id="xtick_1">
     <g id="line2d_1">
      <defs>
       <path id="m4417b80694" d="M 0 0 
L 0 3.5 
" style="stroke: #536b76; stroke-width: 0.8"/>
      </defs>
      <g>
       <use xlink:href="#m4417b80694" x="79.562535" y="268.803661" style="fill: #536b76; stroke: #536b76; stroke-width: 0.8"/>
      </g>
     </g>
     <g id="text_1">
      <!-- 6 -->
      <g style="fill: #536b76" transform="translate(76.225972 284.539989) scale(0.12 -0.12)">
       <defs>
        <path id="ArialUnicodeMS-19" d="M 838 2363 
Q 1225 2969 1941 2969 
Q 2503 2969 2897 2553 
Q 3291 2138 3291 1491 
Q 3291 838 2898 380 
Q 2506 -78 1856 -78 
Q 1197 -78 733 409 
Q 269 897 269 2144 
Q 269 3369 689 3986 
Q 1109 4603 1906 4603 
Q 2422 4603 2778 4315 
Q 3134 4028 3213 3463 
L 2650 3413 
Q 2497 4141 1875 4141 
Q 1444 4141 1134 3712 
Q 825 3284 825 2363 
L 838 2363 
z
M 1844 384 
Q 2231 384 2472 696 
Q 2713 1009 2713 1453 
Q 2713 1897 2472 2187 
Q 2231 2478 1825 2478 
Q 1453 2478 1184 2204 
Q 916 1931 916 1484 
Q 916 1028 1180 706 
Q 1444 384 1844 384 
z
" transform="scale(0.015625)"/>
       </defs>
       <use xlink:href="#ArialUnicodeMS-19"/>
      </g>
     </g>
    </g>
    <g id="xtick_2">
     <g id="line2d_2">
      <g>
       <use xlink:href="#m4417b80694" x="143.090747" y="268.803661" style="fill: #536b76; stroke: #536b76; stroke-width: 0.8"/>
      </g>
     </g>
     <g id="text_2">
      <!-- 7 -->
      <g style="fill: #536b76" transform="translate(139.754185 284.539989) scale(0.12 -0.12)">
       <defs>
        <path id="ArialUnicodeMS-1a" d="M 3272 4084 
Q 2597 3344 2103 2253 
Q 1609 1163 1522 0 
L 947 0 
Q 969 934 1408 2051 
Q 1847 3169 2547 3975 
L 306 3975 
L 306 4519 
L 3272 4519 
L 3272 4084 
z
" transform="scale(0.015625)"/>
       </defs>
       <use xlink:href="#ArialUnicodeMS-1a"/>
      </g>
     </g>
    </g>
    <g id="xtick_3">
     <g id="line2d_3">
      <g>
       <use xlink:href="#m4417b80694" x="206.61896" y="268.803661" style="fill: #536b76; stroke: #536b76; stroke-width: 0.8"/>
      </g>
     </g>
     <g id="text_3">
      <!-- 8 -->
      <g style="fill: #536b76" transform="translate(203.282397 284.539989) scale(0.12 -0.12)">
       <defs>
        <path id="ArialUnicodeMS-1b" d="M 2425 2478 
Q 3284 2203 3284 1306 
Q 3284 716 2862 319 
Q 2441 -78 1778 -78 
Q 1109 -78 689 322 
Q 269 722 269 1325 
Q 269 1759 505 2084 
Q 741 2409 1141 2478 
L 1141 2491 
Q 453 2703 453 3419 
Q 453 3925 815 4264 
Q 1178 4603 1766 4603 
Q 2363 4603 2730 4253 
Q 3097 3903 3097 3406 
Q 3097 2731 2425 2491 
L 2425 2478 
z
M 1778 2700 
Q 2094 2700 2308 2901 
Q 2522 3103 2522 3406 
Q 2522 3716 2305 3928 
Q 2088 4141 1772 4141 
Q 1450 4141 1240 3931 
Q 1031 3722 1031 3438 
Q 1031 3097 1247 2898 
Q 1463 2700 1778 2700 
z
M 1778 384 
Q 2175 384 2440 640 
Q 2706 897 2706 1306 
Q 2706 1716 2432 1978 
Q 2159 2241 1766 2241 
Q 1356 2241 1100 1970 
Q 844 1700 844 1319 
Q 844 922 1108 653 
Q 1372 384 1778 384 
z
" transform="scale(0.015625)"/>
       </defs>
       <use xlink:href="#ArialUnicodeMS-1b"/>
      </g>
     </g>
    </g>
    <g id="xtick_4">
     <g id="line2d_4">
      <g>
       <use xlink:href="#m4417b80694" x="270.147172" y="268.803661" style="fill: #536b76; stroke: #536b76; stroke-width: 0.8"/>
      </g>
     </g>
     <g id="text_4">
      <!-- 9 -->
      <g style="fill: #536b76" transform="translate(266.81061 284.539989) scale(0.12 -0.12)">
       <defs>
        <path id="ArialUnicodeMS-1c" d="M 2713 2156 
Q 2547 1888 2258 1722 
Q 1969 1556 1631 1556 
Q 1066 1556 670 1970 
Q 275 2384 275 3053 
Q 275 3734 678 4168 
Q 1081 4603 1716 4603 
Q 2353 4603 2818 4106 
Q 3284 3609 3284 2388 
Q 3284 1147 2859 534 
Q 2434 -78 1644 -78 
Q 1128 -78 781 205 
Q 434 488 359 1063 
L 897 1106 
Q 1025 384 1656 384 
Q 2175 384 2450 857 
Q 2725 1331 2725 2156 
L 2713 2156 
z
M 1766 2047 
Q 2178 2047 2420 2339 
Q 2663 2631 2663 3078 
Q 2663 3531 2414 3836 
Q 2166 4141 1778 4141 
Q 1388 4141 1119 3817 
Q 850 3494 850 3034 
Q 850 2600 1114 2323 
Q 1378 2047 1766 2047 
z
" transform="scale(0.015625)"/>
       </defs>
       <use xlink:href="#ArialUnicodeMS-1c"/>
      </g>
     </g>
    </g>
    <g id="xtick_5">
     <g id="line2d_5">
      <g>
       <use xlink:href="#m4417b80694" x="333.675385" y="268.803661" style="fill: #536b76; stroke: #536b76; stroke-width: 0.8"/>
      </g>
     </g>
     <g id="text_5">
      <!-- 10 -->
      <g style="fill: #536b76" transform="translate(327.00226 284.539989) scale(0.12 -0.12)">
       <defs>
        <path id="ArialUnicodeMS-14" d="M 2400 0 
L 1838 0 
L 1838 3584 
Q 1416 3184 709 2906 
L 709 3450 
Q 1681 3916 2034 4603 
L 2400 4603 
L 2400 0 
z
" transform="scale(0.015625)"/>
        <path id="ArialUnicodeMS-13" d="M 1778 4603 
Q 3272 4603 3272 2259 
Q 3272 1075 2886 498 
Q 2500 -78 1778 -78 
Q 288 -78 288 2259 
Q 288 3444 673 4023 
Q 1059 4603 1778 4603 
z
M 1778 384 
Q 2231 384 2462 823 
Q 2694 1263 2694 2259 
Q 2694 2953 2592 3351 
Q 2491 3750 2286 3945 
Q 2081 4141 1772 4141 
Q 1319 4141 1091 3694 
Q 863 3247 863 2259 
Q 863 1575 966 1175 
Q 1069 775 1272 579 
Q 1475 384 1778 384 
z
" transform="scale(0.015625)"/>
       </defs>
       <use xlink:href="#ArialUnicodeMS-14"/>
       <use xlink:href="#ArialUnicodeMS-13" transform="translate(55.609375 0)"/>
      </g>
     </g>
    </g>
    <g id="xtick_6">
     <g id="line2d_6">
      <g>
       <use xlink:href="#m4417b80694" x="397.203597" y="268.803661" style="fill: #536b76; stroke: #536b76; stroke-width: 0.8"/>
      </g>
     </g>
     <g id="text_6">
      <!-- 11 -->
      <g style="fill: #536b76" transform="translate(390.530472 284.539989) scale(0.12 -0.12)">
       <use xlink:href="#ArialUnicodeMS-14"/>
       <use xlink:href="#ArialUnicodeMS-14" transform="translate(55.609375 0)"/>
      </g>
     </g>
    </g>
    <g id="xtick_7">
     <g id="line2d_7">
      <g>
       <use xlink:href="#m4417b80694" x="460.73181" y="268.803661" style="fill: #536b76; stroke: #536b76; stroke-width: 0.8"/>
      </g>
     </g>
     <g id="text_7">
      <!-- 12 -->
      <g style="fill: #536b76" transform="translate(454.058685 284.539989) scale(0.12 -0.12)">
       <defs>
        <path id="ArialUnicodeMS-15" d="M 3231 0 
L 197 0 
Q 197 388 467 784 
Q 738 1181 1478 1778 
Q 1931 2141 2287 2539 
Q 2644 2938 2644 3341 
Q 2644 3688 2398 3914 
Q 2153 4141 1778 4141 
Q 1400 4141 1144 3908 
Q 888 3675 884 3213 
L 306 3278 
Q 359 3922 764 4262 
Q 1169 4603 1791 4603 
Q 2466 4603 2842 4229 
Q 3219 3856 3219 3328 
Q 3219 2888 2901 2436 
Q 2584 1984 1638 1228 
Q 1141 831 978 544 
L 3231 544 
L 3231 0 
z
" transform="scale(0.015625)"/>
       </defs>
       <use xlink:href="#ArialUnicodeMS-14"/>
       <use xlink:href="#ArialUnicodeMS-15" transform="translate(55.609375 0)"/>
      </g>
     </g>
    </g>
    <g id="xtick_8">
     <g id="line2d_8">
      <g>
       <use xlink:href="#m4417b80694" x="524.260022" y="268.803661" style="fill: #536b76; stroke: #536b76; stroke-width: 0.8"/>
      </g>
     </g>
     <g id="text_8">
      <!-- 13 -->
      <g style="fill: #536b76" transform="translate(517.586897 284.539989) scale(0.12 -0.12)">
       <defs>
        <path id="ArialUnicodeMS-16" d="M 2425 2478 
Q 2850 2397 3067 2067 
Q 3284 1738 3284 1350 
Q 3284 725 2829 323 
Q 2375 -78 1741 -78 
Q 1134 -78 740 275 
Q 347 628 281 1209 
L 844 1288 
Q 928 834 1151 609 
Q 1375 384 1741 384 
Q 2134 384 2407 661 
Q 2681 938 2681 1338 
Q 2681 1722 2432 1975 
Q 2184 2228 1784 2228 
Q 1622 2228 1388 2169 
L 1453 2663 
Q 1678 2663 1809 2684 
Q 1941 2706 2103 2790 
Q 2266 2875 2372 3033 
Q 2478 3191 2478 3425 
Q 2478 3766 2251 3953 
Q 2025 4141 1728 4141 
Q 1388 4141 1173 3925 
Q 959 3709 903 3309 
L 341 3413 
Q 450 4009 823 4306 
Q 1197 4603 1716 4603 
Q 2288 4603 2670 4258 
Q 3053 3913 3053 3413 
Q 3053 2772 2425 2491 
L 2425 2478 
z
" transform="scale(0.015625)"/>
       </defs>
       <use xlink:href="#ArialUnicodeMS-14"/>
       <use xlink:href="#ArialUnicodeMS-16" transform="translate(55.609375 0)"/>
      </g>
     </g>
    </g>
    <g id="xtick_9">
     <g id="line2d_9">
      <g>
       <use xlink:href="#m4417b80694" x="587.788235" y="268.803661" style="fill: #536b76; stroke: #536b76; stroke-width: 0.8"/>
      </g>
     </g>
     <g id="text_9">
      <!-- 14 -->
      <g style="fill: #536b76" transform="translate(581.11511 284.539989) scale(0.12 -0.12)">
       <defs>
        <path id="ArialUnicodeMS-17" d="M 3263 1094 
L 2644 1094 
L 2644 0 
L 2081 0 
L 2081 1094 
L 97 1094 
L 97 1613 
L 2181 4581 
L 2644 4581 
L 2644 1613 
L 3263 1613 
L 3263 1094 
z
M 2081 1613 
L 2081 3681 
L 2069 3681 
L 647 1613 
L 2081 1613 
z
" transform="scale(0.015625)"/>
       </defs>
       <use xlink:href="#ArialUnicodeMS-14"/>
       <use xlink:href="#ArialUnicodeMS-17" transform="translate(55.609375 0)"/>
      </g>
     </g>
    </g>
    <g id="text_10">
     <!-- 平均读数（m） -->
     <g style="fill: #192b35" transform="translate(292.677572 301.07952) scale(0.12 -0.12)">
      <defs>
       <path id="ArialUnicodeMS-3102" d="M 5888 1875 
L 3419 1875 
L 3419 -447 
L 2931 -447 
L 2931 1875 
L 453 1875 
L 453 2344 
L 2931 2344 
L 2931 4569 
L 856 4569 
L 856 5038 
L 5453 5038 
L 5453 4569 
L 3419 4569 
L 3419 2344 
L 5888 2344 
L 5888 1875 
z
M 5241 4197 
Q 4981 3381 4134 2522 
L 3700 2803 
Q 4584 3606 4819 4422 
L 5241 4197 
z
M 2528 2753 
L 2081 2509 
Q 1700 3606 953 4153 
L 1428 4384 
Q 2109 3784 2528 2753 
z
" transform="scale(0.015625)"/>
       <path id="ArialUnicodeMS-29d6" d="M 5797 4459 
Q 5772 1716 5730 978 
Q 5688 241 5458 -81 
Q 5228 -403 4744 -403 
Q 4606 -403 4006 -306 
L 3847 250 
Q 4413 128 4788 128 
Q 5022 128 5133 340 
Q 5244 553 5283 1968 
Q 5322 3384 5306 3994 
L 3347 3994 
Q 3056 3181 2559 2650 
L 2156 2944 
Q 2253 3025 2344 3128 
L 1728 3128 
L 1728 1441 
L 2541 1766 
L 2541 1259 
L 641 538 
L 319 978 
L 1241 1288 
L 1241 3128 
L 488 3128 
L 488 3597 
L 1241 3597 
L 1241 5100 
L 1728 5100 
L 1728 3597 
L 2413 3597 
L 2413 3231 
Q 3006 4097 3194 5319 
L 3675 5166 
Q 3572 4644 3494 4459 
L 5797 4459 
z
M 4813 2566 
L 2888 2566 
L 2888 3041 
L 4813 3041 
L 4813 2566 
z
M 4959 1900 
L 4959 1409 
Q 4266 1156 2706 709 
L 2431 1153 
Q 4391 1697 4959 1900 
z
" transform="scale(0.015625)"/>
       <path id="ArialUnicodeMS-5e8a" d="M 5959 3284 
Q 5959 3259 5804 2923 
Q 5650 2588 5484 2369 
L 5031 2597 
Q 5331 2978 5441 3225 
L 2100 3225 
L 2100 3694 
L 3769 3694 
L 3769 4263 
L 2425 4263 
L 2425 4703 
L 3769 4703 
L 3769 5344 
L 4256 5344 
L 4256 4703 
L 5638 4703 
L 5638 4263 
L 4256 4263 
L 4256 3694 
L 5959 3694 
L 5959 3284 
z
M 1941 4103 
L 1528 3803 
Q 1156 4472 581 4856 
L 947 5153 
Q 1653 4663 1941 4103 
z
M 2369 569 
L 1253 -84 
L 959 325 
Q 1106 434 1106 581 
L 1106 2894 
L 359 2894 
L 359 3359 
L 1581 3359 
L 1581 641 
L 2369 1063 
L 2369 569 
z
M 3788 2463 
L 3438 2175 
Q 3281 2481 2656 2875 
L 2950 3156 
Q 3478 2894 3788 2463 
z
M 5953 1228 
L 4238 1228 
Q 3813 59 2075 -441 
L 1766 -6 
Q 3381 441 3700 1228 
L 1947 1228 
L 1947 1672 
L 2853 1672 
Q 2534 2084 2100 2297 
L 2419 2591 
Q 2894 2356 3328 1825 
L 3169 1672 
L 3847 1672 
Q 3878 1922 3878 3047 
L 4359 3047 
Q 4366 2909 4366 2588 
Q 4366 1894 4325 1672 
L 5953 1672 
L 5953 1228 
z
M 6016 -63 
L 5672 -441 
Q 5088 206 4072 684 
L 4384 1056 
Q 5366 609 6016 -63 
z
" transform="scale(0.015625)"/>
       <path id="ArialUnicodeMS-37ff" d="M 6138 19 
L 5806 -378 
Q 5031 194 4697 716 
Q 4344 144 3328 -441 
L 2981 -50 
Q 3966 434 4403 1153 
Q 4038 1834 3866 2753 
Q 3678 2356 3353 1919 
L 2950 2203 
Q 3838 3172 3963 5253 
L 4409 5125 
Q 4341 4384 4269 4006 
L 5984 4006 
L 5984 3547 
L 5619 3541 
L 5594 3341 
Q 5441 2113 4978 1191 
Q 5281 672 6138 19 
z
M 5166 3541 
L 4172 3541 
Q 4297 2419 4691 1650 
Q 5038 2513 5166 3541 
z
M 3438 3653 
L 2209 3653 
L 2209 2338 
L 1919 2338 
Q 1900 2269 1753 1931 
L 3225 1931 
L 3225 1472 
L 2913 1472 
Q 2763 991 2503 666 
Q 2947 353 3103 184 
L 2747 -172 
Q 2463 138 2150 313 
Q 1322 -225 563 -428 
L 269 6 
Q 1106 163 1684 563 
Q 1291 756 703 884 
L 1038 1472 
L 403 1472 
L 403 1931 
L 1259 1931 
Q 1328 2056 1466 2553 
L 1747 2484 
L 1747 3653 
L 1716 3653 
Q 1413 2881 678 2456 
L 378 2803 
Q 938 3091 1241 3653 
L 403 3653 
L 403 4122 
L 1747 4122 
L 1747 5228 
L 2209 5228 
L 2209 4122 
L 3438 4122 
L 3438 3653 
z
M 2406 1472 
L 1538 1472 
Q 1422 1241 1369 1153 
Q 1388 1159 2069 884 
Q 2219 1031 2406 1472 
z
M 1625 4441 
L 1288 4159 
Q 1022 4547 575 4813 
L 878 5075 
Q 1394 4844 1625 4441 
z
M 3384 4844 
Q 3097 4409 2669 4172 
L 2322 4481 
Q 2806 4759 3047 5069 
L 3384 4844 
z
M 3303 2888 
L 2944 2578 
Q 2706 3025 2291 3297 
L 2584 3566 
Q 2988 3359 3303 2888 
z
" transform="scale(0.015625)"/>
       <path id="ArialUnicodeMS-19e4" d="M 3963 -1344 
L 3560 -1344 
Q 3041 -681 2744 103 
Q 2447 888 2447 1656 
Q 2447 2528 2763 3275 
Q 3079 4022 3560 4659 
L 3963 4659 
Q 3407 3747 3218 3059 
Q 3029 2372 3029 1663 
Q 3029 153 3963 -1344 
z
" transform="scale(0.015625)"/>
       <path id="ArialUnicodeMS-50" d="M 4922 0 
L 4359 0 
L 4359 2094 
Q 4359 2325 4328 2489 
Q 4297 2653 4167 2779 
Q 4038 2906 3763 2906 
Q 3431 2906 3190 2675 
Q 2950 2444 2950 1925 
L 2950 0 
L 2388 0 
L 2388 2156 
Q 2388 2588 2236 2747 
Q 2084 2906 1806 2906 
Q 1444 2906 1211 2656 
Q 978 2406 978 1722 
L 978 0 
L 416 0 
L 416 3316 
L 922 3316 
L 922 2853 
L 934 2853 
Q 1272 3391 1925 3391 
Q 2291 3391 2527 3245 
Q 2763 3100 2869 2809 
Q 3238 3391 3891 3391 
Q 4406 3391 4664 3112 
Q 4922 2834 4922 2278 
L 4922 0 
z
" transform="scale(0.015625)"/>
       <path id="ArialUnicodeMS-19e5" d="M 2847 4659 
Q 3366 3997 3663 3212 
Q 3960 2428 3960 1656 
Q 3960 788 3644 41 
Q 3329 -706 2847 -1344 
L 2444 -1344 
Q 3001 -431 3190 255 
Q 3379 941 3379 1650 
Q 3379 3163 2444 4659 
L 2847 4659 
z
" transform="scale(0.015625)"/>
      </defs>
      <use xlink:href="#ArialUnicodeMS-3102"/>
      <use xlink:href="#ArialUnicodeMS-29d6" transform="translate(100 0)"/>
      <use xlink:href="#ArialUnicodeMS-5e8a" transform="translate(200 0)"/>
      <use xlink:href="#ArialUnicodeMS-37ff" transform="translate(300 0)"/>
      <use xlink:href="#ArialUnicodeMS-19e4" transform="translate(400 0)"/>
      <use xlink:href="#ArialUnicodeMS-50" transform="translate(500 0)"/>
      <use xlink:href="#ArialUnicodeMS-19e5" transform="translate(583.296875 0)"/>
     </g>
    </g>
   </g>
   <g id="matplotlib.axis_2">
    <g id="ytick_1">
     <g id="line2d_10">
      <defs>
       <path id="m739a30631e" d="M 0 0 
L -3.5 0 
" style="stroke: #536b76; stroke-width: 0.8"/>
      </defs>
      <g>
       <use xlink:href="#m739a30631e" x="54.15125" y="257.684169" style="fill: #536b76; stroke: #536b76; stroke-width: 0.8"/>
      </g>
     </g>
     <g id="text_11">
      <!-- 0.00 -->
      <g style="fill: #536b76" transform="translate(23.798125 262.052333) scale(0.12 -0.12)">
       <defs>
        <path id="ArialUnicodeMS-11" d="M 1209 0 
L 569 0 
L 569 641 
L 1209 641 
L 1209 0 
z
" transform="scale(0.015625)"/>
       </defs>
       <use xlink:href="#ArialUnicodeMS-13"/>
       <use xlink:href="#ArialUnicodeMS-11" transform="translate(55.609375 0)"/>
       <use xlink:href="#ArialUnicodeMS-13" transform="translate(83.390625 0)"/>
       <use xlink:href="#ArialUnicodeMS-13" transform="translate(139 0)"/>
      </g>
     </g>
    </g>
    <g id="ytick_2">
     <g id="line2d_11">
      <g>
       <use xlink:href="#m739a30631e" x="54.15125" y="229.811737" style="fill: #536b76; stroke: #536b76; stroke-width: 0.8"/>
      </g>
     </g>
     <g id="text_12">
      <!-- 0.25 -->
      <g style="fill: #536b76" transform="translate(23.798125 234.179901) scale(0.12 -0.12)">
       <defs>
        <path id="ArialUnicodeMS-18" d="M 1013 2753 
Q 1431 3041 1881 3041 
Q 2453 3041 2878 2636 
Q 3303 2231 3303 1556 
Q 3303 875 2872 398 
Q 2441 -78 1741 -78 
Q 1169 -78 750 245 
Q 331 569 269 1203 
L 856 1247 
Q 928 813 1162 598 
Q 1397 384 1741 384 
Q 2169 384 2434 707 
Q 2700 1031 2700 1503 
Q 2700 1984 2428 2262 
Q 2156 2541 1728 2541 
Q 1188 2541 897 2100 
L 366 2163 
L 813 4519 
L 3084 4519 
L 3084 3975 
L 1259 3975 
L 1013 2753 
z
" transform="scale(0.015625)"/>
       </defs>
       <use xlink:href="#ArialUnicodeMS-13"/>
       <use xlink:href="#ArialUnicodeMS-11" transform="translate(55.609375 0)"/>
       <use xlink:href="#ArialUnicodeMS-15" transform="translate(83.390625 0)"/>
       <use xlink:href="#ArialUnicodeMS-18" transform="translate(139 0)"/>
      </g>
     </g>
    </g>
    <g id="ytick_3">
     <g id="line2d_12">
      <g>
       <use xlink:href="#m739a30631e" x="54.15125" y="201.939304" style="fill: #536b76; stroke: #536b76; stroke-width: 0.8"/>
      </g>
     </g>
     <g id="text_13">
      <!-- 0.50 -->
      <g style="fill: #536b76" transform="translate(23.798125 206.307469) scale(0.12 -0.12)">
       <use xlink:href="#ArialUnicodeMS-13"/>
       <use xlink:href="#ArialUnicodeMS-11" transform="translate(55.609375 0)"/>
       <use xlink:href="#ArialUnicodeMS-18" transform="translate(83.390625 0)"/>
       <use xlink:href="#ArialUnicodeMS-13" transform="translate(139 0)"/>
      </g>
     </g>
    </g>
    <g id="ytick_4">
     <g id="line2d_13">
      <g>
       <use xlink:href="#m739a30631e" x="54.15125" y="174.066872" style="fill: #536b76; stroke: #536b76; stroke-width: 0.8"/>
      </g>
     </g>
     <g id="text_14">
      <!-- 0.75 -->
      <g style="fill: #536b76" transform="translate(23.798125 178.435036) scale(0.12 -0.12)">
       <use xlink:href="#ArialUnicodeMS-13"/>
       <use xlink:href="#ArialUnicodeMS-11" transform="translate(55.609375 0)"/>
       <use xlink:href="#ArialUnicodeMS-1a" transform="translate(83.390625 0)"/>
       <use xlink:href="#ArialUnicodeMS-18" transform="translate(139 0)"/>
      </g>
     </g>
    </g>
    <g id="ytick_5">
     <g id="line2d_14">
      <g>
       <use xlink:href="#m739a30631e" x="54.15125" y="146.19444" style="fill: #536b76; stroke: #536b76; stroke-width: 0.8"/>
      </g>
     </g>
     <g id="text_15">
      <!-- 1.00 -->
      <g style="fill: #536b76" transform="translate(23.798125 150.562604) scale(0.12 -0.12)">
       <use xlink:href="#ArialUnicodeMS-14"/>
       <use xlink:href="#ArialUnicodeMS-11" transform="translate(55.609375 0)"/>
       <use xlink:href="#ArialUnicodeMS-13" transform="translate(83.390625 0)"/>
       <use xlink:href="#ArialUnicodeMS-13" transform="translate(139 0)"/>
      </g>
     </g>
    </g>
    <g id="ytick_6">
     <g id="line2d_15">
      <g>
       <use xlink:href="#m739a30631e" x="54.15125" y="118.322008" style="fill: #536b76; stroke: #536b76; stroke-width: 0.8"/>
      </g>
     </g>
     <g id="text_16">
      <!-- 1.25 -->
      <g style="fill: #536b76" transform="translate(23.798125 122.690172) scale(0.12 -0.12)">
       <use xlink:href="#ArialUnicodeMS-14"/>
       <use xlink:href="#ArialUnicodeMS-11" transform="translate(55.609375 0)"/>
       <use xlink:href="#ArialUnicodeMS-15" transform="translate(83.390625 0)"/>
       <use xlink:href="#ArialUnicodeMS-18" transform="translate(139 0)"/>
      </g>
     </g>
    </g>
    <g id="ytick_7">
     <g id="line2d_16">
      <g>
       <use xlink:href="#m739a30631e" x="54.15125" y="90.449576" style="fill: #536b76; stroke: #536b76; stroke-width: 0.8"/>
      </g>
     </g>
     <g id="text_17">
      <!-- 1.50 -->
      <g style="fill: #536b76" transform="translate(23.798125 94.81774) scale(0.12 -0.12)">
       <use xlink:href="#ArialUnicodeMS-14"/>
       <use xlink:href="#ArialUnicodeMS-11" transform="translate(55.609375 0)"/>
       <use xlink:href="#ArialUnicodeMS-18" transform="translate(83.390625 0)"/>
       <use xlink:href="#ArialUnicodeMS-13" transform="translate(139 0)"/>
      </g>
     </g>
    </g>
    <g id="ytick_8">
     <g id="line2d_17">
      <g>
       <use xlink:href="#m739a30631e" x="54.15125" y="62.577143" style="fill: #536b76; stroke: #536b76; stroke-width: 0.8"/>
      </g>
     </g>
     <g id="text_18">
      <!-- 1.75 -->
      <g style="fill: #536b76" transform="translate(23.798125 66.945307) scale(0.12 -0.12)">
       <use xlink:href="#ArialUnicodeMS-14"/>
       <use xlink:href="#ArialUnicodeMS-11" transform="translate(55.609375 0)"/>
       <use xlink:href="#ArialUnicodeMS-1a" transform="translate(83.390625 0)"/>
       <use xlink:href="#ArialUnicodeMS-18" transform="translate(139 0)"/>
      </g>
     </g>
    </g>
    <g id="ytick_9">
     <g id="line2d_18">
      <g>
       <use xlink:href="#m739a30631e" x="54.15125" y="34.704711" style="fill: #536b76; stroke: #536b76; stroke-width: 0.8"/>
      </g>
     </g>
     <g id="text_19">
      <!-- 2.00 -->
      <g style="fill: #536b76" transform="translate(23.798125 39.072875) scale(0.12 -0.12)">
       <use xlink:href="#ArialUnicodeMS-15"/>
       <use xlink:href="#ArialUnicodeMS-11" transform="translate(55.609375 0)"/>
       <use xlink:href="#ArialUnicodeMS-13" transform="translate(83.390625 0)"/>
       <use xlink:href="#ArialUnicodeMS-13" transform="translate(139 0)"/>
      </g>
     </g>
    </g>
    <g id="text_20">
     <!-- 概率密度（1/m） -->
     <g style="fill: #192b35" transform="translate(17.278125 192.490502) rotate(-90) scale(0.12 -0.12)">
      <defs>
       <path id="ArialUnicodeMS-3c11" d="M 6181 666 
Q 6122 175 6040 -33 
Q 5959 -241 5843 -297 
Q 5728 -353 5259 -353 
Q 4850 -353 4850 141 
L 4850 1563 
Q 4538 466 3584 -447 
L 3219 -78 
Q 3556 206 3847 594 
L 3700 506 
Q 3694 528 3625 664 
Q 3556 800 3531 856 
Q 3213 697 2053 231 
L 1797 697 
L 2253 850 
L 2253 1869 
L 2081 1747 
Q 1897 2188 1691 2472 
L 1691 -428 
L 1203 -428 
L 1203 2222 
L 1191 2222 
Q 1075 1784 550 1056 
L 191 1369 
Q 866 2188 1178 3566 
L 459 3566 
L 459 4031 
L 1203 4031 
L 1203 5275 
L 1691 5275 
L 1691 4031 
L 2253 4031 
L 2253 5081 
L 3775 5081 
L 3775 2438 
L 2725 2438 
L 2725 997 
L 3359 1275 
Q 3178 1613 3009 1825 
L 3391 2028 
Q 3759 1650 4063 922 
Q 4463 1609 4653 2516 
L 3859 2516 
L 3859 2981 
L 4025 2981 
L 4025 5063 
L 5806 5063 
L 5806 4594 
L 5294 4594 
Q 5234 3228 5184 2981 
L 5919 2981 
L 5919 2516 
L 5106 2516 
Q 5097 2353 5044 2175 
L 5294 2175 
L 5294 238 
Q 5294 91 5453 91 
Q 5594 91 5639 198 
Q 5684 306 5741 878 
L 6181 666 
z
M 4831 4594 
L 4494 4594 
L 4494 2981 
L 4728 2981 
Q 4831 3631 4831 4594 
z
M 3297 4013 
L 3297 4594 
L 2725 4594 
L 2725 4013 
L 3297 4013 
z
M 2253 2450 
L 2253 3566 
L 1691 3566 
L 1691 2956 
L 1844 3022 
Q 2034 2809 2253 2450 
z
M 3297 2906 
L 3297 3547 
L 2725 3547 
L 2725 2906 
L 3297 2906 
z
" transform="scale(0.015625)"/>
       <path id="ArialUnicodeMS-4616" d="M 5663 4313 
L 3469 4313 
Q 3113 3806 2828 3488 
L 3244 3309 
Q 3453 3538 3822 4078 
L 4263 3872 
Q 3531 2878 3022 2356 
L 3809 2406 
Q 3738 2594 3591 2822 
L 4019 2969 
Q 4375 2419 4459 1813 
L 3988 1678 
Q 3988 1806 3938 1966 
L 2150 1819 
L 1997 2316 
L 2431 2328 
Q 2616 2500 2931 2906 
Q 2372 3163 1978 3278 
L 2203 3731 
L 2419 3647 
Q 2634 3900 2888 4313 
L 709 4313 
L 709 4781 
L 2956 4781 
L 2956 5375 
L 3444 5375 
L 3444 4781 
L 5663 4781 
L 5663 4313 
z
M 5734 3922 
Q 5091 3316 4581 3128 
L 4294 3553 
Q 4947 3791 5447 4281 
L 5734 3922 
z
M 1984 3397 
L 1619 3059 
Q 1263 3534 653 3853 
L 947 4184 
Q 1531 3975 1984 3397 
z
M 2131 2597 
Q 1419 2031 763 1813 
L 459 2209 
Q 1238 2447 1863 2994 
L 2131 2597 
z
M 5906 2216 
L 5619 1831 
Q 5109 2341 4306 2553 
L 4550 2938 
Q 5391 2722 5906 2216 
z
M 5941 1038 
L 3456 1038 
L 3456 -441 
L 2963 -441 
L 2963 1038 
L 459 1038 
L 459 1503 
L 2963 1503 
L 2963 1831 
L 3456 1831 
L 3456 1503 
L 5941 1503 
L 5941 1038 
z
" transform="scale(0.015625)"/>
       <path id="ArialUnicodeMS-2e55" d="M 5791 3353 
L 5306 3353 
L 5306 4225 
L 1166 4225 
L 1166 3353 
L 678 3353 
L 678 4691 
L 2950 4691 
L 2950 5294 
L 3450 5294 
L 3450 4691 
L 5791 4691 
L 5791 3353 
z
M 3688 3438 
L 3359 3097 
Q 3159 3469 2450 3853 
L 2778 4134 
Q 3294 3981 3688 3438 
z
M 5013 3681 
Q 4281 2863 2669 2028 
Q 2731 1997 3391 1997 
Q 3975 1997 4053 2019 
Q 4131 2041 4294 2725 
L 4722 2566 
Q 4494 1800 4291 1669 
Q 4088 1538 3794 1538 
L 2741 1538 
Q 2428 1538 2216 1797 
Q 1644 1553 716 1269 
L 422 1684 
Q 1513 1966 2081 2241 
L 2081 3456 
L 2566 3456 
L 2566 2472 
Q 3794 3069 4684 3981 
L 5013 3681 
z
M 1925 3341 
Q 1556 2581 909 2106 
L 544 2431 
Q 1300 2978 1522 3616 
L 1925 3341 
z
M 6041 2053 
L 5631 1741 
Q 5331 2494 4647 2925 
L 5044 3225 
Q 5609 2794 6041 2053 
z
M 5319 -391 
L 4831 -391 
L 4831 -44 
L 1594 -44 
L 1594 -409 
L 1106 -397 
L 1106 1234 
L 1594 1234 
L 1594 422 
L 2963 422 
L 2963 1491 
L 3450 1491 
L 3450 422 
L 4831 422 
L 4831 1234 
L 5319 1234 
L 5319 -391 
z
" transform="scale(0.015625)"/>
       <path id="ArialUnicodeMS-3135" d="M 5913 4269 
L 1363 4269 
L 1363 2278 
Q 1363 1144 1180 528 
Q 997 -88 684 -434 
L 294 -147 
Q 669 378 773 940 
Q 878 1503 878 2350 
L 878 4738 
L 3200 4738 
L 3200 5288 
L 3706 5288 
L 3706 4738 
L 5913 4738 
L 5913 4269 
z
M 5778 3194 
L 4728 3194 
L 4728 2303 
L 2350 2303 
L 2350 3194 
L 1472 3194 
L 1472 3659 
L 2350 3659 
L 2350 4147 
L 2828 4147 
L 2828 3659 
L 4244 3659 
L 4244 4147 
L 4728 4147 
L 4728 3659 
L 5778 3659 
L 5778 3194 
z
M 4244 2747 
L 4244 3194 
L 2834 3194 
L 2834 2747 
L 4244 2747 
z
M 6081 72 
L 5819 -397 
Q 4484 -216 3531 263 
Q 2494 -234 1388 -397 
L 1088 44 
Q 2078 134 3034 550 
Q 2509 934 2113 1528 
L 1625 1528 
L 1625 1972 
L 5159 1972 
L 5159 1544 
Q 4819 1025 4044 538 
Q 4963 166 6081 72 
z
M 4544 1528 
L 2700 1528 
Q 3125 1038 3531 781 
Q 4194 1159 4544 1528 
z
" transform="scale(0.015625)"/>
       <path id="ArialUnicodeMS-12" d="M 1778 4581 
L 453 -153 
L 0 -153 
L 1325 4581 
L 1778 4581 
z
" transform="scale(0.015625)"/>
      </defs>
      <use xlink:href="#ArialUnicodeMS-3c11"/>
      <use xlink:href="#ArialUnicodeMS-4616" transform="translate(100 0)"/>
      <use xlink:href="#ArialUnicodeMS-2e55" transform="translate(200 0)"/>
      <use xlink:href="#ArialUnicodeMS-3135" transform="translate(300 0)"/>
      <use xlink:href="#ArialUnicodeMS-19e4" transform="translate(400 0)"/>
      <use xlink:href="#ArialUnicodeMS-14" transform="translate(500 0)"/>
      <use xlink:href="#ArialUnicodeMS-12" transform="translate(555.609375 0)"/>
      <use xlink:href="#ArialUnicodeMS-50" transform="translate(583.390625 0)"/>
      <use xlink:href="#ArialUnicodeMS-19e5" transform="translate(666.6875 0)"/>
     </g>
    </g>
   </g>
   <g id="line2d_19">
    <path d="M 79.562535 257.669248 
L 120.728817 257.522622 
L 140.549619 257.246287 
L 154.779939 256.840449 
L 166.46913 256.291417 
L 176.633644 255.589068 
L 185.273481 254.778842 
L 193.405092 253.798241 
L 201.028477 252.655668 
L 208.143637 251.37057 
L 215.258797 249.855865 
L 221.865731 248.232475 
L 228.472665 246.395201 
L 235.587825 244.179629 
L 242.702985 241.73061 
L 250.32637 238.875424 
L 259.474433 235.198415 
L 274.721204 228.767971 
L 285.902169 224.160828 
L 293.525555 221.258201 
L 299.624263 219.157684 
L 305.214746 217.453004 
L 310.297003 216.118193 
L 315.37926 215.013066 
L 319.953291 214.231775 
L 324.527322 213.664967 
L 329.101354 213.32134 
L 333.675385 213.206202 
L 338.249416 213.32134 
L 342.823448 213.664967 
L 347.397479 214.231775 
L 351.97151 215.013066 
L 357.053767 216.118193 
L 362.136024 217.453004 
L 367.726507 219.157684 
L 373.825215 221.258201 
L 380.940375 223.959623 
L 390.088438 227.698429 
L 416.516174 238.677576 
L 424.647785 241.73061 
L 431.762945 244.179629 
L 438.878105 246.395201 
L 445.993265 248.364921 
L 453.108424 250.086861 
L 460.223584 251.567841 
L 467.338744 252.821507 
L 474.96213 253.933606 
L 483.093741 254.885785 
L 491.733578 255.670573 
L 501.389866 256.320479 
L 512.570831 256.840449 
L 525.7847 257.224521 
L 543.064373 257.48957 
L 568.983884 257.637506 
L 587.788235 257.669248 
L 587.788235 257.669248 
" clip-path="url(#pb60bfb6ef5)" style="fill: none; stroke-dasharray: 2.2,3.63; stroke-dashoffset: 0; stroke: #6e7b86; stroke-width: 2.2"/>
   </g>
   <g id="line2d_20">
    <path d="M 79.562535 257.684169 
L 217.2917 257.576027 
L 227.964439 257.334109 
L 235.079599 256.964718 
L 240.670082 256.460873 
L 245.244113 255.838553 
L 249.309919 255.06993 
L 252.867499 254.186233 
L 256.425079 253.062162 
L 259.474433 251.873515 
L 262.523787 250.446197 
L 265.573141 248.750983 
L 268.622495 246.759875 
L 271.163624 244.856184 
L 273.704752 242.71685 
L 276.754107 239.825142 
L 279.803461 236.570237 
L 282.852815 232.951101 
L 285.902169 228.977395 
L 289.459749 223.923074 
L 293.017329 218.473804 
L 297.59136 211.023896 
L 311.313454 188.253192 
L 314.362808 183.74009 
L 316.903937 180.302562 
L 319.445065 177.22184 
L 321.477968 175.050838 
L 323.510871 173.168148 
L 325.543774 171.595903 
L 327.576677 170.352853 
L 329.101354 169.645766 
L 330.626031 169.137201 
L 332.150708 168.830654 
L 333.675385 168.728236 
L 335.200062 168.830654 
L 336.724739 169.137201 
L 338.249416 169.645766 
L 339.774093 170.352853 
L 341.29877 171.253626 
L 343.331673 172.745189 
L 345.364576 174.552218 
L 347.397479 176.653386 
L 349.938607 179.656061 
L 352.479736 183.026809 
L 355.52909 187.475688 
L 359.08667 193.088904 
L 364.168927 201.57265 
L 372.808764 216.037178 
L 376.874569 222.403291 
L 380.432149 227.577427 
L 383.481504 231.665115 
L 386.530858 235.404086 
L 389.580212 238.780782 
L 392.629566 241.792848 
L 395.67892 244.447524 
L 398.728275 246.759875 
L 401.777629 248.750983 
L 404.826983 250.446197 
L 407.876337 251.873515 
L 410.925691 253.062162 
L 414.483271 254.186233 
L 418.040851 255.06993 
L 422.106657 255.838553 
L 426.680688 256.460873 
L 431.762945 256.928182 
L 438.369879 257.294971 
L 447.009716 257.531147 
L 460.73181 257.654328 
L 498.848738 257.684049 
L 587.788235 257.684169 
L 587.788235 257.684169 
" clip-path="url(#pb60bfb6ef5)" style="fill: none; stroke-dasharray: 8.14,3.52; stroke-dashoffset: 0; stroke: #2563a6; stroke-width: 2.2"/>
   </g>
   <g id="line2d_21">
    <path d="M 79.562535 257.684169 
L 283.869266 257.581759 
L 287.935072 257.343065 
L 290.4762 256.99727 
L 292.509103 256.515773 
L 294.03378 255.972906 
L 295.558457 255.213641 
L 297.083135 254.168493 
L 298.607812 252.752725 
L 299.624263 251.553942 
L 300.640715 250.112361 
L 301.657166 248.391444 
L 302.673617 246.352155 
L 303.690069 243.953501 
L 304.70652 241.153261 
L 306.231197 236.107084 
L 307.755874 229.923178 
L 309.280551 222.477629 
L 310.805228 213.67351 
L 312.329906 203.4543 
L 313.854583 191.817545 
L 315.887485 174.218796 
L 317.920388 154.591132 
L 321.477968 117.405372 
L 324.527322 86.072901 
L 326.560225 67.568656 
L 328.084902 55.81257 
L 329.101354 49.248209 
L 330.117805 43.843361 
L 331.134257 39.697949 
L 332.150708 36.889792 
L 332.658934 36.004845 
L 333.167159 35.472176 
L 333.675385 35.294335 
L 334.183611 35.472176 
L 334.691836 36.004845 
L 335.200062 36.889792 
L 335.708288 38.122785 
L 336.724739 41.607812 
L 337.741191 46.394116 
L 338.757642 52.392478 
L 339.774093 59.493043 
L 341.29877 71.928566 
L 343.331673 91.078151 
L 346.381027 122.797917 
L 349.938607 159.658257 
L 351.97151 178.827503 
L 354.004413 195.8515 
L 355.52909 207.019346 
L 357.053767 216.763641 
L 358.578444 225.106344 
L 360.103121 232.118974 
L 361.627798 237.908905 
L 363.152476 242.606243 
L 364.677153 246.352155 
L 366.20183 249.289206 
L 367.726507 251.553942 
L 369.251184 253.271711 
L 370.775861 254.553547 
L 372.300538 255.49476 
L 373.825215 256.17489 
L 375.858118 256.785435 
L 377.891021 257.162524 
L 380.940375 257.46431 
L 385.514406 257.630169 
L 395.67892 257.68267 
L 587.788235 257.684169 
L 587.788235 257.684169 
" clip-path="url(#pb60bfb6ef5)" style="fill: none; stroke: #bc5930; stroke-width: 2.2; stroke-linecap: square"/>
   </g>
   <g id="line2d_22">
    <path d="M 333.675385 268.803661 
L 333.675385 24.174844 
" clip-path="url(#pb60bfb6ef5)" style="fill: none; stroke-dasharray: 1,1.65; stroke-dashoffset: 0; stroke: #6e7b86"/>
   </g>
   <g id="patch_3">
    <path d="M 54.15125 268.803661 
L 54.15125 24.174844 
" style="fill: none; stroke: #6e7b86; stroke-width: 0.8; stroke-linejoin: miter; stroke-linecap: square"/>
   </g>
   <g id="patch_4">
    <path d="M 54.15125 268.803661 
L 613.19952 268.803661 
" style="fill: none; stroke: #6e7b86; stroke-width: 0.8; stroke-linejoin: miter; stroke-linecap: square"/>
   </g>
   <g id="text_21">
    <!-- 独立、无偏高斯测量：重复取 n 个读数后求平均 -->
    <g style="fill: #192b35" transform="translate(196.449213 18.174844) scale(0.13 -0.13)">
     <defs>
      <path id="ArialUnicodeMS-457b" d="M 6069 -84 
L 5569 -313 
Q 5425 156 5313 331 
L 2638 -281 
L 2388 238 
L 3897 506 
L 3897 1569 
L 2656 1569 
L 2656 3975 
L 3897 3975 
L 3897 5294 
L 4384 5294 
L 4384 3975 
L 5563 3975 
L 5563 1569 
L 4384 1569 
L 4384 603 
L 5119 763 
Q 4953 1013 4800 1184 
L 5184 1441 
Q 5800 738 6069 -84 
z
M 5075 2034 
L 5075 3506 
L 4384 3506 
L 4384 2034 
L 5075 2034 
z
M 3897 2034 
L 3897 3506 
L 3144 3506 
L 3144 2034 
L 3897 2034 
z
M 2169 4684 
Q 1866 4100 1778 3988 
Q 2163 3459 2163 2053 
Q 2163 953 2092 511 
Q 2022 69 1820 -151 
Q 1619 -372 1281 -372 
Q 1038 -372 647 -300 
L 453 244 
Q 950 91 1219 91 
Q 1438 91 1531 336 
Q 1625 581 1656 1300 
L 1703 2247 
Q 1259 1538 569 1044 
L 213 1416 
Q 1066 2003 1638 2906 
Q 1600 3309 1459 3513 
Q 1138 3016 684 2713 
L 306 3109 
Q 906 3513 1203 3950 
Q 994 4234 313 4628 
L 609 4997 
Q 1072 4753 1497 4366 
Q 1731 4794 1806 4972 
L 2169 4684 
z
" transform="scale(0.015625)"/>
      <path id="ArialUnicodeMS-4d5a" d="M 5528 3719 
L 897 3719 
L 897 4184 
L 2956 4184 
L 2956 5259 
L 3444 5259 
L 3444 4184 
L 5528 4184 
L 5528 3719 
z
M 5838 -19 
L 609 -19 
L 609 447 
L 3341 447 
Q 4088 1822 4313 3609 
L 4831 3456 
Q 4556 1697 3897 447 
L 5838 447 
L 5838 -19 
z
M 2869 788 
L 2381 641 
Q 2191 2250 1497 3384 
L 1959 3597 
Q 2744 2244 2869 788 
z
" transform="scale(0.015625)"/>
      <path id="ArialUnicodeMS-11ec" d="M 2150 -56 
L 1594 -550 
Q 1244 281 603 763 
L 959 1069 
Q 1669 634 2150 -56 
z
" transform="scale(0.015625)"/>
      <path id="ArialUnicodeMS-386f" d="M 5972 2606 
L 3150 2606 
Q 2875 1481 2322 790 
Q 1769 100 838 -378 
L 453 19 
Q 2113 709 2631 2606 
L 416 2606 
L 416 3072 
L 2725 3072 
Q 2791 3344 2791 3622 
L 2791 4500 
L 703 4500 
L 703 4984 
L 5434 4984 
L 5434 4500 
L 3309 4500 
L 3309 3628 
Q 3309 3428 3256 3072 
L 5972 3072 
L 5972 2606 
z
M 6041 1119 
Q 5841 209 5630 50 
Q 5419 -109 5234 -109 
L 3928 -109 
Q 3669 -47 3559 109 
Q 3450 266 3450 391 
L 3450 2328 
L 3938 2328 
L 3938 550 
Q 3938 450 4005 404 
Q 4072 359 4122 359 
L 5159 359 
Q 5300 359 5390 604 
Q 5481 850 5569 1356 
L 6041 1119 
z
" transform="scale(0.015625)"/>
      <path id="ArialUnicodeMS-22de" d="M 1997 5184 
Q 1938 4828 1750 4269 
L 1563 3719 
L 1563 -434 
L 1075 -434 
L 1075 2834 
Q 884 2506 634 2234 
L 244 2541 
Q 1184 3588 1563 5356 
L 1997 5184 
z
M 5894 4722 
L 2041 4722 
L 2041 5184 
L 5894 5184 
L 5894 4722 
z
M 5663 2816 
L 2584 2816 
L 2584 2203 
Q 2584 434 2100 -325 
L 1663 -31 
Q 2106 741 2106 2075 
Q 2106 2831 2100 4269 
L 5663 4269 
L 5663 2816 
z
M 5178 3256 
L 5178 3803 
L 2584 3803 
L 2584 3256 
L 5178 3256 
z
M 5806 122 
Q 5806 -163 5657 -286 
Q 5509 -409 5350 -409 
L 4934 -409 
L 4756 44 
L 5172 31 
Q 5319 31 5319 184 
L 5319 922 
L 4934 922 
L 4934 134 
L 4447 134 
L 4447 922 
L 4084 922 
L 4084 -50 
L 3597 -50 
L 3597 922 
L 3256 922 
L 3256 -428 
L 2772 -428 
L 2772 2478 
L 5806 2478 
L 5806 122 
z
M 5319 1388 
L 5319 2034 
L 4934 2034 
L 4934 1388 
L 5319 1388 
z
M 4447 1388 
L 4447 2034 
L 4084 2034 
L 4084 1388 
L 4447 1388 
z
M 3597 1388 
L 3597 2034 
L 3256 2034 
L 3256 1388 
L 3597 1388 
z
" transform="scale(0.015625)"/>
      <path id="ArialUnicodeMS-6d67" d="M 5863 4313 
L 653 4313 
L 653 4781 
L 2956 4781 
L 2956 5300 
L 3444 5300 
L 3444 4781 
L 5863 4781 
L 5863 4313 
z
M 4775 2747 
L 1625 2747 
L 1625 4038 
L 4775 4038 
L 4775 2747 
z
M 4288 3572 
L 2113 3572 
L 2113 3213 
L 4281 3213 
L 4288 3572 
z
M 5563 213 
Q 5563 -359 4903 -359 
L 4403 -359 
L 4263 134 
L 4750 109 
Q 5075 88 5075 359 
L 5075 2022 
L 1331 2022 
L 1331 -428 
L 838 -428 
L 838 2491 
L 5563 2491 
L 5563 213 
z
M 4453 378 
L 1919 378 
L 1919 1722 
L 4453 1722 
L 4453 378 
z
M 3969 1253 
L 2406 1253 
L 2406 844 
L 3963 844 
L 3969 1253 
z
" transform="scale(0.015625)"/>
      <path id="ArialUnicodeMS-383e" d="M 6041 2963 
L 5344 2963 
L 5344 -409 
L 4856 -409 
L 4856 2963 
L 4231 2963 
L 4231 1300 
Q 4231 259 3694 -428 
L 3231 -172 
Q 3531 134 3637 550 
Q 3744 966 3744 1638 
L 3744 4653 
Q 4147 4653 4748 4843 
Q 5350 5034 5619 5306 
L 5972 4928 
Q 5216 4394 4231 4244 
L 4231 3431 
L 6041 3431 
L 6041 2963 
z
M 3647 1038 
L 434 1038 
L 434 1503 
L 1025 1503 
L 1025 4159 
L 550 4159 
L 550 4628 
L 1025 4628 
L 1025 5269 
L 1509 5269 
L 1509 4628 
L 2688 4628 
L 2688 5269 
L 3175 5269 
L 3175 4628 
L 3603 4628 
L 3603 4159 
L 3175 4159 
L 3175 1503 
L 3647 1503 
L 3647 1038 
z
M 2688 3603 
L 2688 4159 
L 1509 4159 
L 1509 3603 
L 2688 3603 
z
M 2688 2547 
L 2688 3138 
L 1509 3138 
L 1509 2547 
L 2688 2547 
z
M 2688 1503 
L 2688 2081 
L 1509 2081 
L 1509 1503 
L 2688 1503 
z
M 3425 213 
L 3041 -78 
Q 2763 384 2138 653 
L 2484 947 
Q 3025 753 3425 213 
z
M 1919 684 
Q 1597 -28 672 -481 
L 313 -109 
Q 1238 284 1522 934 
L 1919 684 
z
" transform="scale(0.015625)"/>
      <path id="ArialUnicodeMS-3fda" d="M 5631 31 
Q 5631 -159 5501 -270 
Q 5372 -381 5247 -378 
L 4647 -366 
L 4475 128 
L 5019 72 
Q 5147 72 5147 197 
L 5147 5300 
L 5631 5300 
L 5631 31 
z
M 1766 4422 
L 1434 4097 
Q 1069 4584 469 4928 
L 750 5234 
Q 1344 4934 1766 4422 
z
M 3859 1209 
L 3406 1209 
L 3406 4469 
L 2316 4469 
L 2316 1209 
L 1863 1209 
L 1863 4909 
L 3859 4909 
L 3859 1209 
z
M 4697 1031 
L 4275 1031 
L 4275 4378 
L 4697 4378 
L 4697 1031 
z
M 3078 2113 
Q 3078 1225 2779 669 
Q 2481 113 1728 -403 
L 1416 -6 
Q 2516 656 2591 1644 
L 2625 2059 
L 2625 4013 
L 3078 4013 
L 3078 2113 
z
M 1563 3016 
L 1228 2681 
Q 922 3172 325 3541 
L 603 3847 
Q 1181 3534 1563 3016 
z
M 1772 2028 
Q 1516 603 703 -306 
L 306 13 
Q 1172 1047 1394 2228 
L 1772 2028 
z
M 4409 -78 
L 4013 -331 
Q 3625 397 3053 878 
L 3353 1141 
Q 3966 663 4409 -78 
z
" transform="scale(0.015625)"/>
      <path id="ArialUnicodeMS-645e" d="M 5056 3378 
L 1313 3378 
L 1313 5050 
L 5056 5050 
L 5056 3378 
z
M 4569 4403 
L 4569 4609 
L 1797 4609 
L 1797 4403 
L 4569 4403 
z
M 4569 3794 
L 4569 4031 
L 1797 4031 
L 1797 3794 
L 4569 3794 
z
M 5797 2816 
L 581 2816 
L 581 3231 
L 5797 3231 
L 5797 2816 
z
M 6059 -191 
L 341 -191 
L 341 275 
L 2950 275 
L 2950 459 
L 897 459 
L 897 878 
L 2950 878 
L 2950 1044 
L 1125 1044 
L 1125 2669 
L 5269 2669 
L 5269 1044 
L 3438 1044 
L 3438 878 
L 5509 878 
L 5509 459 
L 3438 459 
L 3438 275 
L 6059 275 
L 6059 -191 
z
M 4781 2053 
L 4781 2253 
L 3438 2253 
L 3438 2053 
L 4781 2053 
z
M 2950 2053 
L 2950 2253 
L 1613 2253 
L 1613 2053 
L 2950 2053 
z
M 4781 1459 
L 4781 1697 
L 3438 1697 
L 3438 1459 
L 4781 1459 
z
M 2950 1459 
L 2950 1697 
L 1613 1697 
L 1613 1459 
L 2950 1459 
z
" transform="scale(0.015625)"/>
      <path id="ArialUnicodeMS-19f6" d="M 3516 2675 
L 2875 2675 
L 2875 3316 
L 3516 3316 
L 3516 2675 
z
M 3516 0 
L 2875 0 
L 2875 641 
L 3516 641 
L 3516 0 
z
" transform="scale(0.015625)"/>
      <path id="ArialUnicodeMS-645c" d="M 6059 -219 
L 441 -219 
L 441 250 
L 3022 250 
L 3022 609 
L 1100 609 
L 1100 1075 
L 3022 1075 
L 3022 1381 
L 1269 1381 
L 1269 3513 
L 3022 3513 
L 3022 3822 
L 653 3822 
L 653 4288 
L 3009 4288 
L 3009 4550 
L 1106 4500 
L 825 4953 
Q 1153 4941 1534 4941 
Q 3866 4941 5247 5319 
L 5528 4916 
Q 4928 4763 3506 4594 
L 3506 4288 
L 5856 4288 
L 5856 3822 
L 3506 3822 
L 3506 3513 
L 5269 3513 
L 5269 1381 
L 3506 1381 
L 3506 1075 
L 5356 1075 
L 5356 609 
L 3506 609 
L 3506 250 
L 6059 250 
L 6059 -219 
z
M 4781 2669 
L 4781 3047 
L 3506 3047 
L 3506 2669 
L 4781 2669 
z
M 3022 2669 
L 3022 3047 
L 1753 3047 
L 1753 2669 
L 3022 2669 
z
M 4781 1825 
L 4781 2228 
L 3506 2228 
L 3506 1825 
L 4781 1825 
z
M 3022 1825 
L 3022 2228 
L 1753 2228 
L 1753 1825 
L 3022 1825 
z
" transform="scale(0.015625)"/>
      <path id="ArialUnicodeMS-2b9c" d="M 6106 84 
L 5819 -391 
Q 4316 -269 3419 72 
Q 2341 -347 659 -416 
L 353 103 
Q 1988 91 2859 372 
Q 2338 700 2075 966 
Q 1744 719 1369 525 
L 1025 884 
Q 2088 1463 2291 1991 
L 1581 1991 
L 1581 3609 
Q 963 3019 763 2900 
L 359 3219 
Q 1472 3894 1931 5306 
L 2375 5113 
Q 2341 4950 2209 4684 
L 5691 4684 
L 5684 4219 
L 1978 4219 
Q 1947 4178 1883 4068 
Q 1819 3959 1784 3916 
L 5050 3916 
L 5050 1991 
L 2656 1991 
L 2656 1978 
L 2822 1875 
L 2663 1650 
L 5056 1650 
L 5056 1209 
Q 4731 819 4025 372 
Q 4581 163 6106 84 
z
M 4550 3200 
L 4550 3463 
L 2075 3463 
L 2075 3200 
L 4550 3200 
z
M 4550 2463 
L 4550 2731 
L 2075 2731 
L 2075 2463 
L 4550 2463 
z
M 4325 1184 
L 2516 1184 
Q 2953 794 3438 609 
Q 4066 931 4325 1184 
z
" transform="scale(0.015625)"/>
      <path id="ArialUnicodeMS-2665" d="M 3744 4525 
L 3188 4525 
L 3188 -447 
L 2700 -447 
L 2700 684 
L 544 213 
L 275 653 
Q 531 691 959 781 
L 959 4525 
L 331 4525 
L 331 4991 
L 3744 4991 
L 3744 4525 
z
M 2700 3725 
L 2700 4525 
L 1447 4525 
L 1447 3725 
L 2700 3725 
z
M 2700 2406 
L 2700 3256 
L 1447 3256 
L 1447 2406 
L 2700 2406 
z
M 2700 1153 
L 2700 1941 
L 1447 1941 
L 1447 897 
L 2700 1153 
z
M 6144 84 
L 5791 -263 
Q 5134 138 4653 756 
Q 4391 313 3609 -294 
L 3272 63 
Q 4041 588 4372 1191 
Q 3725 2328 3609 3950 
L 3419 3950 
L 3419 4416 
L 5741 4416 
Q 5616 2397 4928 1184 
Q 5372 544 6144 84 
z
M 5216 3950 
L 4078 3950 
Q 4200 2622 4647 1663 
Q 5128 2553 5216 3950 
z
" transform="scale(0.015625)"/>
      <path id="ArialUnicodeMS-3" transform="scale(0.015625)"/>
      <path id="ArialUnicodeMS-51" d="M 3138 0 
L 2572 0 
L 2572 2016 
Q 2572 2525 2389 2715 
Q 2206 2906 1881 2906 
Q 1631 2906 1407 2784 
Q 1184 2663 1090 2441 
Q 997 2219 997 1813 
L 997 0 
L 434 0 
L 434 3316 
L 941 3316 
L 941 2847 
L 953 2847 
Q 1131 3119 1392 3255 
Q 1653 3391 1997 3391 
Q 2259 3391 2515 3297 
Q 2772 3203 2917 3015 
Q 3063 2828 3100 2615 
Q 3138 2403 3138 2041 
L 3138 0 
z
" transform="scale(0.015625)"/>
      <path id="ArialUnicodeMS-20b9" d="M 6113 2503 
L 5728 2163 
Q 3956 3153 3200 4469 
Q 2788 3750 2070 3109 
Q 1353 2469 609 2156 
L 191 2491 
Q 2191 3438 3116 5325 
L 3547 5125 
L 3463 4947 
Q 4066 3694 6113 2503 
z
M 3406 -447 
L 2919 -447 
L 2919 3531 
L 3406 3531 
L 3406 -447 
z
" transform="scale(0.015625)"/>
      <path id="ArialUnicodeMS-269d" d="M 5925 3138 
L 1631 3138 
L 1631 1850 
Q 1631 747 709 -384 
L 281 -56 
Q 1147 881 1147 1869 
L 1147 4666 
Q 3191 4666 5275 5403 
L 5613 5025 
Q 3828 4219 1631 4178 
L 1631 3603 
L 5925 3603 
L 5925 3138 
z
M 5388 -409 
L 4903 -409 
L 4903 97 
L 2644 97 
L 2644 -409 
L 2156 -409 
L 2156 2338 
L 5388 2338 
L 5388 -409 
z
M 4903 563 
L 4903 1869 
L 2644 1869 
L 2644 563 
L 4903 563 
z
" transform="scale(0.015625)"/>
      <path id="ArialUnicodeMS-3ed1" d="M 6003 684 
L 5678 319 
Q 4184 966 3463 2100 
L 3463 122 
Q 3431 -88 3350 -213 
Q 3269 -338 3133 -377 
Q 2997 -416 2150 -416 
L 1978 103 
Q 2500 84 2731 126 
Q 2963 169 2963 409 
L 2963 3725 
L 634 3725 
L 634 4206 
L 2963 4206 
L 2963 5344 
L 3469 5344 
L 3469 4206 
L 5722 4206 
L 5722 3725 
L 3469 3725 
L 3469 2925 
Q 4247 1403 6003 684 
z
M 5375 4575 
L 5056 4231 
Q 4481 4719 3756 4884 
L 4103 5241 
Q 4678 5138 5375 4575 
z
M 5606 3244 
Q 5147 2625 4191 2131 
L 3884 2528 
Q 4822 2969 5269 3559 
L 5606 3244 
z
M 2613 2547 
L 2303 2209 
Q 1516 2941 800 3138 
L 1153 3500 
Q 1997 3203 2613 2547 
z
M 2625 1556 
L 806 525 
L 391 872 
Q 1409 1403 2625 2088 
L 2625 1556 
z
" transform="scale(0.015625)"/>
     </defs>
     <use xlink:href="#ArialUnicodeMS-457b"/>
     <use xlink:href="#ArialUnicodeMS-4d5a" transform="translate(100 0)"/>
     <use xlink:href="#ArialUnicodeMS-11ec" transform="translate(200 0)"/>
     <use xlink:href="#ArialUnicodeMS-386f" transform="translate(300 0)"/>
     <use xlink:href="#ArialUnicodeMS-22de" transform="translate(400 0)"/>
     <use xlink:href="#ArialUnicodeMS-6d67" transform="translate(500 0)"/>
     <use xlink:href="#ArialUnicodeMS-383e" transform="translate(600 0)"/>
     <use xlink:href="#ArialUnicodeMS-3fda" transform="translate(700 0)"/>
     <use xlink:href="#ArialUnicodeMS-645e" transform="translate(800 0)"/>
     <use xlink:href="#ArialUnicodeMS-19f6" transform="translate(900 0)"/>
     <use xlink:href="#ArialUnicodeMS-645c" transform="translate(1000 0)"/>
     <use xlink:href="#ArialUnicodeMS-2b9c" transform="translate(1100 0)"/>
     <use xlink:href="#ArialUnicodeMS-2665" transform="translate(1200 0)"/>
     <use xlink:href="#ArialUnicodeMS-3" transform="translate(1300 0)"/>
     <use xlink:href="#ArialUnicodeMS-51" transform="translate(1327.78125 0)"/>
     <use xlink:href="#ArialUnicodeMS-3" transform="translate(1383.390625 0)"/>
     <use xlink:href="#ArialUnicodeMS-20b9" transform="translate(1411.171875 0)"/>
     <use xlink:href="#ArialUnicodeMS-5e8a" transform="translate(1511.171875 0)"/>
     <use xlink:href="#ArialUnicodeMS-37ff" transform="translate(1611.171875 0)"/>
     <use xlink:href="#ArialUnicodeMS-269d" transform="translate(1711.171875 0)"/>
     <use xlink:href="#ArialUnicodeMS-3ed1" transform="translate(1811.171875 0)"/>
     <use xlink:href="#ArialUnicodeMS-3102" transform="translate(1911.171875 0)"/>
     <use xlink:href="#ArialUnicodeMS-29d6" transform="translate(2011.171875 0)"/>
    </g>
   </g>
   <g id="legend_1">
    <g id="line2d_23">
     <path d="M 443.41827 40.852969 
L 455.41827 40.852969 
L 467.41827 40.852969 
" style="fill: none; stroke-dasharray: 2.2,3.63; stroke-dashoffset: 0; stroke: #6e7b86; stroke-width: 2.2"/>
    </g>
    <g id="text_22">
     <!-- n = 1，标准差 = 1.0 m -->
     <g style="fill: #192b35" transform="translate(477.01827 45.052969) scale(0.12 -0.12)">
      <defs>
       <path id="ArialUnicodeMS-20" d="M 3384 2694 
L 353 2694 
L 353 3219 
L 3384 3219 
L 3384 2694 
z
M 3384 1300 
L 353 1300 
L 353 1825 
L 3384 1825 
L 3384 1300 
z
" transform="scale(0.015625)"/>
       <path id="ArialUnicodeMS-19e8" d="M 3541 0 
Q 3541 -397 3389 -606 
Q 3238 -816 3016 -903 
L 2863 -666 
Q 3213 -516 3216 0 
L 2900 0 
L 2900 641 
L 3541 641 
L 3541 0 
z
" transform="scale(0.015625)"/>
       <path id="ArialUnicodeMS-3a96" d="M 2597 2169 
L 2175 1931 
Q 2006 2331 1703 2772 
L 1691 2772 
L 1691 -353 
L 1203 -353 
L 1203 2253 
L 1191 2253 
Q 1022 1659 494 1106 
L 134 1453 
Q 966 2294 1172 3653 
L 372 3653 
L 372 4122 
L 1203 4122 
L 1203 5331 
L 1691 5331 
L 1691 4122 
L 2419 4122 
L 2419 3653 
L 1691 3653 
L 1691 3091 
L 1875 3206 
Q 2334 2725 2597 2169 
z
M 5569 4384 
L 2669 4384 
L 2669 4825 
L 5569 4825 
L 5569 4384 
z
M 5863 2931 
L 4353 2931 
L 4353 422 
Q 4353 78 4300 -64 
Q 4247 -206 4150 -261 
Q 4053 -316 3397 -378 
L 3219 116 
L 3756 91 
Q 3866 91 3866 281 
L 3866 2931 
L 2388 2931 
L 2388 3372 
L 5863 3372 
L 5863 2931 
z
M 6016 728 
L 5556 481 
Q 5247 1438 4531 2309 
L 4909 2547 
Q 5678 1606 6016 728 
z
M 3494 2316 
Q 3028 1181 2222 459 
L 1825 781 
Q 2694 1544 3097 2528 
L 3494 2316 
z
" transform="scale(0.015625)"/>
       <path id="ArialUnicodeMS-2455" d="M 6081 56 
L 2944 56 
L 2944 -416 
L 2450 -416 
L 2450 3181 
Q 2297 2922 2028 2638 
L 1538 2859 
Q 2488 3813 2900 5344 
L 3353 5172 
Q 3178 4503 3028 4197 
L 4072 4197 
Q 4394 4750 4500 5338 
L 4972 5172 
Q 4900 4766 4641 4197 
L 5869 4197 
L 5869 3731 
L 4563 3731 
L 4563 3034 
L 5672 3034 
L 5672 2566 
L 4563 2566 
L 4563 1813 
L 5672 1813 
L 5672 1344 
L 4563 1344 
L 4563 525 
L 6081 525 
L 6081 56 
z
M 4078 3034 
L 4078 3731 
L 2944 3731 
L 2944 3034 
L 4078 3034 
z
M 4078 1813 
L 4078 2566 
L 2944 2566 
L 2944 1813 
L 4078 1813 
z
M 4078 525 
L 4078 1344 
L 2944 1344 
L 2944 525 
L 4078 525 
z
M 1931 3878 
L 1503 3603 
Q 1103 4347 581 4684 
L 1025 4947 
Q 1456 4669 1931 3878 
z
M 1825 2413 
Q 1728 1144 825 -97 
L 366 172 
Q 1266 1400 1331 2572 
L 1825 2413 
z
" transform="scale(0.015625)"/>
       <path id="ArialUnicodeMS-307d" d="M 5991 -122 
L 1209 -122 
L 1209 347 
L 3284 347 
L 3284 1178 
L 1863 1178 
Q 1419 619 588 159 
L 300 581 
Q 1531 1266 1888 2169 
L 697 2169 
L 697 2631 
L 2981 2631 
L 2981 3188 
L 1319 3188 
L 1319 3634 
L 2981 3634 
L 2981 4122 
L 947 4122 
L 947 4581 
L 2291 4581 
Q 2069 4831 1563 5088 
L 2069 5350 
Q 2581 5003 2822 4588 
L 3647 4588 
Q 4069 4869 4313 5375 
L 4781 5147 
Q 4534 4741 4347 4603 
L 4347 4588 
L 5581 4588 
L 5575 4122 
L 3463 4122 
L 3463 3634 
L 5209 3634 
L 5209 3188 
L 3463 3188 
L 3463 2631 
L 5838 2631 
L 5838 2169 
L 2413 2169 
Q 2375 2000 2150 1644 
L 5497 1644 
L 5497 1178 
L 3763 1178 
L 3763 347 
L 5991 347 
L 5991 -122 
z
" transform="scale(0.015625)"/>
      </defs>
      <use xlink:href="#ArialUnicodeMS-51"/>
      <use xlink:href="#ArialUnicodeMS-3" transform="translate(55.609375 0)"/>
      <use xlink:href="#ArialUnicodeMS-20" transform="translate(83.390625 0)"/>
      <use xlink:href="#ArialUnicodeMS-3" transform="translate(141.796875 0)"/>
      <use xlink:href="#ArialUnicodeMS-14" transform="translate(169.578125 0)"/>
      <use xlink:href="#ArialUnicodeMS-19e8" transform="translate(225.1875 0)"/>
      <use xlink:href="#ArialUnicodeMS-3a96" transform="translate(325.1875 0)"/>
      <use xlink:href="#ArialUnicodeMS-2455" transform="translate(425.1875 0)"/>
      <use xlink:href="#ArialUnicodeMS-307d" transform="translate(525.1875 0)"/>
      <use xlink:href="#ArialUnicodeMS-3" transform="translate(625.1875 0)"/>
      <use xlink:href="#ArialUnicodeMS-20" transform="translate(652.96875 0)"/>
      <use xlink:href="#ArialUnicodeMS-3" transform="translate(711.375 0)"/>
      <use xlink:href="#ArialUnicodeMS-14" transform="translate(739.15625 0)"/>
      <use xlink:href="#ArialUnicodeMS-11" transform="translate(794.765625 0)"/>
      <use xlink:href="#ArialUnicodeMS-13" transform="translate(822.546875 0)"/>
      <use xlink:href="#ArialUnicodeMS-3" transform="translate(878.15625 0)"/>
      <use xlink:href="#ArialUnicodeMS-50" transform="translate(905.9375 0)"/>
     </g>
    </g>
    <g id="line2d_24">
     <path d="M 443.41827 59.450625 
L 455.41827 59.450625 
L 467.41827 59.450625 
" style="fill: none; stroke-dasharray: 8.14,3.52; stroke-dashoffset: 0; stroke: #2563a6; stroke-width: 2.2"/>
    </g>
    <g id="text_23">
     <!-- n = 4，标准差 = 0.5 m -->
     <g style="fill: #192b35" transform="translate(477.01827 63.650625) scale(0.12 -0.12)">
      <use xlink:href="#ArialUnicodeMS-51"/>
      <use xlink:href="#ArialUnicodeMS-3" transform="translate(55.609375 0)"/>
      <use xlink:href="#ArialUnicodeMS-20" transform="translate(83.390625 0)"/>
      <use xlink:href="#ArialUnicodeMS-3" transform="translate(141.796875 0)"/>
      <use xlink:href="#ArialUnicodeMS-17" transform="translate(169.578125 0)"/>
      <use xlink:href="#ArialUnicodeMS-19e8" transform="translate(225.1875 0)"/>
      <use xlink:href="#ArialUnicodeMS-3a96" transform="translate(325.1875 0)"/>
      <use xlink:href="#ArialUnicodeMS-2455" transform="translate(425.1875 0)"/>
      <use xlink:href="#ArialUnicodeMS-307d" transform="translate(525.1875 0)"/>
      <use xlink:href="#ArialUnicodeMS-3" transform="translate(625.1875 0)"/>
      <use xlink:href="#ArialUnicodeMS-20" transform="translate(652.96875 0)"/>
      <use xlink:href="#ArialUnicodeMS-3" transform="translate(711.375 0)"/>
      <use xlink:href="#ArialUnicodeMS-13" transform="translate(739.15625 0)"/>
      <use xlink:href="#ArialUnicodeMS-11" transform="translate(794.765625 0)"/>
      <use xlink:href="#ArialUnicodeMS-18" transform="translate(822.546875 0)"/>
      <use xlink:href="#ArialUnicodeMS-3" transform="translate(878.15625 0)"/>
      <use xlink:href="#ArialUnicodeMS-50" transform="translate(905.9375 0)"/>
     </g>
    </g>
    <g id="line2d_25">
     <path d="M 443.41827 78.048281 
L 455.41827 78.048281 
L 467.41827 78.048281 
" style="fill: none; stroke: #bc5930; stroke-width: 2.2; stroke-linecap: square"/>
    </g>
    <g id="text_24">
     <!-- n = 25，标准差 = 0.2 m -->
     <g style="fill: #192b35" transform="translate(477.01827 82.248281) scale(0.12 -0.12)">
      <use xlink:href="#ArialUnicodeMS-51"/>
      <use xlink:href="#ArialUnicodeMS-3" transform="translate(55.609375 0)"/>
      <use xlink:href="#ArialUnicodeMS-20" transform="translate(83.390625 0)"/>
      <use xlink:href="#ArialUnicodeMS-3" transform="translate(141.796875 0)"/>
      <use xlink:href="#ArialUnicodeMS-15" transform="translate(169.578125 0)"/>
      <use xlink:href="#ArialUnicodeMS-18" transform="translate(225.1875 0)"/>
      <use xlink:href="#ArialUnicodeMS-19e8" transform="translate(280.796875 0)"/>
      <use xlink:href="#ArialUnicodeMS-3a96" transform="translate(380.796875 0)"/>
      <use xlink:href="#ArialUnicodeMS-2455" transform="translate(480.796875 0)"/>
      <use xlink:href="#ArialUnicodeMS-307d" transform="translate(580.796875 0)"/>
      <use xlink:href="#ArialUnicodeMS-3" transform="translate(680.796875 0)"/>
      <use xlink:href="#ArialUnicodeMS-20" transform="translate(708.578125 0)"/>
      <use xlink:href="#ArialUnicodeMS-3" transform="translate(766.984375 0)"/>
      <use xlink:href="#ArialUnicodeMS-13" transform="translate(794.765625 0)"/>
      <use xlink:href="#ArialUnicodeMS-11" transform="translate(850.375 0)"/>
      <use xlink:href="#ArialUnicodeMS-15" transform="translate(878.15625 0)"/>
      <use xlink:href="#ArialUnicodeMS-3" transform="translate(933.765625 0)"/>
      <use xlink:href="#ArialUnicodeMS-50" transform="translate(961.546875 0)"/>
     </g>
    </g>
   </g>
  </g>
 </g>
 <defs>
  <clipPath id="pb60bfb6ef5">
   <rect x="54.15125" y="24.174844" width="559.04827" height="244.628817"/>
  </clipPath>
 </defs>
</svg>
